<?xml version="1.0" standalone="no"?>
<!DOCTYPE svg PUBLIC "-//W3C//DTD SVG 20010904//EN"
 "http://www.w3.org/TR/2001/REC-SVG-20010904/DTD/svg10.dtd">
<svg version="1.0" xmlns="http://www.w3.org/2000/svg"
 width="1024.000000pt" height="1024.000000pt" viewBox="0 0 1024.000000 1024.000000"
 preserveAspectRatio="xMidYMid meet">

<g transform="translate(0.000000,1024.000000) scale(0.100000,-0.100000)"
fill="#000000" stroke="none">
<path d="M5455 9961 c-3 -5 -20 -13 -37 -17 -18 -3 -49 -21 -70 -38 -29 -24
-36 -36 -32 -56 2 -14 2 -20 -1 -13 -4 8 -13 5 -28 -8 -32 -29 -148 -104 -206
-134 -28 -14 -65 -38 -83 -53 -18 -16 -48 -36 -65 -45 -18 -10 -45 -24 -60
-31 -20 -11 -93 -18 -258 -25 -344 -15 -715 -74 -985 -156 -200 -60 -296 -94
-431 -151 -139 -59 -179 -54 -387 49 -114 57 -123 63 -132 97 -21 79 -108 121
-176 86 -15 -8 -32 -13 -36 -10 -29 18 -93 -92 -85 -146 5 -36 1 -40 -88 -126
-146 -141 -250 -224 -277 -224 -27 0 -87 40 -128 85 -14 15 -46 37 -71 50 -25
13 -51 31 -59 40 -8 9 -34 31 -59 48 -25 17 -66 48 -91 68 -25 20 -61 44 -80
52 -19 8 -62 38 -95 67 -33 29 -74 58 -92 66 -17 7 -35 18 -38 24 -4 6 -23 22
-43 35 -116 75 -251 171 -289 205 -25 21 -57 41 -72 45 -16 3 -39 17 -52 31
-24 26 -105 84 -116 84 -4 0 -28 18 -54 40 -26 22 -51 40 -56 40 -14 0 -66
-88 -132 -220 -34 -69 -82 -159 -106 -200 -24 -41 -51 -88 -59 -105 -8 -16
-29 -59 -46 -95 -17 -36 -50 -100 -73 -143 -23 -42 -79 -151 -124 -240 l-83
-164 0 -145 0 -144 43 -24 c57 -31 77 -50 77 -72 0 -23 -27 -24 -34 0 -5 15
-66 62 -81 62 -16 0 -1 -43 26 -71 33 -35 23 -55 -12 -23 -18 16 -19 16 -19
-7 0 -13 4 -39 9 -57 6 -20 6 -30 0 -27 -5 4 -9 -86 -8 -232 0 -152 4 -230 9
-215 12 28 20 28 50 0 13 -12 37 -29 54 -38 42 -21 48 -45 10 -36 -16 4 -36
13 -44 20 -8 8 -20 11 -27 9 -7 -2 -21 1 -32 7 -19 9 -21 8 -21 -14 0 -16 11
-32 32 -47 18 -13 37 -29 41 -36 4 -7 13 -13 20 -13 17 -1 63 -37 56 -45 -4
-3 -24 4 -45 16 l-39 23 29 -32 c17 -18 35 -32 42 -32 20 0 24 -27 5 -44 -26
-24 -44 -20 -95 19 l-46 35 0 -86 c0 -105 11 -127 86 -179 31 -22 73 -54 93
-71 20 -17 59 -43 86 -57 28 -14 61 -37 75 -52 14 -15 65 -54 114 -87 197
-132 211 -147 187 -196 -51 -105 -89 -199 -100 -253 -6 -29 -16 -58 -21 -64
-6 -7 -19 -43 -29 -81 -11 -38 -28 -100 -39 -139 -17 -59 -51 -203 -92 -395
-49 -226 -71 -919 -36 -1160 3 -19 10 -80 16 -135 13 -121 44 -270 110 -535
25 -98 111 -350 159 -465 5 -11 16 -40 26 -65 28 -72 193 -401 236 -471 21
-35 39 -68 39 -73 0 -4 14 -28 30 -53 17 -24 37 -58 46 -76 9 -18 39 -62 65
-99 27 -37 62 -93 78 -124 24 -48 27 -62 19 -86 -11 -31 -3 -109 31 -323 11
-66 27 -165 36 -220 9 -55 21 -120 27 -145 5 -25 16 -89 22 -142 l12 -98 -45
-45 c-41 -42 -45 -51 -49 -106 -9 -116 61 -189 179 -189 68 0 99 8 99 26 0 7
9 18 21 24 19 11 20 19 18 110 l-3 98 144 141 c79 78 149 141 155 141 5 0 60
-49 120 -108 61 -59 136 -127 167 -150 31 -23 59 -46 63 -52 5 -8 43 -37 195
-149 19 -14 50 -36 69 -49 18 -13 41 -30 49 -39 9 -8 34 -23 57 -33 23 -10 48
-24 56 -32 26 -26 153 -104 224 -137 39 -18 89 -46 112 -61 36 -25 214 -110
228 -110 3 0 35 -14 70 -30 35 -17 69 -30 75 -30 6 0 21 -6 33 -14 22 -15 212
-80 322 -111 204 -58 281 -75 545 -120 398 -68 987 -70 1405 -5 210 33 320 56
515 109 36 10 83 23 105 28 43 11 117 36 178 61 34 14 41 14 73 -1 30 -15 33
-20 24 -36 -15 -30 -12 -92 8 -130 25 -50 92 -83 155 -77 61 7 100 34 128 92
18 38 31 51 75 71 30 13 56 28 59 33 3 5 31 14 63 20 31 7 111 38 177 70 66
33 161 75 212 94 50 19 122 49 160 66 37 18 91 43 119 56 28 13 75 33 105 43
109 38 139 51 204 86 37 19 95 44 128 55 34 11 76 27 92 35 127 61 207 94 239
100 21 4 59 22 85 39 l47 32 60 -41 c106 -73 214 -156 214 -163 0 -5 19 -17
43 -27 23 -10 51 -26 62 -36 54 -47 95 -78 144 -108 30 -18 70 -48 90 -67 20
-18 59 -46 86 -60 28 -15 62 -38 77 -52 29 -26 86 -69 201 -149 102 -72 99
-70 104 -55 3 7 20 33 38 57 34 44 85 133 85 148 0 4 14 27 30 50 67 92 130
196 130 212 0 9 17 42 38 73 88 131 112 170 139 227 16 33 44 80 62 105 47 63
101 184 101 227 0 42 -27 71 -103 109 -28 15 -72 44 -97 66 -25 22 -73 56
-106 76 -99 60 -168 108 -189 132 -11 12 -39 31 -62 41 -22 9 -66 40 -97 68
-31 28 -63 51 -71 51 -9 0 -35 19 -58 43 -23 24 -66 60 -95 81 -46 32 -58 36
-85 29 -18 -4 -41 -7 -51 -8 -13 0 -31 -20 -56 -62 -19 -34 -38 -65 -42 -68
-8 -8 -100 38 -116 58 -10 12 -6 23 21 58 67 89 99 140 94 154 -3 7 -33 28
-66 45 -33 18 -71 47 -84 64 -13 17 -54 49 -91 70 -37 21 -70 44 -74 50 -9 14
-152 123 -210 160 -24 15 -62 46 -85 70 -23 23 -59 52 -79 64 -20 11 -77 52
-125 90 -48 38 -99 73 -113 77 -14 4 -32 14 -41 21 -19 17 -26 10 -84 -81 -22
-33 -48 -71 -59 -85 -12 -14 -36 -55 -54 -90 -46 -91 -56 -102 -86 -98 -24 3
-25 4 -12 29 7 14 15 46 18 72 5 40 3 48 -17 61 -25 16 -24 46 1 67 10 8 20 6
40 -10 35 -28 40 -27 53 11 10 27 8 35 -9 53 l-20 22 35 59 c19 32 49 71 67
87 17 15 29 29 27 31 -12 10 -50 26 -63 26 -8 0 -54 27 -101 60 -47 33 -103
69 -124 80 -22 11 -66 43 -100 72 -33 29 -77 62 -98 73 -21 10 -56 35 -79 55
-22 19 -71 60 -109 90 -38 30 -94 78 -125 106 -30 29 -76 64 -102 78 l-46 26
-30 -48 c-17 -26 -38 -65 -46 -87 -9 -22 -22 -44 -29 -50 -7 -5 -24 -28 -38
-50 -14 -22 -51 -78 -81 -125 -31 -47 -61 -96 -68 -109 -7 -13 -26 -43 -44
-66 -17 -23 -36 -50 -41 -60 -11 -17 -12 -17 -38 0 -19 12 -26 23 -22 36 9 26
104 191 124 214 15 17 28 41 36 65 12 39 106 212 139 254 21 28 66 117 66 131
0 3 33 54 73 113 41 59 76 112 78 117 14 35 73 115 85 115 7 0 18 9 24 21 7
12 18 18 26 15 13 -5 19 6 15 28 -1 5 8 19 19 32 15 15 20 29 16 42 -4 11 -2
23 4 27 6 4 32 39 57 78 26 40 48 74 50 76 5 7 73 -61 73 -73 0 -16 -91 -147
-106 -153 -7 -2 -10 -11 -7 -19 3 -9 -9 -27 -33 -47 -20 -18 -51 -47 -68 -64
-17 -18 -56 -58 -87 -90 -32 -33 -62 -75 -69 -96 -13 -40 -6 -107 11 -107 5 0
22 -12 37 -27 36 -37 100 -86 181 -137 36 -24 77 -56 91 -71 14 -15 54 -47 90
-70 36 -23 74 -52 85 -65 11 -12 82 -69 157 -127 75 -57 138 -107 140 -112 2
-5 32 -22 68 -39 64 -30 65 -30 82 -11 22 26 36 24 88 -13 64 -46 83 -66 116
-123 32 -56 45 -69 127 -126 31 -22 57 -43 57 -48 0 -4 21 -23 48 -41 26 -19
63 -46 82 -62 70 -57 206 -155 255 -183 28 -16 64 -44 80 -62 33 -36 65 -59
169 -124 37 -23 89 -64 115 -91 25 -27 66 -60 91 -73 25 -13 61 -37 80 -55 19
-17 55 -44 80 -58 62 -36 138 -90 181 -128 20 -18 61 -48 90 -68 30 -20 72
-50 94 -67 22 -16 59 -38 82 -49 23 -10 68 -43 101 -72 48 -43 126 -99 165
-116 4 -2 7 183 7 412 l0 416 -25 0 c-15 0 -31 9 -40 24 -15 22 -14 27 5 64
16 31 25 39 40 35 19 -5 20 1 20 174 l0 179 -42 40 c-24 23 -59 52 -78 65 -19
13 -65 48 -102 79 -37 30 -91 74 -120 97 -29 22 -78 62 -108 87 -30 25 -80 63
-110 83 -30 20 -80 59 -111 87 -30 28 -71 63 -90 78 l-34 27 30 1 c24 0 36 10
62 48 18 26 35 61 39 78 5 28 3 31 -48 54 -29 13 -58 28 -64 32 -8 6 7 44 47
123 32 64 64 135 71 158 7 23 26 67 43 97 17 30 37 71 45 90 8 19 24 53 35 75
12 22 27 62 34 88 6 27 22 65 35 85 31 52 84 166 108 237 11 33 53 125 93 205
40 80 76 161 80 180 4 19 13 42 20 50 7 8 28 47 45 85 18 39 35 72 39 75 10 7
55 123 71 182 8 30 11 84 8 145 -3 79 -9 109 -31 156 -15 32 -27 60 -27 62 0
2 -22 42 -50 89 -27 47 -50 87 -50 90 0 10 -83 180 -107 218 -13 21 -30 57
-39 80 -8 24 -20 51 -25 61 -8 14 -6 24 6 37 18 20 35 113 28 152 -8 42 -46
70 -103 76 -46 4 -54 9 -100 61 -73 83 -152 182 -216 271 -31 44 -61 80 -66
80 -4 0 -29 33 -55 72 -25 40 -70 97 -99 128 -30 30 -54 59 -54 65 0 6 -13 24
-28 39 -16 15 -56 61 -88 102 -32 42 -88 109 -122 151 -35 41 -70 85 -76 99
-7 13 -42 59 -77 101 -35 43 -78 100 -96 126 -17 27 -52 69 -78 93 -44 42 -46
47 -40 87 3 23 -1 71 -8 106 l-14 63 35 32 c19 17 48 45 64 61 16 17 109 112
206 211 l177 182 68 7 c98 10 115 28 126 129 11 96 2 114 -73 147 -93 40 -205
4 -221 -72 -10 -43 2 -113 24 -141 20 -25 17 -48 -5 -48 -8 0 -14 -4 -14 -9 0
-5 -11 -11 -24 -15 -13 -3 -35 -23 -49 -45 -14 -21 -53 -63 -87 -92 -34 -30
-75 -72 -91 -94 -16 -22 -46 -51 -67 -65 -20 -14 -52 -48 -69 -75 -33 -49 -34
-50 -89 -52 -41 -2 -67 -9 -95 -27 -35 -24 -40 -25 -66 -11 -55 28 -99 47
-148 64 -27 10 -98 37 -158 59 -59 23 -112 42 -118 42 -6 0 -34 11 -62 25 -50
23 -155 64 -262 101 -27 9 -79 30 -115 45 -85 37 -287 115 -375 145 -38 13
-77 28 -86 33 -9 5 -81 35 -160 66 -79 31 -157 62 -174 70 -16 7 -43 17 -60
21 -16 4 -66 22 -110 41 -44 18 -84 33 -90 33 -5 0 -32 12 -60 25 -27 14 -55
25 -62 25 -21 0 -107 32 -123 45 -8 7 -53 25 -100 40 -47 15 -95 34 -107 41
-13 8 -23 12 -23 10 0 -3 -32 8 -72 25 -39 16 -84 32 -99 34 -36 7 -188 98
-243 146 -43 38 -96 52 -111 30z m260 -225 c220 -83 334 -125 390 -141 33 -10
76 -26 95 -36 19 -11 38 -19 43 -19 4 0 27 -8 50 -18 96 -42 124 -52 172 -62
27 -6 54 -15 60 -19 5 -5 42 -21 80 -36 39 -15 80 -33 91 -40 27 -17 208 -89
249 -99 16 -4 60 -23 98 -42 37 -19 75 -34 83 -34 8 0 52 -14 97 -31 45 -17
125 -47 177 -66 52 -19 109 -41 125 -48 135 -60 178 -76 235 -91 36 -8 70 -19
75 -24 16 -12 175 -76 247 -100 37 -12 70 -26 73 -31 4 -5 14 -9 23 -9 9 0 51
-16 94 -37 l78 -36 0 -49 c0 -61 -16 -92 -83 -160 -22 -21 -60 -66 -87 -99
-66 -82 -92 -101 -127 -93 -15 4 -32 11 -38 16 -26 22 -216 163 -270 200 -33
23 -80 58 -105 78 -25 20 -65 46 -90 59 -25 12 -81 49 -125 81 -44 33 -91 65
-105 72 -14 7 -32 18 -41 25 -20 16 -87 54 -170 96 -37 19 -79 43 -94 55 -24
19 -71 43 -390 198 -60 29 -148 67 -195 83 -47 17 -123 44 -170 61 -103 37
-364 105 -440 115 -30 3 -89 13 -130 20 -144 27 -376 55 -456 55 -116 0 -205
11 -201 24 2 6 26 22 53 36 28 14 72 41 99 62 28 20 77 49 110 64 33 15 62 29
65 31 3 2 12 -9 21 -25 20 -35 80 -66 111 -58 43 11 89 46 100 76 5 17 15 30
21 30 7 0 53 -15 102 -34z m-4971 -32 c74 -35 80 -43 59 -85 -21 -43 -48 -79
-73 -96 -17 -12 -24 -11 -55 9 -22 15 -35 31 -35 44 0 24 38 154 45 154 3 0
29 -12 59 -26z m185 -120 c18 -10 51 -37 75 -59 23 -22 70 -56 105 -75 34 -19
80 -48 100 -65 21 -16 47 -35 57 -42 18 -10 18 -12 3 -28 -21 -21 -47 -14 -88
25 -17 15 -31 24 -31 19 0 -5 -21 11 -47 36 -26 25 -52 45 -58 45 -6 0 -33 23
-60 50 -27 28 -55 50 -63 50 -8 0 -25 9 -39 20 -14 11 -32 20 -39 20 -17 0
-18 17 -1 23 21 7 53 1 86 -19z m-356 -236 c44 -23 59 -58 25 -58 -15 0 -78
49 -78 61 0 12 27 11 53 -3z m317 -73 c7 -8 19 -15 27 -15 9 0 13 -6 10 -15
-4 -8 -2 -17 3 -20 15 -9 12 -18 -17 -50 -16 -16 -27 -33 -26 -36 6 -20 -55
18 -65 39 -17 38 -15 50 16 82 32 34 35 35 52 15z m-365 -39 c22 -10 35 -22
35 -33 0 -10 -18 -53 -40 -96 -22 -42 -40 -83 -40 -92 0 -9 -18 -40 -41 -70
-44 -59 -53 -60 -103 -14 -11 11 -24 19 -29 19 -15 0 0 100 18 120 8 9 15 22
15 28 0 7 4 12 9 12 5 0 24 24 42 53 60 95 69 100 134 73z m905 -20 c0 -8 -4
-17 -9 -21 -12 -7 -24 12 -16 25 9 15 25 12 25 -4z m1407 -25 c87 -38 98 -54
58 -87 -32 -26 -153 -88 -195 -99 -14 -4 -34 -18 -45 -31 -11 -13 -69 -48
-130 -79 -60 -31 -117 -62 -125 -70 -8 -7 -40 -25 -70 -39 -63 -30 -75 -27
-143 32 -21 18 -49 37 -63 42 -38 15 -30 45 19 74 23 14 69 53 102 87 33 33
74 67 90 76 17 8 48 34 70 58 l40 43 80 -7 c72 -7 85 -5 130 16 60 28 87 26
182 -16z m-1143 -170 c15 -17 16 -23 6 -36 -20 -25 -38 -18 -108 43 -37 31
-78 64 -90 72 -20 13 -22 19 -13 43 l11 27 88 -64 c48 -36 96 -74 106 -85z
m-609 125 c8 -7 11 -17 7 -21 -4 -5 -2 -5 5 -2 28 17 62 -30 34 -48 -6 -3 -20
-25 -32 -50 -21 -43 -23 -44 -48 -30 -35 19 -91 73 -91 89 0 25 27 49 48 44
12 -3 21 -3 20 1 -2 20 5 22 27 7 28 -19 34 -10 8 10 -12 9 -14 13 -5 14 7 0
20 -6 27 -14z m-315 -136 c0 -3 -4 -11 -9 -19 -7 -10 -13 -11 -30 -2 -30 16
-26 26 9 26 17 0 30 -2 30 -5z m1079 -94 c21 -14 49 -39 61 -56 l23 -32 -29
-61 c-27 -57 -87 -137 -103 -137 -4 0 -29 20 -55 44 -52 47 -55 68 -16 111 10
11 21 36 25 56 6 35 39 99 50 99 3 0 23 -11 44 -24z m-1079 -25 c0 -26 -28
-31 -65 -13 -28 14 -28 16 -10 23 11 4 32 8 48 8 20 1 27 -4 27 -18z m-457
-13 c12 -13 26 -22 31 -20 10 3 36 -17 36 -30 0 -6 -14 -7 -32 -3 l-33 7 50
-51 c27 -28 54 -51 60 -51 6 0 26 -16 45 -35 19 -20 57 -49 85 -64 27 -16 79
-54 115 -85 36 -30 76 -58 89 -61 13 -3 49 -27 80 -53 62 -53 87 -71 211 -153
48 -32 92 -64 99 -73 7 -8 32 -25 57 -36 24 -12 65 -41 91 -64 51 -45 159
-121 207 -146 16 -8 50 -33 75 -56 25 -22 72 -53 105 -69 32 -16 95 -58 140
-94 44 -36 104 -81 132 -101 28 -19 69 -51 92 -70 23 -19 66 -48 96 -65 65
-36 184 -126 249 -189 26 -25 54 -46 62 -46 22 0 96 31 128 52 22 16 27 27 27
62 0 30 6 48 20 61 24 22 26 35 5 35 -8 0 -15 8 -15 18 0 18 81 177 100 196 6
6 10 21 10 36 0 14 12 45 26 70 59 102 148 265 144 265 -5 0 20 54 28 59 16 9
112 -57 112 -78 0 -10 -13 -40 -29 -65 -15 -26 -32 -58 -36 -72 -4 -13 -22
-51 -40 -84 -18 -33 -36 -73 -39 -90 -12 -55 -73 -196 -97 -221 -12 -13 -30
-24 -39 -24 -9 0 -20 -4 -26 -9 -5 -5 -22 -11 -39 -13 l-30 -4 28 -14 c42 -20
36 -53 -14 -82 -30 -16 -46 -35 -58 -63 -9 -22 -24 -52 -33 -65 -27 -37 -23
-45 35 -79 28 -16 72 -48 97 -71 25 -22 63 -50 84 -61 22 -12 62 -40 89 -64
26 -25 74 -61 105 -82 80 -54 131 -92 178 -134 23 -20 55 -40 72 -43 16 -4 37
-15 47 -26 15 -17 14 -21 -19 -65 -36 -46 -40 -57 -36 -84 2 -18 -39 7 -85 50
-16 15 -47 42 -67 59 -21 17 -36 36 -35 42 1 6 -13 15 -32 20 -40 11 -157 92
-171 118 -5 9 -26 25 -47 35 -21 10 -63 41 -93 69 -69 63 -174 120 -206 112
-19 -5 -65 -66 -50 -66 3 0 -13 -36 -34 -79 -22 -43 -42 -91 -46 -106 -8 -33
-54 -105 -67 -105 -5 0 -24 15 -43 34 -32 32 -33 36 -22 67 6 19 19 48 29 64
10 17 27 49 38 73 11 23 23 42 26 42 3 0 3 -4 0 -10 -3 -5 -2 -10 3 -10 5 0
14 11 20 25 15 32 15 38 2 30 -15 -9 -12 8 5 31 18 24 20 114 3 136 -7 9 -31
24 -52 34 -22 10 -53 32 -70 48 -37 37 -130 106 -143 106 -5 0 -27 18 -48 40
-22 23 -76 65 -120 95 -44 29 -102 72 -130 94 -27 22 -79 60 -115 84 -36 24
-86 63 -113 87 -46 42 -149 110 -167 110 -13 0 -60 -52 -60 -67 0 -6 -6 -24
-14 -40 -23 -44 -46 -132 -46 -172 0 -20 -7 -49 -16 -66 -9 -16 -27 -50 -39
-75 -35 -70 -48 -77 -79 -40 -14 18 -26 35 -26 40 0 5 -7 16 -16 25 -16 15
-16 19 0 51 9 19 16 45 16 57 0 12 36 92 79 179 44 86 81 168 83 183 3 29 2
30 -65 59 -21 9 -64 37 -95 61 -84 67 -190 145 -198 145 -6 0 -85 59 -94 71
-3 3 -30 21 -60 39 -30 19 -74 49 -98 68 -60 48 -140 102 -150 102 -5 0 -29
17 -53 38 -24 21 -60 49 -79 62 -19 13 -40 28 -45 34 -6 6 -30 21 -54 33 -34
18 -46 20 -61 11 -15 -10 -26 -7 -60 17 -22 15 -43 32 -45 36 -3 4 6 31 20 61
14 29 25 59 25 66 0 7 7 24 16 37 22 34 84 35 117 3z m398 -48 c10 -6 19 -20
19 -32 0 -21 0 -21 -25 2 -37 34 -34 51 6 30z m189 -1 c0 -7 9 -9 23 -6 17 5
26 0 39 -23 l17 -29 -31 6 c-33 7 -97 43 -98 56 0 4 11 7 25 7 14 0 25 -5 25
-11z m1225 -124 c36 -30 71 -55 79 -55 22 0 186 -121 186 -138 0 -17 -47 -82
-60 -82 -4 0 -33 37 -64 83 -31 45 -62 90 -70 100 -17 21 -58 22 -102 1 -40
-19 -57 -44 -43 -65 5 -7 9 -17 9 -21 0 -12 -98 -9 -105 2 -3 6 3 10 14 10 25
0 26 4 6 34 -14 22 -14 27 10 67 13 24 33 61 42 81 10 21 22 38 26 38 4 0 37
-25 72 -55z m-380 -57 l46 -43 -24 -70 c-29 -85 -73 -173 -138 -277 -27 -43
-49 -83 -49 -90 0 -7 -9 -24 -19 -37 l-18 -23 -40 20 c-47 24 -69 47 -53 57 5
3 10 17 10 31 0 14 11 46 25 72 45 83 52 96 88 167 19 39 40 87 47 109 7 21
23 54 36 74 13 19 24 39 24 43 0 18 19 8 65 -33z m-1604 -45 c48 -35 52 -46
34 -89 -16 -38 -45 -45 -94 -20 -50 26 -54 39 -30 90 11 25 28 46 36 46 8 0
32 -12 54 -27z m970 -46 c-13 -13 -26 -3 -16 12 3 6 11 8 17 5 6 -4 6 -10 -1
-17z m7504 -63 c22 -34 41 -57 102 -125 28 -32 63 -76 78 -98 28 -45 37 -57
108 -139 26 -30 47 -60 47 -66 0 -6 23 -36 51 -66 27 -30 66 -79 86 -107 20
-29 39 -53 43 -53 3 0 44 -50 91 -112 46 -61 107 -136 134 -167 28 -31 64 -76
80 -100 16 -24 53 -68 82 -99 48 -50 63 -72 47 -72 -3 0 -32 18 -64 40 -32 22
-62 40 -65 40 -8 0 -85 58 -163 122 -31 26 -64 48 -72 48 -8 0 -49 28 -90 61
-41 33 -88 68 -105 76 -16 9 -68 46 -115 82 -47 37 -97 72 -112 78 -14 7 -35
19 -45 27 -57 47 -153 114 -188 131 -21 11 -64 41 -94 68 -30 26 -60 47 -68
47 -7 0 -13 5 -13 10 0 6 -6 10 -14 10 -7 0 -43 20 -79 45 -37 25 -70 45 -75
45 -5 0 -14 6 -20 13 -8 10 18 43 111 140 97 101 127 127 149 127 15 0 29 3
32 8 2 4 31 8 64 9 54 3 61 1 77 -23z m-6514 3 c11 3 19 1 19 -5 0 -14 -25
-33 -33 -25 -4 3 -7 1 -7 -6 0 -21 -17 -3 -22 24 -4 19 -2 23 10 16 8 -5 23
-6 33 -4z m-861 -26 c0 -5 -7 -11 -15 -15 -15 -5 -20 5 -8 17 9 10 23 9 23 -2z
m969 -25 c30 -1 41 -26 13 -26 -11 0 -22 -8 -25 -17 -3 -14 -6 -11 -11 9 -6
21 -16 29 -42 34 -19 3 -34 10 -34 14 0 5 17 4 38 -2 20 -6 48 -12 61 -12z
m307 -12 c37 -28 45 -48 16 -36 -22 9 -72 47 -72 56 0 13 23 5 56 -20z m-1312
-32 c-4 -18 -10 -29 -15 -27 -4 3 -6 12 -4 20 3 8 7 22 10 31 9 28 16 9 9 -24z
m1100 12 c4 -10 1 -14 -6 -12 -15 5 -23 28 -10 28 5 0 13 -7 16 -16z m291 -52
c-3 -3 -11 0 -18 7 -9 10 -8 11 6 5 10 -3 15 -9 12 -12z m-539 -73 c31 -28 66
-54 80 -59 26 -10 31 -25 12 -36 -6 -4 -16 0 -22 8 -6 8 -23 18 -38 22 -16 3
-28 11 -28 16 0 14 -38 12 -42 -2 -3 -7 -14 -9 -30 -5 -24 6 -25 10 -24 66 1
70 5 69 92 -10z m589 50 c11 -17 -1 -21 -15 -4 -8 9 -8 15 -2 15 6 0 14 -5 17
-11z m5390 -56 c4 -16 2 -29 -4 -31 -6 -2 -20 -19 -31 -38 -12 -19 -28 -34
-36 -34 -9 0 -38 -10 -66 -22 -42 -18 -53 -29 -69 -65 -21 -50 -32 -49 -49 3
-10 29 -9 43 4 78 27 71 120 133 182 122 18 -4 35 -2 39 4 11 18 23 11 30 -17z
m-5307 -2 c20 -10 45 -28 55 -39 16 -17 16 -20 1 -32 -20 -17 -36 -8 -82 48
-38 46 -31 52 26 23z m-2361 -62 c-9 -6 -15 -14 -12 -20 8 -12 -16 -11 -35 1
-10 7 -11 10 -2 11 27 3 31 4 38 12 4 4 12 7 18 7 6 0 3 -5 -7 -11z m1675 -14
c9 4 18 0 21 -9 4 -9 17 -16 29 -16 46 0 53 -13 37 -64 l-15 -46 -53 55 c-29
30 -57 55 -62 55 -6 0 -5 10 2 21 7 15 13 18 18 10 4 -6 15 -9 23 -6z m6263
-150 c17 -15 62 -45 100 -68 39 -22 72 -43 75 -47 3 -4 57 -42 120 -85 63 -43
133 -92 155 -110 22 -17 60 -43 86 -58 25 -14 67 -44 95 -67 27 -22 69 -50 94
-62 25 -12 65 -38 90 -58 25 -21 59 -44 76 -53 17 -9 37 -23 44 -32 8 -9 34
-27 59 -40 25 -14 69 -45 96 -69 28 -25 73 -58 100 -72 28 -15 65 -40 83 -55
18 -16 45 -31 60 -34 60 -13 72 -31 42 -63 -16 -16 -21 -36 -21 -81 -1 -32 4
-68 10 -79 12 -23 87 -62 119 -62 22 0 62 -32 62 -50 0 -5 14 -32 30 -60 17
-28 30 -56 30 -61 0 -12 25 -72 43 -104 45 -80 106 -198 117 -226 7 -19 28
-59 46 -89 17 -30 47 -85 65 -122 l33 -68 -19 -52 c-10 -29 -26 -65 -36 -79
-11 -15 -42 -78 -70 -140 -28 -63 -82 -178 -120 -257 -38 -79 -69 -148 -69
-154 0 -5 -36 -84 -80 -174 -44 -90 -80 -169 -80 -176 0 -7 -34 -80 -75 -164
-41 -84 -78 -166 -81 -183 -4 -17 -31 -79 -62 -138 -38 -74 -60 -133 -72 -188
l-16 -80 -45 -1 c-48 -1 -89 -18 -89 -36 0 -19 -43 -98 -53 -98 -12 0 -66 40
-120 87 -20 18 -55 40 -77 49 -39 16 -50 29 -30 36 5 2 16 41 25 88 9 47 22
114 30 150 34 154 47 300 52 580 5 279 -2 405 -37 670 -16 127 -72 403 -90
445 -5 11 -14 45 -21 75 -6 30 -16 63 -21 73 -5 10 -13 42 -18 72 -5 30 -16
69 -24 87 -8 18 -29 73 -47 123 -17 49 -44 117 -60 150 -15 33 -39 92 -53 130
-14 39 -42 101 -63 138 -68 122 -82 152 -82 171 -1 10 -14 38 -31 63 -16 24
-30 46 -30 49 0 3 -18 32 -40 66 -23 33 -47 75 -54 92 -29 70 -224 351 -295
426 -8 8 -23 35 -34 60 -11 25 -26 53 -35 63 -14 16 -13 20 12 46 l28 29 71
-48 c40 -27 86 -60 102 -75z m-7779 63 c15 -18 34 -31 43 -30 13 3 14 1 4 -9
-7 -7 -13 -21 -13 -31 0 -29 -23 -21 -63 21 -41 44 -42 46 -24 66 17 20 22 19
53 -17z m-233 -7 c-2 -6 3 -8 11 -5 7 3 26 -8 42 -23 16 -16 44 -39 62 -52 39
-27 40 -36 4 -49 -22 -8 -33 -6 -51 9 -12 10 -20 23 -16 29 3 6 0 7 -10 4 -11
-4 -14 -2 -9 9 3 8 1 18 -5 22 -7 4 -8 0 -5 -10 5 -13 1 -15 -20 -11 -24 4
-30 -1 -23 -21 1 -5 6 -7 10 -5 5 1 6 -2 2 -8 -7 -11 -35 3 -69 33 -15 13 -17
20 -8 29 7 7 12 20 12 30 0 21 16 24 24 6 3 -7 5 -4 5 7 -2 33 0 35 24 26 12
-5 21 -14 20 -20z m2066 -25 c19 -23 -17 -105 -40 -90 -4 2 -14 18 -23 34 -8
17 -10 28 -5 25 5 -4 9 0 9 7 0 33 39 48 59 24z m-656 -60 c7 -17 -18 -40 -32
-31 -7 4 -6 12 2 25 14 24 23 25 30 6z m4379 -63 c77 -66 206 -182 472 -424
27 -24 84 -78 127 -119 43 -41 97 -93 121 -115 24 -23 55 -55 70 -73 15 -17
46 -43 68 -58 42 -28 45 -45 17 -99 -10 -20 -11 -65 -2 -95 7 -22 118 -20 143
3 26 23 40 15 87 -48 22 -30 51 -60 63 -67 13 -7 46 -40 73 -75 28 -34 72 -78
100 -99 27 -20 56 -48 64 -63 7 -15 44 -54 80 -86 37 -32 78 -77 93 -99 14
-23 45 -59 69 -80 25 -22 62 -63 84 -92 22 -30 65 -80 97 -112 68 -68 212
-247 212 -263 0 -9 -158 -7 -445 6 -22 1 -90 2 -151 3 l-111 2 -44 44 c-24 24
-48 48 -54 55 -31 37 -221 211 -230 211 -6 0 -37 27 -70 61 -33 33 -78 71
-100 85 -48 28 -85 74 -85 107 0 13 18 48 41 78 47 63 119 203 119 231 0 11 4
27 9 36 5 9 12 43 15 75 7 56 7 57 -17 57 -14 0 -30 -7 -37 -15 -10 -12 -15
-12 -36 2 -29 18 -32 59 -6 80 15 13 13 14 -20 9 -28 -3 -44 1 -63 16 l-26 20
-92 -47 c-108 -55 -132 -72 -142 -106 -6 -21 -4 -20 16 8 25 33 59 59 59 45 0
-5 -25 -32 -55 -60 l-55 -51 0 55 c0 49 -3 59 -30 82 -16 15 -30 32 -30 38 0
6 -9 14 -20 17 -11 3 -28 19 -37 35 -9 16 -25 35 -36 41 -16 11 -17 10 -7 -9
17 -33 -4 -23 -41 19 -26 28 -49 42 -88 52 -29 7 -56 20 -61 29 -4 8 -22 71
-40 140 -17 69 -35 139 -40 155 -26 91 -50 200 -50 223 0 15 -9 51 -20 80 -11
29 -20 65 -20 80 0 15 -9 51 -20 80 -20 53 -24 72 -15 72 3 0 47 -35 97 -77z
m-3696 2 c-3 -47 -26 -72 -26 -28 0 18 5 35 10 38 6 4 8 11 5 16 -4 5 -2 9 3
9 5 0 9 -16 8 -35z m-435 -41 c88 -77 84 -74 73 -74 -5 0 -31 18 -58 40 -35
29 -57 40 -82 40 -19 0 -34 -3 -34 -7 1 -15 27 -43 41 -43 24 -1 52 -28 46
-44 -4 -9 1 -20 11 -25 9 -5 14 -12 11 -16 -9 -9 -78 38 -79 53 0 7 -5 10 -11
7 -6 -4 -19 2 -30 14 -11 12 -24 21 -30 21 -6 0 -9 5 -7 11 2 6 6 9 9 7 10 -5
41 25 50 49 5 13 13 23 17 23 5 0 38 -25 73 -56z m-171 22 c0 -2 -7 -6 -15
-10 -8 -3 -15 -1 -15 4 0 6 7 10 15 10 8 0 15 -2 15 -4z m674 -21 c-6 -16 -34
-21 -34 -7 0 13 11 22 26 22 8 0 11 -6 8 -15z m-2216 -16 c12 -18 11 -20 -5
-17 -10 2 -19 11 -21 21 -5 23 10 21 26 -4z m3027 -67 c11 -7 34 -19 52 -27
17 -8 34 -19 38 -24 5 -9 92 -68 170 -116 35 -21 142 -109 168 -138 21 -23 22
-57 3 -57 -8 0 -27 5 -43 11 -15 7 -39 13 -52 15 -26 3 -71 41 -71 60 0 7 -19
26 -42 44 -39 28 -44 29 -49 13 -10 -35 -40 -94 -56 -113 -12 -14 -21 -16 -35
-9 -22 12 -20 69 5 116 23 44 22 52 -15 90 -37 38 -48 41 -48 13 0 -11 -4 -20
-9 -20 -5 0 -15 -2 -23 -5 -7 -3 -18 3 -23 14 -27 53 -99 151 -111 151 -21 0
-28 22 -11 35 10 7 17 17 17 23 0 10 21 -2 135 -76z m-2395 74 c0 -3 -4 -8
-10 -11 -5 -3 -10 -1 -10 4 0 6 5 11 10 11 6 0 10 -2 10 -4z m85 -59 c25 -44
33 -73 16 -62 -5 3 -13 0 -17 -6 -4 -7 -3 -9 4 -5 6 3 13 2 17 -4 3 -5 -3 -10
-14 -10 -15 0 -21 6 -21 23 0 16 -9 28 -25 35 -25 11 -25 29 -2 60 13 17 13
17 42 -31z m-791 27 c9 -3 16 -16 16 -28 -1 -19 -2 -20 -14 -4 -7 10 -16 15
-19 12 -3 -4 -13 1 -22 10 -15 15 -15 16 3 16 11 0 27 -3 36 -6z m607 -7 c-1
-12 -15 -9 -19 4 -3 6 1 10 8 8 6 -3 11 -8 11 -12z m1474 -61 c47 -24 59 -55
23 -56 -51 -1 -96 -7 -107 -14 -18 -11 -24 0 -17 29 4 15 19 30 39 39 17 8 33
15 33 15 1 1 14 -5 29 -13z m-1550 -6 c3 -5 26 -18 50 -29 25 -11 45 -23 45
-26 0 -11 -30 -65 -37 -65 -3 0 -12 8 -19 18 -12 15 -12 15 -7 -7 4 -16 3 -22
-5 -17 -6 3 -13 2 -17 -4 -9 -15 -17 -13 -48 14 -28 24 -28 27 -17 63 19 57
40 78 55 53z m1801 -90 c9 0 11 -6 7 -17 -10 -28 -26 -33 -45 -17 -19 18 -13
48 9 40 8 -3 21 -6 29 -6z m-1617 -44 c43 -36 43 -46 1 -46 -18 0 -31 -8 -40
-25 -7 -14 -19 -25 -26 -25 -22 0 -25 32 -4 67 11 19 20 41 20 49 0 20 3 18
49 -20z m1301 -3 c5 -7 7 -11 4 -8 -4 3 -13 0 -20 -6 -9 -7 -19 -6 -33 3 -12
7 -21 15 -21 18 0 11 60 4 70 -7z m1017 -13 l32 -29 -25 -45 c-14 -26 -28 -46
-30 -46 -3 0 -18 7 -34 15 -24 13 -30 22 -30 49 0 30 32 86 48 86 4 0 21 -14
39 -30z m-2568 -19 c15 -13 18 -20 9 -23 -15 -5 -49 22 -42 34 7 11 8 11 33
-11z m-419 -41 c6 -11 8 -20 5 -20 -14 0 -45 21 -45 30 0 18 29 10 40 -10z
m392 1 c6 -10 17 -17 24 -14 21 8 47 -54 39 -93 l-6 -34 -38 30 c-31 25 -37
36 -33 59 2 16 -1 32 -7 35 -14 9 -15 36 -1 36 5 0 15 -9 22 -19z m1708 -23
c11 -12 20 -28 20 -35 0 -8 15 -20 33 -28 31 -14 31 -14 6 -15 -57 0 -150 64
-133 91 10 17 53 9 74 -13z m-757 -51 c9 -4 17 -11 17 -17 0 -6 -5 -8 -12 -4
-8 5 -6 -2 3 -16 9 -14 30 -29 47 -34 17 -5 33 -15 36 -22 8 -21 -5 -17 -57
16 -38 24 -47 26 -47 13 0 -9 8 -22 18 -30 12 -10 14 -16 5 -19 -7 -3 -13 -11
-13 -18 0 -7 -11 -23 -25 -36 -21 -19 -25 -21 -25 -7 0 10 -8 17 -18 17 -25 0
-34 11 -22 26 10 11 16 63 19 163 l1 35 28 -31 c15 -16 35 -33 45 -36z m-981
19 c7 4 8 2 4 -5 -9 -13 -26 -5 -25 12 0 9 2 8 6 -1 2 -6 10 -9 15 -6z m2778
-79 c0 -28 -52 -137 -66 -137 -6 0 -15 -15 -18 -33 -3 -19 -12 -42 -20 -52
-13 -18 -15 -17 -40 8 -15 15 -31 27 -36 27 -16 0 -12 12 12 37 18 20 20 26 8
33 -11 7 -9 16 13 49 15 22 27 48 27 57 0 16 11 16 53 -1 13 -6 17 -2 17 17 0
14 3 27 6 31 10 10 44 -17 44 -36z m-2580 8 c0 -23 -12 -45 -24 -45 -8 0 -11
12 -8 34 3 25 8 33 18 29 8 -3 14 -11 14 -18z m2304 -4 c-10 -10 -23 -16 -28
-13 -5 3 -1 11 9 19 28 20 41 16 19 -6z m-2461 -44 c25 -9 21 -24 -11 -41 -28
-14 -28 -14 -26 15 2 27 -5 33 -33 30 -7 -1 -13 2 -13 8 0 15 33 19 50 6 8 -7
23 -15 33 -18z m181 -13 c3 -8 2 -12 -4 -9 -6 3 -10 10 -10 16 0 14 7 11 14
-7z m2252 4 c4 -7 3 -8 -5 -4 -14 9 -43 -12 -35 -25 3 -5 -2 -9 -11 -9 -16 0
-14 9 8 38 12 15 34 16 43 0z m677 -19 c23 -12 50 -28 59 -36 9 -8 22 -12 28
-8 6 4 23 2 38 -3 15 -6 35 -13 46 -16 17 -6 17 -8 4 -24 -8 -9 -23 -36 -34
-59 -10 -24 -22 -43 -25 -43 -4 0 -17 8 -30 18 -37 28 -99 62 -112 62 -11 0
-45 -45 -45 -60 -1 -17 -16 -40 -27 -40 -22 0 -75 31 -75 45 0 7 6 20 13 27
22 25 57 77 57 87 0 10 48 71 56 71 3 0 24 -10 47 -21z m-2030 -62 c26 -17 47
-34 47 -39 0 -14 -55 -9 -76 7 -26 20 -64 19 -80 -2 -8 -11 -13 -13 -14 -5 0
6 -6 12 -14 12 -7 0 -19 6 -25 14 -16 19 11 40 41 31 16 -4 19 -4 9 3 -8 6
-11 17 -8 25 5 14 9 14 39 0 18 -9 54 -30 81 -46z m1377 54 c0 -12 -20 -25
-27 -18 -7 7 6 27 18 27 5 0 9 -4 9 -9z m-1963 -63 c3 -16 12 -32 19 -35 23
-9 16 -30 -18 -54 -26 -19 -28 -24 -14 -29 15 -5 15 -9 -8 -43 -14 -20 -23
-37 -20 -37 2 0 0 -9 -6 -21 -9 -16 -14 -18 -26 -8 -9 7 -14 8 -14 1 0 -6 5
-12 10 -14 12 -4 -16 -94 -31 -104 -5 -3 -9 -17 -9 -32 -1 -77 -13 -81 -87
-30 -46 31 -55 57 -23 65 11 3 20 14 20 24 0 10 4 20 9 23 5 3 20 30 34 59 20
39 26 67 25 107 -1 44 5 65 29 105 16 28 32 58 36 67 10 28 66 -5 74 -44z
m1897 6 c24 -23 20 -45 -6 -41 -13 2 -17 2 -11 0 9 -3 11 -19 7 -54 -3 -31 -2
-49 5 -49 6 0 11 -5 11 -11 0 -6 -7 -9 -15 -5 -10 4 -15 -1 -15 -14 0 -11 -2
-20 -4 -20 -2 0 -12 -3 -21 -7 -15 -5 -17 -1 -13 33 4 30 0 42 -16 56 -14 11
-16 17 -7 18 8 0 11 6 7 16 -7 18 34 94 51 94 6 0 19 -7 27 -16z m-2424 -17
c0 -8 -9 -22 -20 -32 -11 -10 -20 -24 -20 -32 0 -20 -34 -12 -38 8 -2 10 6 19
18 22 12 3 20 13 20 26 0 14 6 21 20 21 11 0 20 -6 20 -13z m2600 -88 c16 -18
30 -35 30 -38 -2 -22 -57 -145 -67 -149 -7 -2 -13 1 -13 8 0 16 -51 61 -62 54
-6 -4 -7 2 -3 16 8 26 74 140 80 140 3 0 18 -14 35 -31z m6533 -66 c20 -26 16
-43 -5 -25 -7 6 -21 25 -31 42 -18 31 -18 31 0 20 10 -7 26 -23 36 -37z
m-8303 17 c0 -12 -8 -12 -35 0 -18 8 -17 9 8 9 15 1 27 -3 27 -9z m80 -10 c0
-5 -2 -10 -4 -10 -3 0 -8 5 -11 10 -3 6 -1 10 4 10 6 0 11 -4 11 -10z m549
-32 c-7 -13 -14 -18 -16 -11 -3 7 2 19 9 27 18 20 22 12 7 -16z m1494 -20 c15
-21 32 -38 37 -38 17 0 11 -22 -15 -56 l-25 -33 -36 24 c-35 24 -84 71 -84 81
0 3 10 18 22 34 30 41 64 37 101 -12z m2705 -30 c33 -29 82 -71 108 -93 26
-21 42 -41 35 -43 -7 -2 -21 4 -32 14 -10 9 -19 14 -19 10 0 -4 -12 1 -27 12
-16 10 -43 24 -62 31 -34 11 -99 55 -113 75 -14 20 -8 35 15 39 12 2 25 5 28
6 4 0 34 -23 67 -51z m-4098 22 c0 -5 -4 -10 -10 -10 -5 0 -10 5 -10 10 0 6 5
10 10 10 6 0 10 -4 10 -10z m-549 -47 c13 -16 12 -17 -3 -4 -10 7 -18 15 -18
17 0 8 8 3 21 -13z m1847 -73 c5 0 16 -22 26 -49 l17 -49 -28 -43 c-15 -24
-31 -48 -34 -53 -14 -18 -44 19 -47 59 -2 22 -8 44 -13 50 -15 15 -10 43 13
85 22 38 23 38 41 19 10 -10 21 -19 25 -19z m-1538 10 c0 -19 -18 -19 -23 -1
-3 14 -1 18 9 14 8 -3 14 -9 14 -13z m-33 -22 c-3 -8 -6 -5 -6 6 -1 11 2 17 5
13 3 -3 4 -12 1 -19z m4136 -15 c23 -14 50 -35 60 -46 19 -22 23 -57 6 -57
-35 0 -135 91 -125 115 7 20 9 19 59 -12z m-4023 -48 c13 8 52 -14 45 -25 -3
-5 -13 -6 -23 -3 -15 6 -15 5 -3 -10 16 -20 16 -20 -49 -6 -53 11 -63 28 -38
68 12 19 13 19 35 -5 13 -14 27 -22 33 -19z m4867 5 c25 -22 52 -40 59 -40 20
0 17 -14 -16 -70 -16 -28 -30 -54 -30 -59 0 -4 -20 -36 -45 -72 -25 -35 -45
-69 -45 -75 0 -11 -50 -27 -58 -19 -2 2 1 13 8 24 9 18 8 21 -8 21 -10 0 -38
17 -61 38 -48 43 -49 57 -5 122 23 33 145 170 152 170 2 0 24 -18 49 -40z
m-552 -5 c53 -22 191 -165 160 -165 -3 0 -26 19 -51 42 -25 23 -74 56 -107 73
-90 44 -90 88 -2 50z m-5087 -45 c4 0 32 -23 62 -51 30 -28 73 -64 97 -80 23
-16 45 -34 48 -39 6 -10 -23 -60 -35 -60 -5 0 -32 19 -62 43 -29 24 -69 53
-88 64 -19 12 -50 37 -68 56 -30 31 -32 38 -26 75 l7 42 29 -25 c16 -14 33
-25 36 -25z m4718 -82 c59 -61 62 -89 5 -49 -34 25 -91 88 -91 101 0 24 32 5
86 -52z m-2372 16 c6 -10 15 -22 20 -26 6 -4 4 -13 -4 -23 -11 -14 -15 -11
-31 26 -11 23 -19 43 -19 46 0 11 25 -5 34 -23z m2661 -39 c27 -30 60 -58 74
-63 14 -5 55 -37 90 -70 35 -34 87 -73 115 -87 74 -37 160 -103 201 -155 32
-42 63 -116 52 -127 -7 -7 -45 15 -91 51 -22 17 -54 40 -72 51 -18 11 -55 49
-84 84 -28 36 -61 71 -73 80 -12 8 -54 45 -93 83 -38 38 -83 77 -100 88 -16
10 -47 35 -68 54 -34 29 -38 36 -27 50 8 9 17 16 21 16 4 0 29 -25 55 -55z
m-4479 15 c17 0 27 -8 34 -24 5 -13 18 -27 29 -31 24 -7 29 -56 8 -74 -15 -12
-117 -3 -117 10 0 5 -13 15 -30 24 -27 14 -29 17 -18 43 17 40 40 63 56 57 7
-3 25 -5 38 -5z m507 -95 c15 -14 27 -36 26 -48 0 -30 -34 -110 -48 -115 -17
-6 -81 37 -81 54 0 8 11 36 25 62 14 26 25 53 25 59 0 21 23 15 53 -12z m3884
-67 c107 -88 139 -118 126 -118 -7 0 -15 5 -18 10 -4 6 -25 20 -48 31 -59 30
-109 72 -130 108 -10 17 -16 31 -12 31 3 0 40 -28 82 -62z m-4197 -20 c0 -20
-1 -21 -24 -12 -16 6 -22 45 -9 57 8 9 32 -24 33 -45z m1395 25 c-11 -46 -41
-98 -58 -101 -26 -5 -20 23 16 78 36 55 52 64 42 23z m137 -49 c91 -53 88 -48
64 -98 -12 -24 -29 -61 -39 -83 -10 -21 -27 -44 -37 -51 -17 -10 -25 -7 -57
21 -78 66 -90 93 -67 143 23 51 57 104 66 104 4 0 35 -16 70 -36z m-940 -36
c16 -13 34 -32 37 -42 10 -25 -22 -110 -42 -114 -17 -4 -96 48 -97 63 0 20 49
115 60 115 6 0 25 -10 42 -22z m-356 -54 c40 -31 42 -51 11 -102 -13 -20 -31
-58 -40 -83 -10 -26 -26 -54 -37 -64 -10 -9 -26 -41 -36 -71 l-16 -53 -54 42
c-30 23 -54 44 -54 48 0 3 24 44 53 91 30 46 68 115 85 151 17 37 36 67 42 67
6 0 27 -12 46 -26z m3237 -76 c156 -108 197 -145 190 -167 -3 -9 -27 -41 -53
-71 -58 -68 -117 -153 -126 -183 -4 -12 -25 -46 -47 -75 -21 -30 -53 -84 -69
-119 -16 -36 -37 -78 -47 -92 -9 -14 -32 -48 -49 -74 -18 -26 -32 -54 -32 -61
0 -14 118 -123 217 -200 34 -26 64 -53 66 -60 3 -7 29 -29 59 -49 29 -19 69
-52 88 -72 19 -20 58 -50 87 -66 28 -16 73 -53 100 -82 49 -53 142 -127 161
-127 10 0 64 90 104 173 10 21 50 85 88 143 38 58 74 122 81 143 7 20 25 51
41 69 45 52 36 77 -42 122 -36 21 -92 58 -124 82 -82 59 -107 76 -135 88 -33
15 -111 72 -111 82 0 4 8 8 18 8 11 0 24 11 30 25 32 70 -7 95 -70 44 -28 -22
-45 -29 -53 -23 -7 5 -57 39 -111 76 -55 37 -110 77 -123 88 l-24 21 20 27
c11 15 29 45 41 67 11 22 29 48 40 59 21 18 22 18 54 -2 19 -12 50 -39 70 -61
19 -22 62 -56 94 -76 32 -21 64 -43 69 -49 6 -7 71 -61 145 -121 74 -60 148
-121 164 -137 17 -15 35 -28 41 -28 6 0 47 -34 90 -75 44 -41 83 -75 87 -75
12 0 88 -71 99 -92 12 -22 4 -38 -64 -127 -29 -37 -68 -94 -87 -125 -19 -32
-57 -88 -83 -124 -26 -37 -61 -94 -76 -127 -16 -34 -37 -67 -46 -75 -9 -7 -25
-30 -35 -50 -11 -21 -31 -51 -45 -68 -15 -17 -40 -59 -56 -92 -17 -33 -41 -68
-54 -78 -13 -11 -33 -43 -45 -71 -11 -29 -37 -75 -58 -104 -22 -29 -45 -63
-52 -77 -7 -14 -21 -34 -31 -46 -11 -11 -34 -50 -53 -85 -18 -35 -50 -93 -71
-129 -21 -36 -44 -77 -52 -92 -8 -16 -18 -28 -21 -28 -17 0 -114 71 -143 104
-17 20 -51 48 -75 62 -24 14 -53 38 -65 52 -11 15 -57 56 -102 92 -102 82
-104 86 -85 141 9 24 27 76 41 114 21 60 28 70 50 73 20 3 39 -11 94 -68 37
-39 80 -78 96 -86 15 -8 48 -34 74 -57 115 -104 121 -115 79 -160 -13 -14 -21
-28 -18 -31 12 -12 31 -5 37 14 3 11 12 20 18 20 7 1 24 11 40 23 l28 23 -81
82 c-44 45 -85 82 -90 82 -5 0 -25 21 -45 48 -49 63 -109 110 -154 118 -50 9
-73 31 -66 64 5 22 1 27 -27 38 -18 7 -52 29 -75 49 -23 21 -53 47 -66 58 -13
11 -54 47 -91 79 -37 33 -76 60 -87 61 -11 1 -39 20 -62 42 -39 38 -97 62 -97
41 0 -11 135 -148 147 -148 4 0 31 -23 58 -50 28 -28 83 -76 122 -106 40 -31
82 -68 92 -83 l20 -27 -28 -60 c-51 -107 -71 -153 -71 -163 0 -25 -32 -7 -101
55 -41 37 -108 93 -149 126 -97 78 -176 149 -306 275 -120 115 -118 108 -54
203 20 30 40 65 44 78 4 13 29 51 55 85 26 34 60 83 76 109 17 26 67 98 113
160 45 61 82 117 82 124 0 7 19 36 43 65 60 74 94 123 101 147 4 11 19 33 33
48 15 16 36 45 47 64 12 20 33 54 49 75 15 22 44 65 64 95 20 30 48 67 62 81
14 15 37 48 51 75 25 50 80 134 87 134 2 0 18 -10 36 -22z m-2682 -29 c20 -16
42 -29 48 -29 6 0 11 -4 11 -10 0 -5 -6 -10 -14 -10 -14 0 -26 -21 -26 -46 0
-8 7 -14 15 -14 20 0 19 -30 -3 -58 l-18 -23 -60 56 c-55 53 -59 55 -64 34 -5
-21 -6 -21 -23 -5 -9 10 -17 19 -17 21 0 4 33 64 57 103 17 28 41 23 94 -19z
m3331 -9 c92 -44 137 -50 175 -20 24 19 75 19 97 -1 9 -8 23 -5 74 18 19 8 45
12 61 8 27 -6 101 -60 91 -67 -11 -7 -256 -88 -268 -88 -7 0 -30 13 -50 29
-24 19 -57 33 -95 40 -63 11 -58 13 -210 -65 l-69 -36 -23 22 -23 22 31 61
c21 41 46 71 72 89 22 15 43 27 47 28 5 0 45 -18 90 -40z m-2272 -13 c30 -18
56 -40 58 -48 1 -8 -11 -25 -27 -37 l-31 -22 -44 21 c-65 30 -79 48 -65 87 14
42 38 41 109 -1z m-858 -49 c-13 -13 -24 5 -16 27 7 16 8 16 17 0 6 -11 6 -20
-1 -27z m463 16 c31 -21 31 -34 -1 -85 -14 -23 -32 -60 -40 -83 -24 -68 -56
-127 -71 -133 -8 -3 -19 -16 -24 -29 -4 -13 -16 -24 -24 -24 -26 0 -55 19 -55
36 0 18 93 195 125 239 13 17 30 45 39 63 19 37 19 37 51 16z m-575 -28 c0
-16 -18 -31 -27 -22 -8 8 5 36 17 36 5 0 10 -6 10 -14z m3978 -10 c6 -13 31
-41 56 -62 25 -21 46 -42 46 -47 0 -4 -12 4 -27 18 -16 14 -40 31 -55 38 -15
6 -27 16 -26 22 1 5 -3 20 -10 33 -7 12 -9 22 -4 22 5 0 14 -11 20 -24z
m-2907 -14 c13 -10 41 -27 62 -37 52 -27 167 -125 167 -142 0 -18 -40 -32 -81
-28 -19 2 -34 4 -34 5 0 1 -7 3 -16 5 -9 1 -43 21 -75 43 -68 47 -103 102 -78
122 7 7 14 21 14 31 0 24 11 24 41 1z m2689 -46 c0 -14 -4 -28 -10 -31 -5 -3
-10 -21 -10 -40 0 -33 0 -33 40 -28 49 7 50 0 15 -118 -14 -46 -27 -91 -29
-99 -2 -8 -9 -28 -15 -44 -6 -16 -16 -49 -22 -74 -9 -42 -64 -132 -80 -132 -4
0 -23 14 -41 30 -18 17 -51 43 -73 57 -46 31 -115 93 -115 104 0 4 18 29 40
54 22 25 43 58 46 73 4 15 11 32 15 38 6 7 2 21 -10 35 -11 15 -20 47 -23 89
l-5 66 106 21 c58 11 121 21 139 22 28 1 32 -2 32 -23z m-4112 -42 c-10 -10
-28 6 -28 24 0 15 1 15 17 -1 9 -9 14 -19 11 -23z m372 5 c0 -5 11 -9 24 -9
14 0 28 -5 32 -12 13 -20 14 -60 3 -81 -10 -18 -11 -18 -34 3 -13 12 -21 28
-18 36 5 13 -12 19 -44 15 -16 -2 -16 11 -2 43 11 23 39 26 39 5z m-134 -26
c-10 -10 -19 5 -10 18 6 11 8 11 12 0 2 -7 1 -15 -2 -18z m-13 -31 c9 -8 17
-19 17 -24 0 -16 -71 -153 -89 -171 -17 -18 -19 -18 -54 6 -19 13 -43 31 -51
40 -17 17 -22 47 -7 47 5 0 12 11 15 25 4 14 11 25 16 25 6 0 10 7 10 15 0 8
5 15 10 15 6 0 10 7 10 15 0 11 7 14 26 11 16 -3 27 0 31 10 6 17 38 10 66
-14z m-361 -65 c64 -29 112 -75 128 -122 19 -56 -17 -87 -54 -46 -9 10 -30 21
-45 24 -29 6 -109 56 -130 81 -9 11 -7 22 10 50 11 20 25 36 30 36 5 0 32 -11
61 -23z m498 -32 c17 -21 8 -37 -23 -41 -31 -3 -41 8 -32 36 7 23 37 26 55 5z
m1390 -45 l32 -31 -31 -47 c-17 -26 -45 -64 -63 -85 l-33 -38 -27 26 c-16 14
-28 36 -28 48 0 23 95 157 110 157 5 0 23 -14 40 -30z m-1010 -115 c-10 -24
-22 -60 -26 -80 -3 -19 -10 -37 -14 -40 -9 -5 -101 -192 -126 -255 -19 -48
-43 -52 -82 -14 -15 14 -40 33 -55 42 -42 25 -47 60 -12 88 35 28 42 24 50
-24 12 -69 16 -69 51 3 19 39 34 76 34 83 0 15 89 200 120 250 l20 33 30 -21
29 -21 -19 -44z m2334 65 c16 -6 26 -17 26 -30 0 -14 32 -43 107 -97 58 -43
120 -90 136 -104 l31 -26 -41 -64 c-22 -35 -55 -93 -74 -129 -18 -36 -42 -74
-52 -85 -10 -11 -28 -37 -38 -58 -23 -43 -47 -57 -63 -36 -6 8 -68 61 -138
118 -70 56 -128 110 -130 119 -3 13 147 327 186 390 9 15 17 15 50 2z m-1199
-24 c18 -13 18 -15 -4 -57 -25 -48 -88 -119 -107 -119 -6 0 -17 7 -24 15 -11
13 -10 22 3 49 14 31 95 124 108 126 3 0 14 -6 24 -14z m-1665 -81 c19 -18 54
-43 78 -55 26 -14 48 -34 58 -56 9 -19 20 -34 25 -34 15 0 10 -18 -14 -46
l-23 -27 -35 18 c-19 10 -59 39 -89 65 -30 26 -70 55 -87 66 -39 22 -39 23
-13 75 25 48 44 46 100 -6z m1795 -4 c0 -29 -95 -161 -114 -158 -8 1 -18 9
-24 18 -13 20 21 94 63 140 36 37 75 38 75 0z m1519 -243 c19 -18 64 -55 100
-83 36 -27 66 -56 66 -62 0 -7 -16 -34 -36 -60 -20 -27 -42 -59 -48 -73 -19
-45 -159 -240 -171 -240 -7 0 -18 7 -25 15 -7 8 -18 15 -24 15 -7 0 -28 16
-47 36 -18 20 -55 51 -81 68 l-48 33 30 21 c28 21 40 39 78 117 10 23 35 64
56 92 20 28 36 53 36 56 0 12 64 97 72 97 5 0 24 -15 42 -32z m1746 -354 c22
-15 40 -31 40 -36 0 -4 -22 -36 -48 -71 -26 -34 -54 -80 -61 -102 -17 -51 -50
-105 -63 -105 -6 0 -27 15 -48 34 l-37 33 20 39 c11 21 34 56 52 76 17 21 45
64 61 97 16 33 32 61 37 61 4 0 25 -12 47 -26z m116 -367 c8 3 14 1 14 -5 0
-8 -22 -22 -36 -22 -2 0 -4 10 -3 23 0 12 3 17 5 10 3 -7 12 -9 20 -6z m55
-54 c1 -17 2 -17 6 0 6 24 12 22 50 -15 43 -42 42 -52 -6 -44 -36 5 -39 4 -34
-14 6 -23 23 -25 70 -8 26 9 36 9 45 0 10 -10 8 -14 -10 -18 -51 -14 3 -71 57
-61 21 4 34 1 46 -13 17 -18 16 -21 -2 -57 -25 -51 -54 -93 -63 -93 -4 0 -26
18 -48 41 -41 39 -42 42 -42 107 0 61 -1 65 -15 45 -18 -25 -55 -37 -55 -17 0
8 -5 14 -11 14 -6 0 -9 22 -8 58 1 31 1 62 -1 67 -4 16 -1 25 10 25 6 0 11 -8
11 -17z m-1646 -26 c25 -26 115 -136 115 -142 0 -3 45 -56 99 -117 55 -61 101
-120 104 -132 2 -12 12 -38 21 -58 10 -23 12 -38 6 -38 -6 0 -84 74 -173 165
l-163 165 -62 0 c-68 0 -76 9 -44 51 10 13 31 45 46 72 30 52 31 53 51 34z
m1491 -142 c27 -25 53 -45 57 -45 5 0 30 -21 57 -47 61 -60 96 -90 124 -105
32 -17 36 -30 17 -57 -10 -15 -23 -41 -30 -58 -10 -24 -20 -33 -37 -33 -13 0
-24 4 -24 9 0 5 -10 12 -22 15 -13 3 -44 26 -70 51 -35 34 -45 50 -41 67 3 16
2 19 -4 10 -13 -17 -43 -4 -43 19 0 10 8 23 18 28 9 6 12 11 5 11 -6 0 -18 -7
-27 -15 -20 -21 -22 -20 -67 26 -24 25 -38 47 -35 56 3 8 6 20 6 26 0 7 7 4
14 -6 14 -18 14 -18 20 0 3 10 8 35 12 56 3 20 10 37 14 37 4 0 30 -20 56 -45z
m144 9 c0 -12 -4 -12 -20 -4 -11 6 -20 17 -20 26 0 12 4 12 20 4 11 -6 20 -17
20 -26z m440 6 c0 -5 -4 -10 -10 -10 -5 0 -10 5 -10 10 0 6 5 10 10 10 6 0 10
-4 10 -10z m-3885 -21 c59 -14 191 -82 223 -114 12 -13 34 -26 48 -29 14 -4
43 -18 65 -32 21 -13 60 -31 86 -40 26 -9 56 -28 67 -43 28 -36 53 -58 119
-110 51 -39 71 -63 50 -60 -31 5 -15 -9 77 -70 58 -38 118 -82 133 -98 l28
-30 -38 -16 c-21 -9 -58 -21 -83 -28 -42 -10 -139 -51 -203 -86 -28 -15 -30
-14 -70 23 -23 22 -44 40 -46 42 -3 1 5 20 18 42 38 67 18 156 -65 287 -26 41
-41 54 -73 64 -23 7 -68 37 -108 72 -37 33 -90 71 -118 84 -27 13 -68 34 -90
46 -95 52 -161 60 -228 26 -23 -12 -44 -25 -47 -28 -10 -14 -70 -52 -70 -45 0
19 84 113 110 123 66 24 86 30 115 33 34 4 33 4 100 -13z m3015 11 c0 -5 -4
-10 -10 -10 -5 0 -10 5 -10 10 0 6 5 10 10 10 6 0 10 -4 10 -10z m485 -41 c-5
-7 -26 -4 -49 9 -5 3 -1 9 10 12 20 8 47 -7 39 -21z m447 -4 c10 -13 30 -26
45 -30 25 -6 26 -8 10 -17 -32 -17 -117 36 -117 73 0 17 42 -1 62 -26z m-5732
-25 c119 -11 263 -36 291 -51 9 -4 30 -11 46 -13 58 -11 228 -57 263 -73 63
-27 224 -104 245 -115 11 -7 32 -18 46 -25 15 -7 32 -20 39 -28 7 -8 17 -15
23 -15 6 0 33 -18 59 -41 27 -22 72 -49 100 -59 28 -10 58 -27 67 -38 9 -10
43 -38 76 -61 116 -80 160 -113 163 -122 2 -5 9 -9 15 -9 7 0 37 -23 67 -51
53 -49 114 -85 135 -80 6 1 -32 -39 -82 -88 -51 -50 -97 -91 -102 -91 -11 0
-64 45 -145 124 -33 32 -69 62 -80 66 -12 4 -55 34 -96 67 -63 49 -175 129
-238 168 -9 6 -45 29 -80 53 -35 23 -66 42 -69 42 -3 0 -101 47 -218 105 -116
58 -216 105 -221 105 -6 0 -50 16 -100 36 -117 48 -261 92 -354 110 -119 22
-224 47 -234 55 -16 14 82 34 176 37 51 2 145 -2 208 -8z m3563 -68 c-2 -10
-29 -32 -60 -48 -57 -30 -69 -43 -106 -116 -23 -45 -57 -60 -92 -41 -13 8 -11
16 17 59 56 87 96 118 181 139 15 4 30 11 33 16 10 17 32 9 27 -9z m2068 -39
c59 -63 61 -67 48 -99 -6 -16 -12 -38 -14 -49 -1 -11 -3 -23 -4 -27 -2 -12
-39 4 -72 33 -98 87 -93 78 -78 107 14 30 58 72 74 72 6 0 27 -17 46 -37z
m-6196 5 c35 -16 32 -46 -9 -94 -49 -58 -62 -90 -76 -186 -13 -96 -1 -267 26
-368 8 -30 20 -73 26 -95 6 -22 16 -53 23 -70 20 -50 33 -89 40 -120 8 -35
103 -232 116 -241 5 -3 23 -35 41 -71 17 -37 46 -85 63 -108 18 -23 34 -46 36
-51 14 -33 129 -180 183 -233 36 -36 64 -67 61 -69 -13 -13 -60 25 -175 145
-71 75 -130 141 -131 147 0 6 -18 36 -39 66 -50 71 -140 216 -140 225 0 4 -20
48 -44 99 -51 104 -116 277 -116 305 0 11 -5 32 -12 48 -35 87 -51 343 -28
448 12 51 87 215 104 227 15 10 21 10 51 -4z m5495 -18 c0 -5 9 -10 20 -10 11
0 30 -11 42 -25 11 -13 25 -22 29 -19 5 3 6 -1 3 -9 -3 -8 2 -19 9 -26 12 -9
16 -8 21 4 5 13 9 13 34 -2 54 -33 122 -100 122 -120 0 -11 -11 -25 -25 -31
-26 -12 -32 -26 -15 -37 6 -3 10 -14 10 -24 0 -12 -7 -17 -22 -16 -32 3 -48
-4 -42 -19 7 -17 -22 -41 -31 -26 -3 6 -10 8 -14 5 -17 -10 -8 51 12 77 20 27
20 29 4 64 -13 27 -21 33 -30 26 -7 -6 -26 -12 -42 -14 -28 -3 -30 -1 -28 30
1 24 -3 32 -12 28 -16 -6 -26 16 -16 33 6 10 12 9 24 -3 8 -9 21 -16 27 -16
17 0 6 24 -17 35 -11 6 -18 16 -15 23 2 6 -1 12 -7 12 -6 0 -11 -4 -11 -10 0
-5 -6 -10 -14 -10 -9 0 -12 -7 -10 -17 3 -10 -1 -27 -9 -37 -14 -19 -15 -19
-45 5 -29 25 -29 27 -15 60 7 18 17 36 22 39 4 3 10 13 14 23 7 18 27 24 27 7z
m-912 -25 c20 -13 65 -46 99 -72 34 -27 69 -53 78 -58 15 -9 10 -20 -37 -89
-30 -44 -59 -81 -64 -83 -11 -4 -35 56 -41 105 -3 19 -13 48 -23 66 -10 17
-23 49 -30 71 -7 22 -16 44 -21 50 -10 10 -12 35 -4 35 3 0 22 -11 43 -25z
m2076 -34 c11 -12 16 -31 14 -52 -2 -25 -9 -34 -31 -42 -29 -9 -33 -8 -82 21
-22 14 -30 27 -31 50 -2 29 0 31 26 25 16 -3 36 0 47 6 26 15 38 14 57 -8z
m-4326 -115 c56 -43 102 -81 102 -85 0 -3 20 -18 44 -34 24 -15 67 -54 96 -87
29 -33 68 -70 87 -81 40 -25 41 -37 8 -89 -14 -22 -25 -43 -25 -48 0 -5 -12
-19 -26 -33 -14 -13 -39 -50 -56 -82 -21 -38 -48 -70 -80 -93 l-48 -36 -44 26
c-23 14 -62 41 -86 61 -23 19 -50 40 -59 45 -14 8 -7 19 46 70 l62 61 -57 54
c-31 29 -89 78 -128 108 -39 31 -79 67 -88 82 -9 14 -28 31 -40 37 l-24 10 39
76 c21 42 58 95 81 119 l42 43 26 -23 c14 -13 71 -59 128 -101z m3692 29 c0
-8 -4 -15 -10 -15 -5 0 -10 7 -10 15 0 8 5 15 10 15 6 0 10 -7 10 -15z m-560
-56 c0 -23 -26 -15 -40 12 -15 27 -12 30 15 17 14 -6 25 -19 25 -29z m47 9
c-3 -8 -6 -5 -6 6 -1 11 2 17 5 13 3 -3 4 -12 1 -19z m333 12 c0 -5 -4 -10
-10 -10 -5 0 -10 5 -10 10 0 6 5 10 10 10 6 0 10 -4 10 -10z m250 -22 c0 -7
-5 -20 -10 -28 -8 -12 -10 -9 -10 13 0 15 5 27 10 27 6 0 10 -6 10 -12z m44
-52 c-6 -15 -24 -23 -24 -11 0 8 24 34 28 30 1 -1 0 -10 -4 -19z m-208 -32
c-4 -9 -9 -15 -11 -12 -3 3 -3 13 1 22 4 9 9 15 11 12 3 -3 3 -13 -1 -22z
m-462 -21 c17 -14 27 -24 21 -22 -40 18 -65 33 -65 41 0 14 11 9 44 -19z
m1041 -6 c22 -12 40 -27 40 -33 0 -5 -12 -24 -26 -42 l-26 -33 -34 19 c-37 20
-45 44 -30 85 13 33 24 33 76 4z m-480 -7 c-3 -5 -11 -10 -16 -10 -6 0 -7 5
-4 10 3 6 11 10 16 10 6 0 7 -4 4 -10z m-475 -30 c0 -17 -3 -18 -25 -8 -14 6
-25 15 -25 20 0 4 11 8 25 8 18 0 25 -5 25 -20z m518 -18 c3 -17 -2 -22 -17
-22 -22 0 -25 8 -15 35 9 22 28 14 32 -13z m760 -19 c17 -23 15 -31 -9 -38
-31 -10 -99 14 -99 35 0 9 3 20 8 24 12 13 86 -3 100 -21z m192 -74 c12 -29
12 -33 -7 -49 -11 -9 -24 -26 -28 -39 -4 -15 -12 -20 -22 -17 -21 9 -72 49
-72 59 -1 5 13 30 31 57 31 47 32 48 58 35 15 -8 33 -28 40 -46z m-236 5 c9
-8 20 -12 26 -9 5 3 10 1 10 -4 0 -14 -11 -14 -44 -1 -14 5 -26 14 -26 20 0
15 16 12 34 -6z m110 -129 c41 -40 43 -51 16 -84 -17 -20 -22 -22 -38 -10 -34
26 -71 64 -72 73 0 8 46 56 55 56 2 0 19 -16 39 -35z m366 -65 c0 -35 -4 -37
-31 -11 -20 18 -20 19 -2 30 28 16 33 13 33 -19z m-2135 10 c4 -6 -5 -10 -20
-10 -15 0 -24 4 -20 10 3 6 12 10 20 10 8 0 17 -4 20 -10z m50 -20 c3 -5 1
-10 -4 -10 -6 0 -11 5 -11 10 0 6 2 10 4 10 3 0 8 -4 11 -10z m5 -50 c0 -5 -2
-10 -4 -10 -3 0 -8 5 -11 10 -3 6 -1 10 4 10 6 0 11 -4 11 -10z m2033 4 c9 -9
-4 -35 -14 -28 -5 3 -9 12 -9 20 0 14 12 19 23 8z m-2213 -24 c21 -15 26 -25
22 -45 -5 -29 5 -33 23 -8 8 11 14 13 19 5 4 -6 -2 -19 -14 -29 -11 -10 -20
-21 -20 -26 0 -19 -61 -69 -76 -63 -12 5 -15 2 -10 -10 5 -14 4 -15 -9 -4 -17
14 -19 38 -6 59 7 10 13 11 31 1 18 -10 24 -9 35 7 7 10 11 20 8 23 -3 3 -8
-1 -10 -7 -7 -19 -31 -16 -42 5 -6 11 -6 24 0 35 6 10 9 25 8 35 -4 47 1 50
41 22z m1336 6 c7 -19 -46 -86 -68 -86 -27 0 -21 31 13 68 33 35 47 40 55 18z
m785 -10 c14 -13 35 -29 47 -35 27 -14 27 -29 2 -61 -17 -21 -20 -22 -20 -7 0
11 -12 23 -29 30 -30 11 -61 53 -61 81 0 23 31 19 61 -8z m-4875 -33 c21 -27
18 -32 -35 -57 -28 -12 -65 -35 -85 -49 -43 -33 -46 -33 -46 -3 0 22 51 68
125 113 26 16 26 16 41 -4z m5358 -16 c18 -13 42 -95 31 -106 -8 -7 -77 32
-89 51 -5 8 -6 27 -2 41 7 30 31 35 60 14z m-347 -49 c80 -45 100 -81 70 -122
-12 -16 -14 -16 -40 8 -16 14 -32 26 -36 26 -5 0 -11 7 -15 15 -3 8 -1 15 4
15 21 0 9 31 -15 40 -25 9 -31 21 -18 33 9 9 7 10 50 -15z m-4924 -20 c31 -16
207 -190 207 -205 0 -6 22 -35 49 -65 59 -64 129 -165 161 -233 13 -27 37 -69
52 -91 30 -45 108 -209 108 -227 0 -7 6 -23 13 -37 7 -14 21 -52 31 -85 10
-33 23 -73 29 -90 13 -33 13 -34 27 -125 12 -83 13 -305 0 -367 -5 -26 -11
-66 -14 -88 -3 -22 -16 -65 -29 -95 l-25 -55 2 130 c2 102 -3 153 -21 240 -35
171 -58 250 -97 332 -20 41 -36 79 -36 84 0 4 -14 28 -31 53 -16 25 -37 65
-45 89 -8 23 -35 67 -59 97 -25 30 -45 58 -45 62 0 17 -152 216 -175 230 -7 5
-30 32 -50 60 -20 29 -63 80 -96 113 -32 33 -83 85 -113 116 l-55 56 27 25
c89 81 139 101 185 76z m2804 -5 c4 -10 16 -26 28 -35 27 -23 -1 -25 -33 -2
-21 14 -22 14 -22 -8 0 -26 34 -53 53 -41 9 5 9 3 0 -8 -7 -9 -23 -15 -35 -13
-13 1 -23 3 -23 4 0 1 -10 3 -22 4 -36 4 -37 11 -6 65 29 53 49 64 60 34z
m-3062 -53 c3 -5 1 -10 -4 -10 -6 0 -11 5 -11 10 0 6 2 10 4 10 3 0 8 -4 11
-10z m2515 -41 c0 -11 -33 -71 -75 -134 -18 -27 -45 -75 -60 -105 -25 -51 -76
-110 -94 -110 -5 0 -14 6 -20 14 -9 10 -3 28 25 77 19 35 47 78 60 96 14 18
38 63 55 100 17 37 37 76 46 85 14 16 17 16 39 1 13 -8 24 -19 24 -24z m925
11 c3 -5 -1 -10 -9 -10 -9 0 -16 5 -16 10 0 6 4 10 9 10 6 0 13 -4 16 -10z
m2093 -23 c6 -5 12 -17 12 -26 0 -14 -2 -14 -10 -1 -9 13 -10 13 -10 0 0 -13
-1 -13 -10 0 -9 13 -10 13 -11 0 -1 -8 -1 -19 0 -24 1 -5 -5 -6 -14 -2 -9 3
-21 6 -26 6 -10 0 -12 40 -3 64 5 12 10 13 32 3 15 -6 33 -15 40 -20z m-6286
-16 c79 -23 186 -73 225 -105 15 -12 50 -36 78 -52 27 -16 71 -49 96 -74 26
-25 67 -61 91 -81 24 -20 52 -54 63 -75 11 -21 37 -58 57 -81 36 -40 105 -163
92 -163 -4 0 -1 -7 6 -15 23 -28 3 -51 -58 -65 -31 -7 -63 -17 -69 -22 -7 -6
-13 -7 -13 -3 0 4 -6 3 -13 -3 -10 -8 -19 -3 -40 23 -15 19 -27 37 -27 41 0 4
-20 29 -45 55 -25 26 -45 55 -45 64 0 21 -213 231 -258 255 -20 10 -53 33 -72
49 -19 17 -44 34 -54 37 -10 4 -40 19 -66 34 -26 15 -82 40 -126 55 -43 15
-86 29 -94 32 -8 4 -19 5 -24 4 -12 -3 -26 19 -26 42 0 20 31 49 63 59 49 14
192 8 259 -11z m3585 -6 c3 -9 -3 -25 -12 -35 -10 -11 -18 -33 -19 -50 -1 -32
-4 -34 -24 -21 -11 7 -10 16 7 47 12 21 21 47 21 56 0 22 18 24 27 3z m1728 5
c3 -6 -1 -7 -9 -4 -18 7 -21 14 -7 14 6 0 13 -4 16 -10z m-1833 -30 c16 -14
18 -20 7 -20 -12 0 -12 -2 1 -9 8 -6 18 -7 22 -5 13 8 9 -13 -5 -24 -10 -8
-19 -3 -38 21 -14 18 -24 38 -22 45 6 16 10 15 35 -8z m2473 0 c-3 -5 -10 -10
-16 -10 -5 0 -9 5 -9 10 0 6 7 10 16 10 8 0 12 -4 9 -10z m-645 -20 c0 -5 -5
-10 -11 -10 -5 0 -7 5 -4 10 3 6 8 10 11 10 2 0 4 -4 4 -10z m60 -20 c0 -39
-14 -39 -17 0 -1 17 2 30 7 30 6 0 10 -13 10 -30z m-1703 4 c2 -7 -6 -10 -22
-7 -14 3 -25 10 -25 15 0 13 43 6 47 -8z m403 -9 c6 -15 6 -34 0 -47 -8 -21
-15 -10 -11 16 1 5 -1 16 -4 25 -5 13 -7 13 -15 1 -5 -8 -12 -11 -16 -7 -8 7
14 37 27 37 5 0 14 -11 19 -25z m90 -22 c0 -3 -11 -14 -25 -25 -16 -13 -25
-29 -25 -49 0 -19 -5 -29 -15 -29 -10 0 -15 10 -15 29 0 16 6 31 15 35 8 3 15
14 15 24 0 10 3 21 6 24 6 7 44 -2 44 -9z m2071 -15 c31 -14 59 -31 63 -37 8
-12 -16 -62 -39 -81 -13 -11 -22 -10 -53 4 -37 17 -92 60 -92 71 0 10 55 75
60 72 3 -1 30 -14 61 -29z m-471 -18 c13 -31 40 -41 40 -15 0 8 9 15 20 15 23
0 24 -4 9 -31 -14 -27 -58 -21 -87 13 -14 17 -29 25 -39 21 -11 -4 -14 -2 -11
8 3 8 10 14 16 14 5 0 14 3 18 7 10 11 20 2 34 -32z m-1795 20 c3 -5 -1 -10
-9 -10 -8 0 -18 5 -21 10 -3 6 1 10 9 10 8 0 18 -4 21 -10z m70 -26 c1 -10 5
-25 9 -33 6 -8 -1 -7 -18 4 -29 19 -28 18 -20 40 8 21 29 14 29 -11z m165 -5
c0 -5 -10 -13 -21 -20 -17 -9 -23 -8 -30 2 -14 23 -10 31 14 25 12 -3 16 -3 9
0 -6 3 -9 10 -6 15 6 11 34 -7 34 -22z m-590 5 c0 -14 -3 -14 -15 -4 -8 7 -15
14 -15 16 0 2 7 4 15 4 8 0 15 -7 15 -16z m49 -30 c15 -11 19 -20 13 -26 -7
-7 -17 -3 -31 11 -34 34 -23 43 18 15z m-5044 -114 c32 -47 74 -116 93 -154
19 -38 57 -95 86 -125 29 -31 61 -69 71 -86 24 -38 158 -209 200 -255 39 -42
54 -86 25 -70 -33 18 -166 157 -200 209 -18 28 -37 51 -41 51 -9 0 -119 135
-119 145 0 3 -18 33 -40 66 -22 33 -40 63 -40 66 0 2 -20 30 -44 61 -24 32
-50 77 -56 102 -7 25 -17 51 -22 57 -6 7 -7 20 -4 30 9 21 15 15 91 -97z
m5025 54 c0 -8 -3 -14 -8 -14 -11 0 -32 37 -25 44 9 8 33 -14 33 -30z m504 1
c-6 -16 -24 -21 -24 -7 0 11 11 22 21 22 5 0 6 -7 3 -15z m-803 -32 c-8 -15
-10 -15 -11 -2 0 17 10 32 18 25 2 -3 -1 -13 -7 -23z m63 2 c8 -8 21 -15 29
-15 8 0 20 -7 27 -15 7 -8 19 -15 26 -15 8 0 14 -8 14 -18 0 -11 16 -30 35
-44 35 -25 35 -25 16 -46 -24 -29 -39 -28 -53 3 -6 14 -19 25 -29 25 -9 0 -43
21 -75 47 -55 45 -57 48 -34 53 17 4 21 8 12 14 -6 4 -12 11 -12 17 0 14 27
11 44 -6z m155 -19 c8 -10 9 -16 1 -21 -13 -8 -30 3 -30 21 0 18 14 18 29 0z
m2605 -62 c7 -18 -28 -90 -46 -97 -7 -2 -26 6 -43 17 -16 12 -39 26 -49 32
-33 18 -37 48 -10 87 l24 36 59 -30 c32 -16 62 -36 65 -45z m411 35 c34 -16
45 -27 45 -44 0 -13 -6 -25 -12 -28 -7 -2 -5 -3 5 -2 9 2 17 -1 17 -6 0 -5 14
-9 30 -9 26 0 30 -4 30 -28 0 -28 -24 -72 -40 -72 -5 0 -15 6 -22 14 -8 7 -31
19 -53 27 -22 8 -56 31 -76 52 -20 20 -42 37 -48 37 -7 0 -10 4 -6 10 3 5 12
7 19 4 9 -4 16 5 21 25 4 17 11 29 16 25 5 -3 9 0 9 5 0 16 15 14 65 -10z
m-2615 -25 c0 -2 -7 -4 -15 -4 -8 0 -15 4 -15 10 0 5 7 7 15 4 8 -4 15 -8 15
-10z m94 -29 c21 -16 13 -37 -12 -28 -23 9 -42 29 -35 37 10 10 26 7 47 -9z
m-74 -5 c-20 -13 -40 -13 -40 0 0 6 12 10 28 10 21 0 24 -2 12 -10z m-556 -36
c25 -10 19 -43 -8 -50 -30 -7 -46 1 -46 25 0 30 19 38 54 25z m2226 -24 c0
-18 -19 -11 -30 11 -11 19 -10 20 9 9 12 -6 21 -15 21 -20z m360 6 c19 -13 45
-26 58 -30 29 -9 28 -27 -4 -65 -19 -23 -29 -28 -42 -22 -9 5 -31 15 -49 21
-17 7 -39 20 -47 29 -15 16 -15 20 4 44 11 14 20 30 20 36 0 18 23 13 60 -13z
m-2753 8 c-3 -3 -12 -4 -19 -1 -8 3 -5 6 6 6 11 1 17 -2 13 -5z m62 -18 c9
-10 8 -16 -4 -26 -13 -11 -15 -8 -15 14 0 30 3 32 19 12z m681 10 c0 -3 -4 -8
-10 -11 -5 -3 -10 -1 -10 4 0 6 5 11 10 11 6 0 10 -2 10 -4z m-190 -46 c0 -37
23 -49 49 -26 22 20 30 20 60 -3 23 -18 24 -20 8 -36 -9 -9 -20 -28 -24 -43
-10 -41 -30 -75 -38 -63 -3 6 -14 11 -24 11 -14 0 -20 10 -25 40 -4 27 -10 39
-18 34 -6 -4 -8 -3 -4 4 3 6 3 28 -2 49 -9 41 -6 63 9 63 5 0 9 -14 9 -30z
m2930 -14 l-23 -21 19 33 c10 18 20 28 23 21 2 -6 -7 -21 -19 -33z m-2412 -7
c2 -5 10 -9 18 -9 8 0 17 -7 20 -15 4 -8 12 -15 20 -15 22 0 13 -37 -17 -74
-69 -85 -92 -120 -130 -196 -24 -50 -47 -90 -51 -90 -4 0 -27 14 -51 30 -25
17 -52 30 -61 30 -23 0 -20 24 9 58 14 17 25 34 25 38 0 5 22 37 48 70 26 34
63 91 82 128 31 61 36 67 60 61 14 -4 27 -11 28 -16z m547 1 c3 -5 1 -10 -4
-10 -6 0 -11 5 -11 10 0 6 2 10 4 10 3 0 8 -4 11 -10z m-1134 -30 c30 -26 32
-32 22 -49 -16 -25 -7 -51 18 -51 25 0 24 -17 -1 -25 -17 -5 -19 -13 -15 -68
5 -77 -11 -103 -53 -84 -40 17 -49 34 -56 101 -3 34 -8 73 -12 89 -6 24 -2 29
27 41 47 20 52 27 29 43 -19 13 -19 33 -1 33 5 0 24 -13 42 -30z m2205 2 c49
-41 59 -110 22 -149 -12 -13 -26 -23 -32 -23 -6 0 -30 17 -54 38 -36 32 -41
40 -29 51 8 6 17 26 21 43 11 58 35 71 72 40z m-2504 -29 c15 -16 15 -20 2
-38 -14 -18 -17 -19 -42 -5 -30 18 -39 44 -22 65 13 16 34 9 62 -22z m2996
-34 c3 -19 -27 -34 -40 -21 -13 13 2 43 21 40 9 -2 17 -10 19 -19z m66 -35 c9
-3 16 -11 16 -16 0 -6 -6 -5 -15 2 -11 9 -15 9 -15 1 0 -7 -5 -9 -10 -6 -6 4
-8 11 -5 16 7 11 9 11 29 3z m-6824 -15 c134 -22 261 -113 364 -263 36 -52 40
-65 44 -135 4 -65 1 -84 -17 -117 -31 -58 -44 -72 -85 -89 -20 -8 -36 -18 -36
-21 0 -10 42 -44 53 -44 5 0 34 -16 63 -35 29 -19 56 -35 60 -35 13 0 253
-121 259 -131 10 -15 77 -46 116 -53 21 -4 43 -14 50 -22 7 -9 44 -31 83 -50
38 -19 75 -39 81 -44 5 -4 46 -23 90 -40 44 -17 87 -38 95 -45 19 -16 227
-120 260 -130 88 -25 362 -161 433 -214 48 -36 98 -91 83 -91 -3 0 -56 25
-119 55 -62 30 -119 55 -124 55 -6 0 -33 11 -60 24 -26 13 -97 49 -158 79 -60
30 -123 62 -140 70 -16 9 -57 28 -90 42 -33 14 -67 30 -75 35 -51 32 -175 94
-230 116 -36 14 -85 38 -110 53 -56 35 -112 66 -215 121 -44 24 -96 55 -115
70 -36 27 -291 170 -304 170 -4 0 -54 -20 -110 -45 -57 -25 -114 -45 -126 -45
-12 0 -59 -16 -106 -36 l-84 -36 -23 28 c-32 41 -133 206 -141 232 -4 12 -11
22 -16 22 -13 0 -42 63 -33 71 5 4 31 20 59 36 29 15 104 59 168 96 64 37 133
73 154 80 51 17 50 44 -3 74 -56 32 -126 31 -193 -3 -41 -20 -50 -29 -42 -39
8 -10 3 -17 -21 -29 -17 -9 -36 -13 -42 -9 -6 4 -7 1 -2 -7 6 -10 4 -12 -9 -7
-10 4 -22 7 -27 7 -20 0 -7 18 17 24 l27 7 -22 23 c-25 27 -26 49 -4 87 14 24
15 35 6 59 -11 28 -10 30 34 51 82 40 163 48 283 28z m6726 -4 c10 -8 27 -15
36 -15 9 0 18 -5 20 -10 2 -6 13 -12 25 -13 21 -1 21 -2 6 -19 -15 -17 -18
-17 -40 -2 -14 8 -32 22 -41 29 -9 8 -26 21 -37 29 -16 12 -17 15 -4 16 8 0
24 -7 35 -15z m154 -36 c0 -5 -7 -9 -15 -9 -8 0 -15 7 -15 15 0 9 6 12 15 9 8
-4 15 -10 15 -15z m-2702 -27 c4 -25 -13 -30 -22 -6 -9 25 -7 36 7 32 6 -3 13
-14 15 -26z m1062 -12 c0 -14 -9 -12 -26 4 -20 21 -17 28 6 16 11 -6 20 -15
20 -20z m1436 -59 c-14 -14 -18 -14 -31 0 -9 9 -13 23 -9 32 5 15 8 15 31 0
22 -15 23 -18 9 -32z m-1135 12 c13 -16 12 -17 -3 -4 -10 7 -18 15 -18 17 0 8
8 3 21 -13z m-94 -25 c11 -13 33 -34 50 -48 l30 -25 -19 -37 c-11 -21 -24 -35
-29 -32 -5 3 -12 -2 -15 -10 -5 -14 -10 -13 -42 3 -21 11 -48 31 -61 45 -22
24 -23 28 -11 52 17 32 56 74 68 74 4 0 18 -10 29 -22z m-472 -4 c14 -9 22
-21 18 -28 -3 -6 0 -6 8 2 19 18 39 15 39 -7 0 -14 9 -21 31 -26 29 -6 30 -8
15 -23 -14 -15 -13 -18 16 -42 27 -23 30 -29 21 -55 -15 -45 -38 -54 -62 -24
-11 13 -18 32 -15 42 3 9 1 17 -5 17 -6 0 -11 7 -11 15 0 8 -5 15 -11 15 -5 0
-8 4 -5 8 3 5 -6 15 -19 22 -18 10 -22 17 -14 26 8 9 5 16 -11 24 -18 9 -24 7
-46 -20 l-26 -31 -19 22 c-21 25 -24 33 -8 24 12 -8 51 34 43 46 -9 15 35 10
61 -7z m633 4 c-3 -7 -11 -13 -18 -13 -7 0 -15 6 -17 13 -3 7 4 12 17 12 13 0
20 -5 18 -12z m-263 -27 c-8 -17 -19 -33 -25 -36 -5 -3 -1 10 11 29 25 43 36
48 14 7z m1355 5 c0 -3 -4 -8 -10 -11 -5 -3 -10 -1 -10 4 0 6 5 11 10 11 6 0
10 -2 10 -4z m-1020 -36 c0 -5 -4 -10 -9 -10 -6 0 -13 5 -16 10 -3 6 1 10 9
10 9 0 16 -4 16 -10z m-1240 -51 l40 -51 -23 -27 c-12 -15 -31 -48 -42 -74
-10 -26 -22 -47 -25 -47 -4 0 -18 9 -31 20 -13 11 -39 32 -58 48 l-33 28 53
77 c30 42 60 77 66 77 7 0 31 -23 53 -51z m-5429 -16 c41 -46 81 -103 77 -112
-5 -16 -180 -211 -188 -211 -5 0 -31 -31 -58 -68 -28 -37 -71 -84 -95 -105
-24 -20 -54 -56 -67 -80 -14 -26 -41 -55 -71 -75 -27 -17 -56 -44 -66 -59 -26
-40 -83 -97 -119 -119 -16 -11 -47 -38 -68 -61 -21 -24 -44 -43 -51 -43 -23 0
-41 44 -54 130 -7 47 -21 121 -31 165 -10 44 -21 112 -25 150 -7 73 -64 360
-90 458 -4 15 -5 27 -2 27 10 0 65 -63 79 -89 7 -15 18 -30 24 -36 6 -5 54
-64 106 -130 52 -66 118 -146 147 -178 l53 -57 47 59 c26 32 63 76 83 97 38
41 118 145 118 154 0 3 13 14 29 25 17 10 42 39 57 62 31 50 107 123 127 123
7 0 24 -12 38 -27z m6583 -53 c25 -7 47 -19 50 -27 5 -11 10 -12 27 -2 17 8
23 8 29 -2 9 -14 -11 -46 -46 -72 -29 -22 -80 -9 -76 19 2 15 1 16 -7 5 -7
-11 -16 -7 -46 22 -33 32 -35 37 -23 59 18 31 31 40 40 24 4 -7 28 -19 52 -26z
m-743 -3 c-11 -28 -29 -43 -39 -32 -4 4 1 13 12 20 10 8 15 18 12 23 -3 6 0
12 6 15 19 6 20 3 9 -26z m439 -12 c0 -2 -5 -16 -11 -32 l-11 -28 -15 28 c-19
38 -11 62 17 47 11 -6 20 -13 20 -15z m-522 -8 c9 -7 9 -13 1 -23 -10 -12 -14
-10 -25 12 -8 14 -14 28 -14 31 0 5 18 -5 38 -20z m215 -13 c13 -8 15 -14 7
-19 -7 -4 -17 -2 -23 4 -22 22 -40 13 -35 -18 4 -26 2 -29 -13 -20 -25 13 -29
22 -22 47 8 32 44 35 86 6z m354 -55 c4 -14 11 -19 25 -16 18 5 18 4 4 -18 -9
-14 -16 -34 -16 -46 0 -15 -5 -19 -15 -15 -8 3 -15 1 -15 -4 0 -6 -5 -10 -10
-10 -7 0 -7 6 0 20 6 11 7 20 3 20 -4 0 -2 5 5 12 16 16 15 31 -2 25 -14 -6
-26 12 -26 39 0 23 41 17 47 -7z m-421 -29 c9 0 14 -6 11 -12 -2 -7 -12 -12
-22 -10 -10 2 -14 -1 -10 -7 3 -6 2 -11 -4 -11 -18 0 -30 33 -19 54 9 17 11
18 20 3 5 -10 16 -17 24 -17z m334 3 c0 -10 -6 -13 -16 -9 -9 3 -20 6 -25 6
-16 0 -9 18 9 23 23 5 32 -1 32 -20z m-254 -48 c24 -22 24 -30 2 -26 -5 0 -8
-4 -8 -11 0 -6 -9 -3 -20 7 -21 19 -27 55 -11 55 6 0 22 -11 37 -25z m894 5
c0 -36 -43 -110 -68 -117 -12 -3 -25 -4 -27 -1 -5 5 78 138 87 138 5 0 8 -9 8
-20z m1145 10 c3 -5 1 -10 -4 -10 -6 0 -11 5 -11 10 0 6 2 10 4 10 3 0 8 -4
11 -10z m-2177 -61 c42 -33 78 -64 79 -67 1 -4 -13 -25 -33 -47 -30 -35 -36
-38 -47 -24 -6 8 -20 18 -29 22 -19 7 -25 37 -8 37 6 0 10 7 10 15 0 20 -6 19
-30 -5 -11 -11 -27 -20 -36 -20 -9 0 -18 9 -21 20 -3 11 -12 20 -19 20 -17 0
-18 12 -2 28 9 9 8 12 -5 12 -37 0 -6 52 38 63 11 2 21 5 23 6 1 0 37 -26 80
-60z m327 1 c10 -11 23 -30 29 -42 7 -13 25 -25 44 -29 18 -4 42 -15 52 -24
11 -10 30 -23 42 -29 13 -6 28 -23 35 -36 7 -14 16 -25 20 -25 24 -1 30 -17
22 -65 -4 -27 -11 -54 -14 -60 -3 -5 -1 -10 4 -10 6 0 11 5 11 11 0 5 9 30 20
55 20 43 50 60 50 28 0 -8 5 -12 10 -9 6 3 10 1 10 -4 0 -6 0 -14 0 -18 0 -5
-8 -8 -18 -8 -10 0 -18 -9 -20 -22 -2 -13 -7 -23 -12 -23 -5 0 -10 -15 -12
-32 -2 -18 -9 -34 -15 -34 -7 -1 -29 -2 -48 -3 -24 -1 -35 -6 -35 -16 0 -18
-12 -19 -28 -3 -17 17 -15 38 3 38 8 0 15 7 15 15 0 8 -4 15 -9 15 -20 0 -41
33 -41 65 0 19 -4 37 -10 40 -5 3 -10 -3 -10 -14 0 -24 -16 -36 -23 -19 -3 7
-6 3 -6 -9 -1 -12 4 -25 9 -28 6 -3 10 -15 10 -26 0 -12 -5 -17 -10 -14 -6 4
-17 2 -23 -4 -10 -8 -13 -1 -15 27 -1 20 -4 55 -6 77 -2 22 -4 45 -5 51 0 7
-24 35 -52 64 -45 46 -50 55 -44 83 6 29 28 57 45 57 4 0 15 -9 25 -20z m185
0 c0 -5 -5 -10 -11 -10 -5 0 -7 5 -4 10 3 6 8 10 11 10 2 0 4 -4 4 -10z m159
-50 c0 -22 -2 -21 -14 10 -18 47 -18 58 0 34 8 -10 14 -30 14 -44z m277 -106
c49 -39 49 -41 29 -68 -14 -18 -15 -18 -41 -2 -14 10 -35 15 -47 12 -19 -4
-22 0 -24 26 -3 34 12 68 29 68 6 0 31 -16 54 -36z m-6153 -1 c49 -62 97 -142
97 -161 0 -5 -25 -22 -56 -38 -31 -16 -78 -53 -104 -82 l-49 -52 -37 46 c-20
25 -49 51 -63 59 -25 14 -25 15 -5 20 12 4 26 22 34 43 13 38 136 192 153 192
5 0 19 -12 30 -27z m6850 -9 c-3 -8 -9 -14 -14 -14 -5 0 -9 -7 -9 -15 0 -19
-9 -19 -34 0 -12 9 -16 20 -12 32 7 17 8 17 20 1 17 -23 26 -23 26 2 0 13 5
18 14 14 8 -3 12 -12 9 -20z m-255 -21 c4 -29 -3 -29 -36 3 l-27 25 30 -3 c22
-2 31 -9 33 -25z m40 -21 c2 -7 -3 -12 -12 -12 -9 0 -16 7 -16 16 0 17 22 14
28 -4z m-94 -18 c9 -3 16 -12 16 -19 0 -8 9 -17 20 -20 21 -7 27 -39 10 -50
-20 -12 -51 7 -70 44 -23 47 -16 60 24 45z m-1038 -18 c3 -8 16 -17 29 -20 17
-4 22 -11 18 -26 -3 -11 -12 -20 -20 -20 -20 0 -63 49 -56 66 7 18 22 18 29 0z
m1544 -38 c58 -46 116 -86 150 -103 46 -23 120 -86 114 -96 -6 -10 -21 -5 -92
27 -29 13 -57 24 -62 24 -6 0 -19 9 -30 20 -12 12 -47 26 -83 33 -48 9 -63 16
-66 32 -3 17 26 85 37 85 2 0 17 -10 32 -22z m-335 1 c11 -16 1 -19 -13 -3 -7
8 -8 14 -3 14 5 0 13 -5 16 -11z m-633 -62 c9 -3 5 -13 -14 -33 -15 -16 -31
-41 -37 -56 -5 -14 -33 -58 -60 -97 -28 -39 -62 -93 -77 -121 -31 -60 -61 -76
-110 -60 -19 7 -34 16 -34 21 0 17 38 85 55 99 15 12 39 46 112 155 18 27 31
56 28 62 -2 7 12 28 32 48 l36 35 28 -24 c16 -13 34 -26 41 -29z m641 -37 c21
-39 9 -64 -21 -42 -9 7 -25 15 -34 18 -12 4 -18 16 -17 33 2 23 2 24 6 4 5
-24 25 -33 22 -10 -6 48 16 47 44 -3z m-1089 14 c5 -14 4 -15 -9 -4 -17 14
-19 20 -6 20 5 0 12 -7 15 -16z m-5259 -53 c143 -79 252 -130 310 -147 33 -9
66 -21 74 -27 7 -6 18 -12 25 -13 6 -1 52 -15 101 -32 50 -16 123 -40 162 -52
40 -12 75 -26 78 -31 4 -5 19 -9 36 -9 16 0 29 -4 29 -10 0 -13 -4 -12 -120 4
-108 16 -271 67 -441 137 -65 27 -125 49 -134 49 -10 0 -36 15 -59 34 -23 18
-56 42 -75 52 -93 52 -102 61 -81 74 20 13 16 14 95 -29z m6597 12 c10 -9 18
-23 18 -31 0 -8 6 -12 13 -9 8 3 12 -5 11 -24 -2 -47 -3 -49 -23 -49 -11 0
-23 -4 -26 -10 -10 -17 -33 -11 -40 10 -3 11 -13 20 -22 20 -8 0 -17 -9 -20
-20 -3 -11 -9 -20 -14 -20 -16 0 -10 28 17 77 45 81 53 86 86 56z m-1359 -10
c-7 -2 -19 -2 -25 0 -7 3 -2 5 12 5 14 0 19 -2 13 -5z m-263 -113 c36 -26 90
-61 120 -78 31 -17 67 -43 80 -57 14 -15 46 -38 72 -51 26 -13 49 -28 52 -32
10 -16 -51 -63 -139 -108 -48 -24 -95 -44 -105 -44 -17 0 -86 -29 -215 -89
-33 -16 -80 -38 -105 -49 -25 -12 -76 -33 -115 -48 -38 -14 -95 -38 -125 -54
-62 -32 -197 -90 -211 -90 -5 0 -59 -24 -121 -54 -62 -29 -128 -57 -147 -61
-34 -7 -150 -57 -233 -101 -26 -13 -65 -31 -87 -39 -40 -14 -41 -13 -63 15
-56 70 -68 85 -68 90 0 3 17 14 38 25 20 11 39 23 42 26 3 4 32 21 65 38 33
18 78 43 100 56 22 13 45 24 52 24 13 1 112 61 178 109 22 16 62 39 88 52 27
13 65 38 85 55 20 18 69 53 107 78 119 80 167 115 204 150 20 18 55 45 79 60
23 15 64 49 90 75 27 26 69 62 95 80 28 21 51 47 59 68 14 39 8 41 128 -46z
m1237 30 c10 -11 25 -20 34 -20 28 0 31 -30 7 -71 -20 -36 -48 -53 -48 -29 0
6 -7 10 -15 10 -8 0 -15 5 -15 11 0 6 -8 9 -18 7 -32 -9 -45 26 -24 66 15 31
27 41 55 45 4 0 15 -8 24 -19z m537 -28 c7 -21 6 -22 -21 -10 -15 6 -34 16
-40 21 -20 15 -15 30 7 24 11 -3 20 -1 20 5 0 15 27 -16 34 -40z m56 -11 c0
-12 -29 -41 -41 -41 -14 0 -11 11 8 32 17 19 33 24 33 9z m-263 -62 l12 -34 0
33 c1 17 6 32 11 32 6 0 10 -10 10 -21 0 -17 3 -19 14 -10 11 9 21 1 51 -40
54 -75 53 -85 -2 -29 l-50 50 -1 -32 c0 -18 6 -37 15 -43 9 -7 12 -15 6 -18
-12 -7 -113 58 -136 89 -21 28 -13 57 14 49 11 -4 19 -2 19 5 0 24 25 2 37
-31z m-497 -105 c0 -8 10 -14 24 -14 15 0 26 -7 29 -17 4 -14 5 -12 6 5 1 26
9 27 39 6 l23 -15 -26 -31 c-14 -16 -25 -38 -25 -48 0 -54 -23 -63 -68 -25
-28 24 -60 85 -44 85 4 0 6 18 4 39 -4 36 -2 39 17 34 12 -3 21 -12 21 -19z
m690 -34 c0 -5 -4 -10 -9 -10 -6 0 -13 5 -16 10 -3 6 1 10 9 10 9 0 16 -4 16
-10z m-65 -18 c-3 -3 -11 0 -18 7 -9 10 -8 11 6 5 10 -3 15 -9 12 -12z m100 8
c3 -5 1 -10 -4 -10 -6 0 -11 5 -11 10 0 6 2 10 4 10 3 0 8 -4 11 -10z m-915
-39 c0 -12 -52 -71 -62 -71 -16 0 -7 23 21 51 31 30 41 35 41 20z m800 -11 c0
-5 -5 -10 -11 -10 -5 0 -7 5 -4 10 3 6 8 10 11 10 2 0 4 -4 4 -10z m30 -30 c0
-5 7 -10 15 -10 16 0 20 -15 7 -24 -11 -6 -52 21 -52 35 0 5 7 9 15 9 8 0 15
-4 15 -10z m-662 -78 c46 -29 46 -31 8 -91 -24 -38 -27 -39 -51 -27 -14 8 -44
31 -67 52 l-41 38 31 26 c18 15 32 35 32 44 0 17 1 17 23 2 12 -9 41 -29 65
-44z m405 -47 c-3 -9 -8 -14 -10 -11 -3 3 -2 9 2 15 9 16 15 13 8 -4z m-153 1
c0 -2 -7 -9 -15 -16 -12 -10 -15 -10 -15 4 0 9 7 16 15 16 8 0 15 -2 15 -4z
m70 -31 c0 -14 -4 -25 -9 -25 -4 0 -6 11 -3 25 2 14 6 25 8 25 2 0 4 -11 4
-25z m50 -12 c0 -5 -8 -17 -17 -28 -14 -18 -15 -18 -9 -2 3 10 6 23 6 28 0 5
5 9 10 9 6 0 10 -3 10 -7z m110 -13 c-6 -11 -9 -24 -6 -29 3 -4 -4 -8 -16 -7
-21 1 -39 26 -19 26 6 0 11 7 11 15 0 8 9 15 20 15 18 0 19 -3 10 -20z"/>
<path d="M1180 9368 c1 -11 70 -52 70 -41 0 6 -54 52 -62 53 -5 0 -8 -6 -8
-12z"/>
<path d="M1180 7635 c0 -3 11 -18 24 -32 13 -14 22 -32 19 -39 -6 -15 15 -18
34 -6 9 6 3 18 -21 45 -29 32 -56 48 -56 32z"/>
<path d="M3034 6764 c3 -9 6 -21 6 -27 0 -8 3 -8 11 0 7 7 21 -1 45 -25 19
-19 37 -32 40 -30 6 7 -86 98 -98 98 -6 0 -7 -7 -4 -16z"/>
<path d="M270 8086 c0 -2 8 -10 18 -17 15 -13 16 -12 3 4 -13 16 -21 21 -21
13z"/>
<path d="M366 8011 c-3 -5 1 -11 9 -15 8 -3 15 -1 15 4 0 13 -18 22 -24 11z"/>
<path d="M3220 7806 c0 -2 8 -10 18 -17 15 -13 16 -12 3 4 -13 16 -21 21 -21
13z"/>
<path d="M3270 7766 c0 -2 7 -7 16 -10 8 -3 12 -2 9 4 -6 10 -25 14 -25 6z"/>
<path d="M3430 7110 c0 -5 5 -10 10 -10 6 0 10 5 10 10 0 6 -4 10 -10 10 -5 0
-10 -4 -10 -10z"/>
<path d="M5072 5378 c-7 -7 -12 -19 -12 -28 0 -9 -42 -56 -92 -104 -116 -110
-154 -154 -141 -167 10 -10 143 108 143 127 0 5 12 18 26 29 14 11 43 35 65
54 l40 34 32 -30 c18 -16 58 -49 91 -73 32 -24 65 -55 74 -68 8 -13 32 -32 53
-42 21 -11 45 -30 53 -42 13 -19 14 -24 2 -37 -34 -38 -87 -126 -84 -139 6
-32 26 -20 76 48 29 38 56 70 61 70 4 0 16 -9 27 -21 10 -12 37 -30 59 -41 52
-26 141 -113 166 -160 11 -21 21 -52 23 -68 2 -17 5 -33 8 -35 5 -6 58 96 58
111 0 7 -10 15 -22 18 -27 7 -164 119 -268 220 -41 39 -91 84 -110 98 -19 14
-55 45 -79 67 -24 23 -63 55 -87 71 -23 17 -59 50 -80 75 -37 46 -60 55 -82
33z"/>
<path d="M7690 4530 c0 -11 5 -20 10 -20 6 0 10 9 10 20 0 11 -4 20 -10 20 -5
0 -10 -9 -10 -20z"/>
<path d="M7795 4519 c-11 -17 1 -21 15 -4 8 9 8 15 2 15 -6 0 -14 -5 -17 -11z"/>
<path d="M7546 4385 c-3 -8 -1 -15 4 -15 6 0 10 7 10 15 0 8 -2 15 -4 15 -2 0
-6 -7 -10 -15z"/>
<path d="M9046 3982 c-3 -5 1 -9 9 -9 8 0 15 4 15 9 0 4 -4 8 -9 8 -6 0 -12
-4 -15 -8z"/>
<path d="M3115 2392 c-16 -9 -57 -33 -90 -54 -33 -20 -72 -40 -87 -43 -34 -9
-36 -28 -4 -60 24 -24 55 -25 82 -3 24 18 155 78 172 78 9 0 29 -6 43 -14 33
-17 108 -31 94 -18 -27 27 -166 132 -172 131 -5 0 -21 -8 -38 -17z"/>
<path d="M8514 2692 c-6 -4 -19 -22 -28 -39 -14 -29 -15 -33 -1 -33 28 0 30 1
27 16 -2 8 4 17 13 20 8 3 15 15 15 25 0 20 -8 23 -26 11z"/>
<path d="M8510 2600 c-13 -8 -12 -10 3 -10 9 0 17 5 17 10 0 12 -1 12 -20 0z"/>
<path d="M8636 2499 c12 -12 28 -19 35 -17 8 3 -1 12 -21 22 l-35 17 21 -22z"/>
<path d="M8414 2154 c-1 -13 2 -21 7 -18 11 6 12 31 2 37 -5 3 -9 -6 -9 -19z"/>
<path d="M0 7712 c0 -10 26 -34 50 -47 8 -4 2 6 -14 23 -32 34 -36 37 -36 24z"/>
</g>
</svg>
