<?xml version="1.0" standalone="no"?>
<!DOCTYPE svg PUBLIC "-//W3C//DTD SVG 20010904//EN"
 "http://www.w3.org/TR/2001/REC-SVG-20010904/DTD/svg10.dtd">
<svg version="1.0" xmlns="http://www.w3.org/2000/svg"
 width="1024.000000pt" height="1024.000000pt" viewBox="0 0 1024.000000 1024.000000"
 preserveAspectRatio="xMidYMid meet">

<g transform="translate(0.000000,1024.000000) scale(0.100000,-0.100000)"
fill="#000000" stroke="none">
<path d="M5440 9955 c-14 -8 -32 -15 -40 -15 -8 0 -32 -16 -52 -34 -28 -25
-36 -38 -32 -57 2 -13 2 -19 -1 -12 -4 8 -13 5 -28 -8 -32 -29 -148 -104 -206
-134 -28 -14 -65 -38 -83 -53 -30 -26 -47 -36 -125 -76 -19 -9 -104 -17 -268
-25 -322 -15 -514 -42 -835 -117 -167 -38 -268 -72 -572 -188 -114 -43 -153
-49 -212 -30 -28 9 -105 43 -171 76 -109 54 -121 63 -133 96 -23 66 -81 108
-136 98 -83 -14 -101 -20 -118 -40 -31 -36 -50 -89 -45 -127 5 -35 1 -40 -92
-128 -154 -146 -247 -221 -274 -221 -26 0 -87 40 -127 85 -14 15 -46 37 -71
50 -25 13 -51 31 -59 40 -8 9 -34 31 -59 48 -25 17 -66 48 -91 68 -25 20 -61
44 -80 52 -19 8 -62 38 -95 67 -33 29 -74 58 -92 66 -17 7 -35 18 -38 24 -4 6
-23 22 -43 35 -116 75 -252 172 -285 202 -21 19 -57 42 -80 52 -23 10 -48 26
-56 35 -15 18 -98 76 -108 76 -4 0 -28 18 -54 40 -26 22 -51 40 -56 40 -13 0
-68 -89 -116 -186 -54 -112 -134 -261 -158 -296 -11 -14 -32 -58 -48 -97 -16
-39 -37 -83 -48 -98 -19 -28 -32 -54 -170 -326 l-83 -163 0 -143 c0 -154 1
-157 58 -180 33 -14 62 -45 62 -68 0 -19 -28 -16 -35 5 -3 9 -23 29 -45 44
l-40 28 0 -30 c0 -19 5 -30 14 -30 8 0 21 -13 30 -30 16 -34 4 -40 -26 -13
-17 15 -18 15 -18 -8 0 -13 4 -39 9 -57 6 -20 6 -30 0 -27 -5 4 -9 -86 -9
-230 0 -155 3 -234 10 -230 6 3 10 13 10 21 0 19 7 18 33 -7 12 -11 39 -29 60
-40 20 -11 37 -24 37 -29 0 -14 -4 -13 -53 9 -23 11 -54 22 -69 25 -25 6 -28
4 -28 -21 1 -22 13 -37 57 -70 31 -24 62 -43 69 -43 6 0 14 -7 18 -15 3 -8 3
-15 0 -15 -10 0 -90 54 -117 78 -15 14 -27 21 -27 14 0 -9 43 -45 138 -118 12
-8 12 -15 3 -32 -16 -31 -42 -27 -95 13 l-46 35 0 -86 c0 -105 11 -127 86
-179 31 -22 73 -54 93 -71 20 -17 59 -43 86 -57 28 -14 61 -37 75 -52 14 -15
65 -54 114 -87 141 -94 196 -138 196 -153 0 -8 -18 -54 -39 -102 -40 -90 -71
-174 -71 -196 -1 -7 -9 -30 -20 -52 -11 -22 -19 -48 -20 -57 0 -10 -9 -41 -20
-70 -12 -29 -41 -141 -65 -248 -25 -107 -49 -215 -55 -240 -17 -75 -39 -304
-50 -520 -13 -252 -6 -464 25 -760 12 -120 41 -266 86 -445 17 -66 33 -133 35
-150 4 -28 56 -186 75 -230 4 -11 24 -63 44 -115 20 -52 49 -129 65 -171 16
-42 42 -98 58 -125 16 -27 33 -60 37 -74 4 -14 15 -36 24 -50 10 -14 27 -48
39 -77 11 -29 41 -84 66 -123 25 -39 46 -74 46 -77 0 -11 79 -141 144 -238 91
-134 106 -165 94 -195 -13 -33 -2 -134 48 -435 8 -49 19 -119 25 -155 5 -36
14 -83 20 -105 5 -22 16 -83 23 -135 l13 -95 -46 -48 c-43 -45 -46 -50 -49
-115 -3 -54 0 -75 15 -100 33 -53 70 -76 134 -80 87 -6 120 3 152 45 29 39 36
106 17 172 l-9 33 147 144 c81 79 150 144 154 144 3 0 53 -46 110 -101 57 -56
126 -118 153 -139 28 -20 68 -54 90 -75 22 -20 60 -51 84 -68 25 -17 92 -66
149 -109 57 -43 120 -85 140 -94 20 -8 48 -25 62 -38 31 -28 131 -89 214 -128
33 -17 79 -42 101 -57 22 -15 90 -48 150 -75 61 -26 134 -59 163 -72 29 -13
58 -24 65 -24 7 0 21 -6 32 -14 31 -21 316 -115 415 -136 19 -5 62 -16 95 -25
250 -69 727 -126 1085 -128 324 -2 838 59 1075 128 69 20 173 47 215 55 36 8
138 42 201 67 33 13 40 13 68 -1 26 -14 30 -20 21 -36 -16 -30 -12 -102 9
-136 28 -45 101 -78 157 -70 60 8 90 30 125 91 22 40 39 56 72 70 23 11 49 24
57 31 8 6 39 17 69 23 29 6 108 38 175 70 66 33 162 75 213 94 50 20 121 49
157 66 36 17 95 44 130 61 36 17 71 30 79 30 18 0 98 35 233 101 55 27 108 49
118 49 9 0 43 12 74 26 31 15 89 41 127 59 39 18 93 38 120 45 28 7 70 27 95
45 l46 32 59 -41 c107 -74 215 -157 215 -164 0 -5 19 -16 43 -27 23 -10 51
-27 62 -37 37 -34 89 -74 145 -108 30 -19 71 -49 90 -67 19 -18 58 -45 85 -59
28 -15 62 -38 77 -52 29 -26 86 -69 201 -149 102 -72 99 -70 104 -55 3 7 20
33 38 57 34 44 85 133 85 148 0 4 14 27 30 50 66 91 139 210 134 219 -3 4 12
34 34 66 88 131 112 170 139 227 16 33 44 80 62 105 47 63 101 184 101 227 0
43 -27 71 -103 110 -28 14 -77 47 -107 73 -30 26 -62 50 -70 53 -38 16 -152
94 -209 143 -20 18 -52 39 -72 47 -20 8 -62 38 -93 66 -31 28 -63 51 -71 51
-8 0 -40 25 -72 56 -88 87 -124 106 -181 98 -26 -3 -50 -8 -54 -10 -3 -2 -23
-33 -43 -69 -20 -36 -39 -65 -43 -65 -11 0 -110 59 -116 69 -3 5 24 48 60 96
35 49 64 95 62 104 -2 9 -26 28 -53 43 -28 15 -71 47 -96 71 -25 25 -68 57
-95 73 -27 15 -65 43 -84 61 -36 33 -56 48 -175 130 -38 26 -88 66 -110 89
-22 22 -57 50 -77 62 -20 11 -77 52 -125 90 -48 38 -99 73 -113 77 -14 4 -33
14 -43 23 -9 8 -19 13 -21 11 -2 -2 -29 -42 -59 -89 -31 -47 -65 -96 -76 -110
-11 -14 -21 -29 -21 -34 0 -5 -17 -38 -37 -73 -29 -48 -42 -63 -60 -63 -24 0
-28 11 -14 38 4 9 11 40 14 67 5 45 3 52 -16 61 -24 10 -25 39 -1 63 12 13 17
12 37 -7 28 -27 36 -27 53 -4 19 25 17 42 -8 69 -19 21 -20 24 -6 40 9 10 25
36 36 58 20 40 57 78 83 87 16 5 -40 38 -65 38 -8 0 -54 27 -101 60 -47 33
-103 69 -124 80 -22 11 -66 43 -100 72 -33 29 -77 62 -98 73 -21 10 -56 35
-79 55 -22 19 -71 60 -109 90 -38 30 -100 83 -138 118 -38 34 -73 62 -80 62
-6 0 -19 8 -29 17 -19 17 -20 16 -39 -7 -11 -14 -35 -57 -54 -97 -19 -39 -38
-73 -42 -75 -4 -1 -20 -21 -34 -43 -14 -22 -51 -78 -81 -125 -31 -47 -61 -96
-68 -109 -7 -13 -26 -43 -44 -66 -17 -23 -36 -50 -42 -60 -10 -18 -11 -18 -37
1 -16 12 -24 25 -21 36 7 25 103 190 123 213 15 17 26 36 36 65 18 52 98 196
141 255 20 28 64 117 64 130 0 3 33 54 73 113 41 59 76 112 78 117 14 36 73
115 89 120 10 3 21 12 23 20 4 8 14 11 28 8 19 -5 21 -3 16 19 -5 18 -1 30 14
44 11 10 19 28 17 39 -1 12 9 35 22 52 14 17 35 49 48 70 12 21 27 45 32 53 8
12 15 9 45 -20 19 -18 35 -38 35 -44 0 -15 -91 -147 -105 -152 -7 -3 -15 -18
-18 -32 -4 -18 -22 -40 -52 -61 -26 -19 -55 -47 -65 -63 -9 -16 -36 -45 -60
-65 -66 -57 -97 -143 -70 -194 6 -10 17 -19 25 -19 8 0 20 -8 27 -19 17 -23
134 -113 178 -136 19 -10 57 -39 84 -65 28 -26 71 -60 96 -75 25 -15 65 -46
90 -70 25 -23 100 -83 167 -134 67 -50 123 -96 125 -100 2 -5 32 -22 68 -39
64 -31 65 -31 82 -12 22 27 36 25 88 -12 63 -46 82 -65 115 -123 31 -53 45
-68 115 -117 25 -17 56 -43 70 -57 42 -42 304 -238 389 -290 30 -18 64 -44 74
-58 20 -25 46 -44 166 -120 36 -23 91 -67 121 -97 30 -29 73 -63 95 -74 22
-11 57 -36 79 -56 21 -20 56 -46 78 -57 48 -25 130 -82 179 -125 20 -18 61
-48 90 -68 30 -20 72 -50 94 -67 22 -16 59 -38 82 -49 23 -10 68 -43 101 -72
48 -43 126 -99 165 -116 4 -2 7 183 7 412 l0 416 -25 0 c-15 0 -31 9 -40 24
-15 22 -14 27 6 65 18 35 24 39 40 31 18 -10 19 -5 19 173 l0 183 -42 40 c-24
23 -59 52 -78 65 -19 13 -66 49 -105 81 -38 32 -92 76 -120 98 -27 21 -75 60
-105 85 -30 25 -80 62 -110 82 -30 20 -80 59 -111 87 -30 28 -71 63 -90 78
l-34 27 30 1 c25 0 36 10 68 57 51 78 49 94 -15 123 -79 36 -81 38 -60 69 25
34 109 218 118 255 4 16 21 55 38 85 18 31 38 72 46 91 8 19 24 53 35 75 12
22 27 62 34 88 6 27 22 65 35 85 33 54 112 231 121 272 4 19 16 47 26 62 11
14 19 29 19 33 0 4 24 55 54 113 29 59 57 123 61 142 4 19 13 42 20 50 7 8 27
44 45 80 17 36 39 81 49 100 11 19 31 70 46 114 24 71 27 89 23 185 -3 83 -9
117 -27 156 -13 28 -30 66 -39 85 -9 19 -33 63 -54 97 -21 35 -38 65 -38 68 0
6 -101 211 -135 275 -14 25 -25 52 -25 61 0 8 -5 20 -11 26 -8 8 -5 19 11 41
14 19 24 50 27 89 5 56 3 62 -23 92 -24 27 -39 34 -84 39 l-55 7 -88 105 c-49
58 -120 149 -159 203 -38 53 -74 97 -79 97 -5 0 -30 33 -56 72 -25 40 -70 97
-99 128 -30 30 -54 59 -54 65 0 6 -13 24 -28 39 -16 15 -56 61 -88 102 -32 42
-86 108 -120 148 -34 39 -67 82 -73 95 -18 33 -95 132 -121 156 -12 11 -29 33
-37 49 -19 37 -27 47 -88 110 l-50 52 -2 86 c0 47 -6 95 -12 106 -10 18 -6 26
25 54 20 18 50 47 66 63 16 17 109 112 206 211 l177 181 64 7 c105 10 124 31
136 146 6 63 6 66 -24 96 -73 75 -224 69 -266 -10 -23 -42 -16 -126 12 -164
l20 -28 -35 -24 c-19 -14 -44 -36 -56 -50 -12 -14 -56 -60 -100 -102 -43 -42
-88 -91 -101 -108 -12 -16 -41 -44 -64 -61 -23 -16 -54 -49 -68 -73 -26 -43
-29 -44 -90 -51 -41 -4 -75 -15 -98 -30 -32 -22 -37 -23 -62 -10 -47 25 -139
65 -149 65 -5 0 -54 19 -109 41 -55 22 -122 48 -150 56 -27 8 -68 24 -90 34
-37 17 -71 30 -285 109 -41 15 -120 46 -175 68 -200 81 -306 122 -318 122 -6
0 -25 7 -41 15 -41 22 -343 142 -416 166 -34 11 -85 31 -113 44 -29 13 -66 27
-82 31 -17 4 -39 13 -50 20 -11 7 -54 22 -95 34 -41 12 -82 28 -91 36 -9 8
-54 26 -100 40 -46 15 -95 32 -109 39 -39 20 -190 75 -205 75 -25 0 -216 122
-249 159 -22 25 -69 27 -106 6z m275 -219 c50 -19 144 -54 210 -79 66 -25 140
-51 165 -57 25 -7 67 -23 93 -36 27 -13 53 -24 58 -24 6 0 29 -9 53 -19 79
-36 147 -61 167 -61 11 0 46 -12 77 -26 31 -15 75 -33 97 -41 22 -7 49 -20 61
-28 25 -16 206 -89 247 -99 16 -4 65 -25 110 -46 45 -22 89 -40 97 -40 8 0 44
-11 80 -24 202 -76 287 -108 305 -116 133 -61 178 -79 216 -85 24 -4 67 -18
94 -30 107 -49 153 -68 220 -90 39 -13 84 -30 100 -39 17 -9 36 -16 42 -16 7
0 42 -14 78 -32 62 -31 65 -34 65 -69 0 -38 -16 -94 -34 -118 -6 -7 -31 -35
-56 -60 -25 -26 -61 -67 -80 -91 -62 -78 -92 -101 -120 -95 -14 4 -76 46 -138
93 -63 48 -144 107 -180 132 -37 25 -82 60 -101 77 -19 17 -45 34 -59 38 -14
3 -61 33 -104 65 -43 33 -111 79 -150 102 -40 24 -88 53 -107 66 -20 12 -65
36 -101 54 -36 17 -74 39 -85 48 -21 18 -158 89 -365 189 -119 57 -203 90
-420 167 -113 39 -343 99 -420 108 -30 4 -89 13 -130 21 -135 26 -377 55 -457
55 -110 0 -214 11 -210 23 1 5 26 21 54 36 29 15 69 41 90 57 59 45 187 106
192 91 9 -26 76 -77 100 -77 41 0 104 42 120 78 8 17 19 32 25 32 6 0 52 -15
101 -34z m-4971 -32 c74 -35 80 -43 59 -85 -21 -43 -48 -79 -73 -96 -17 -12
-24 -11 -54 9 -20 13 -37 28 -39 33 -4 11 41 165 48 165 2 0 29 -12 59 -26z
m187 -120 c18 -10 42 -30 53 -43 21 -25 162 -121 179 -121 5 0 26 -15 47 -32
20 -18 45 -38 56 -45 18 -10 18 -12 2 -29 -14 -14 -21 -16 -40 -6 -54 28 -86
50 -128 90 -25 23 -50 42 -55 42 -6 0 -29 18 -50 41 -36 37 -60 53 -135 91
-34 16 -33 15 -26 27 10 15 57 7 97 -15z m-350 -247 c19 -12 33 -27 32 -32 -4
-22 -31 -14 -68 19 -34 30 -37 35 -19 36 12 0 36 -10 55 -23z m-55 -103 c47
-23 46 -30 -30 -169 -9 -16 -16 -38 -16 -48 0 -10 -19 -43 -42 -72 -45 -58
-53 -59 -102 -14 -11 11 -24 19 -29 19 -15 0 0 100 18 120 8 9 15 22 15 28 0
7 4 12 9 12 5 0 24 24 42 53 60 96 71 101 135 71z m899 -34 c-6 -9 -9 -9 -16
1 -10 17 0 34 13 21 6 -6 7 -16 3 -22z m1407 -6 c93 -40 98 -47 64 -83 -16
-16 -50 -39 -77 -50 -26 -12 -50 -25 -53 -30 -4 -5 -28 -15 -56 -22 -27 -7
-52 -20 -55 -28 -6 -17 -186 -121 -209 -121 -7 0 -31 -14 -52 -31 -22 -17 -57
-40 -79 -50 -46 -23 -64 -17 -128 39 -21 18 -49 37 -63 42 -35 14 -31 46 8 66
18 9 69 52 114 95 46 44 88 79 95 79 7 0 33 22 58 48 l46 48 80 -6 c71 -6 86
-4 130 17 59 28 89 25 177 -13z m-1141 -171 c18 -18 20 -25 9 -38 -20 -25 -38
-18 -108 43 -37 31 -78 64 -90 72 -20 13 -22 19 -13 43 l11 27 85 -62 c47 -34
95 -72 106 -85z m-606 93 c25 -11 35 -11 39 -3 2 7 5 2 5 -9 1 -26 -21 -48
-35 -34 -13 13 -54 1 -54 -16 0 -8 5 -14 11 -14 18 0 39 -28 33 -44 -5 -14 -9
-14 -33 -1 -44 22 -53 39 -40 68 7 17 17 23 27 20 12 -5 14 -1 8 20 -7 31 -6
32 39 13z m764 -200 c21 -14 49 -39 61 -56 l22 -30 -32 -68 c-28 -59 -83 -132
-100 -132 -4 0 -27 19 -53 43 -50 46 -54 70 -16 112 9 11 20 36 24 56 6 35 39
99 50 99 3 0 23 -11 44 -24z m-1537 -38 c13 -13 28 -22 35 -20 7 1 17 -7 23
-19 11 -20 10 -21 -22 -14 l-33 7 50 -51 c27 -28 54 -51 60 -51 6 0 26 -16 45
-35 19 -20 57 -49 85 -64 27 -16 79 -54 115 -85 36 -30 76 -58 89 -61 13 -3
49 -27 80 -53 62 -53 87 -71 211 -153 48 -32 92 -64 99 -73 7 -8 32 -25 57
-36 24 -12 65 -41 91 -64 51 -45 159 -121 207 -146 16 -8 50 -33 75 -55 25
-23 75 -56 111 -75 36 -18 97 -59 135 -90 39 -30 105 -82 148 -113 42 -31 89
-67 103 -80 14 -12 47 -33 74 -47 57 -29 175 -119 243 -184 26 -25 54 -46 62
-46 22 0 96 31 128 52 22 16 27 27 27 62 0 30 6 48 20 61 24 22 26 35 5 35 -8
0 -15 8 -15 18 0 18 81 177 100 196 6 6 10 22 10 36 0 14 20 60 45 102 25 43
45 80 45 84 0 4 11 22 25 40 14 18 25 35 25 38 0 2 5 17 12 33 6 15 12 30 13
33 9 27 25 59 33 64 5 3 32 -9 60 -27 55 -33 64 -55 38 -92 -21 -32 -66 -115
-61 -115 2 0 -11 -28 -29 -62 -19 -35 -37 -79 -41 -98 -4 -19 -11 -39 -15 -45
-5 -5 -18 -39 -30 -75 -13 -36 -30 -73 -39 -84 -18 -21 -84 -53 -121 -58 l-25
-4 28 -14 c42 -21 36 -52 -16 -80 -34 -18 -46 -31 -56 -63 -6 -22 -21 -51 -32
-65 -28 -37 -24 -47 34 -81 28 -16 72 -49 97 -71 25 -23 65 -51 89 -63 24 -12
51 -31 60 -42 17 -21 105 -90 156 -121 41 -25 102 -72 151 -115 23 -20 55 -40
72 -43 35 -8 72 -44 55 -54 -23 -15 -72 -104 -65 -120 5 -15 2 -15 -23 2 -17
10 -43 31 -60 47 -16 15 -47 42 -67 59 -21 17 -36 36 -35 42 1 6 -14 15 -33
20 -41 12 -121 67 -171 120 -20 21 -43 38 -52 38 -9 0 -45 26 -80 58 -77 69
-180 126 -213 118 -20 -5 -65 -66 -49 -66 3 0 -11 -30 -30 -67 -19 -36 -40
-82 -46 -102 -15 -45 -58 -121 -69 -121 -5 0 -25 15 -44 34 -34 32 -35 35 -24
67 6 19 20 48 29 64 10 17 25 45 33 63 8 17 21 32 29 32 8 0 19 11 25 25 15
32 15 38 2 30 -15 -9 -12 8 5 31 33 43 10 164 -32 164 -18 0 -68 33 -104 69
-34 35 -56 52 -104 81 -22 13 -62 43 -88 66 -26 24 -78 63 -115 88 -37 24 -89
63 -117 85 -27 22 -79 60 -115 84 -36 24 -86 63 -113 87 -46 42 -149 110 -167
110 -13 0 -60 -52 -60 -67 0 -6 -6 -24 -14 -40 -23 -44 -46 -132 -46 -172 0
-20 -7 -49 -16 -66 -9 -16 -27 -50 -39 -75 -33 -66 -47 -75 -72 -47 -11 12
-29 39 -41 60 -20 35 -21 40 -7 67 8 16 15 38 15 50 0 17 43 109 135 290 29
57 35 100 15 111 -8 4 -33 15 -55 25 -22 9 -60 34 -85 55 -51 42 -115 89 -210
153 -36 24 -78 55 -95 70 -16 14 -48 36 -70 47 -22 12 -59 37 -83 58 -24 20
-78 59 -121 86 -66 42 -138 95 -200 146 -34 30 -105 58 -117 48 -17 -14 -41
-5 -82 30 l-33 28 26 54 c13 30 25 60 25 67 0 7 7 24 16 37 22 34 84 35 116 3z
m418 -80 c0 -16 -2 -16 -20 2 -11 11 -20 25 -20 30 0 6 8 5 20 -2 11 -7 20
-21 20 -30z m1388 -86 c31 -27 77 -59 102 -71 63 -30 170 -111 170 -129 0 -17
-47 -82 -59 -82 -7 0 -70 82 -81 105 -3 6 -18 30 -35 53 -25 35 -36 42 -64 42
-35 0 -95 -31 -104 -54 -3 -7 -1 -19 4 -27 5 -8 8 -23 8 -34 0 -11 -3 -14 -6
-7 -3 7 -23 12 -49 12 -24 0 -44 5 -44 10 0 6 7 10 15 10 19 0 19 5 0 34 -14
22 -14 27 10 67 13 24 33 61 42 81 10 21 22 38 26 38 5 0 34 -22 65 -48z
m-373 -64 l46 -43 -24 -70 c-29 -84 -67 -161 -136 -274 -28 -46 -51 -89 -51
-95 0 -6 -9 -22 -19 -35 l-18 -23 -40 20 c-47 24 -69 47 -53 57 5 3 10 18 11
33 0 15 13 50 29 77 16 28 34 61 41 75 6 14 26 54 44 90 18 36 38 82 45 104 7
21 23 54 36 74 13 19 24 39 24 43 0 18 19 8 65 -33z m-1604 -45 c48 -35 52
-46 34 -89 -16 -38 -45 -45 -94 -20 -50 26 -54 39 -30 90 11 25 28 46 36 46 8
0 32 -12 54 -27z m8481 -120 c14 -21 56 -72 93 -113 37 -41 74 -88 82 -105 9
-16 41 -59 73 -95 31 -36 65 -80 74 -99 10 -18 43 -61 75 -95 31 -33 67 -78
80 -98 12 -21 26 -38 30 -38 4 0 45 -50 92 -111 46 -62 105 -135 130 -163 25
-28 59 -71 76 -96 17 -25 56 -72 88 -105 31 -33 51 -61 45 -63 -6 -2 -36 12
-65 32 -30 20 -57 36 -61 36 -7 0 -115 82 -166 127 -21 18 -52 39 -70 46 -18
8 -62 38 -98 66 -36 29 -78 60 -95 68 -16 9 -69 47 -116 84 -48 38 -91 69 -96
69 -9 0 -57 33 -149 102 -28 21 -72 49 -99 64 -27 14 -70 45 -96 68 -27 24
-68 53 -91 64 -32 15 -167 100 -185 116 -1 1 53 59 120 129 l122 127 90 9 c50
4 91 9 91 10 1 0 13 -16 26 -36z m-6105 -49 c36 -27 44 -48 15 -36 -22 9 -72
47 -72 56 0 13 25 5 57 -20z m-213 -20 c4 -10 1 -14 -6 -12 -15 5 -23 28 -10
28 5 0 13 -7 16 -16z m-1107 -26 c-3 -7 -5 -2 -5 12 0 14 2 19 5 13 2 -7 2
-19 0 -25z m1398 -26 c-3 -3 -11 0 -18 7 -9 10 -8 11 6 5 10 -3 15 -9 12 -12z
m-575 -43 c19 -17 29 -28 23 -24 -7 3 -13 3 -13 -2 0 -4 -14 -16 -30 -25 l-30
-17 0 49 c0 28 4 50 8 50 4 0 23 -14 42 -31z m625 20 c11 -17 -1 -21 -15 -4
-8 9 -8 15 -2 15 6 0 14 -5 17 -11z m83 -58 c20 -10 45 -28 55 -39 16 -17 16
-20 1 -32 -20 -17 -36 -8 -82 48 -38 46 -31 52 26 23z m5296 10 c-2 -2 2 -11
9 -19 9 -12 9 -16 0 -19 -7 -3 -21 -19 -33 -38 -14 -23 -30 -35 -55 -39 -57
-11 -99 -42 -119 -87 -20 -45 -28 -43 -45 12 -14 44 -5 73 41 124 40 47 97 72
159 71 26 -1 45 -3 43 -5z m-5876 -79 c2 -7 -3 -12 -12 -12 -9 0 -16 7 -16 16
0 17 22 14 28 -4z m6038 -72 c5 0 41 -25 79 -56 39 -30 96 -71 128 -90 32 -19
90 -58 130 -87 40 -29 90 -64 112 -77 22 -13 69 -46 105 -74 36 -29 76 -56 90
-63 14 -6 53 -33 88 -61 34 -28 84 -61 110 -73 26 -12 67 -39 92 -59 25 -20
62 -47 83 -59 20 -12 37 -26 37 -31 0 -4 21 -18 47 -30 26 -12 71 -44 101 -70
30 -27 80 -62 112 -79 31 -17 63 -38 70 -47 18 -20 64 -44 88 -44 11 0 25 -7
32 -15 11 -13 9 -20 -10 -40 -29 -31 -37 -99 -17 -146 15 -37 78 -79 116 -79
11 0 26 -3 35 -6 17 -7 69 -103 106 -199 13 -33 31 -71 40 -85 17 -25 65 -117
102 -195 10 -22 30 -60 44 -85 13 -25 43 -82 66 -127 l42 -82 -18 -53 c-11
-29 -27 -65 -37 -79 -10 -14 -43 -81 -74 -150 -31 -68 -83 -179 -116 -245 -32
-67 -69 -150 -83 -185 -13 -35 -49 -113 -80 -173 -30 -60 -61 -125 -67 -145
-6 -20 -42 -99 -79 -176 -38 -77 -74 -158 -81 -180 -6 -22 -35 -85 -62 -140
-32 -64 -56 -129 -67 -180 l-16 -80 -45 -1 c-48 -1 -89 -18 -89 -36 0 -18 -43
-98 -53 -98 -12 0 -54 31 -119 86 -28 24 -57 44 -63 44 -6 0 -21 7 -33 16 -18
12 -20 18 -9 28 7 8 19 51 26 97 7 46 19 109 26 139 40 159 50 298 49 660 0
329 -2 369 -27 540 -31 218 -49 316 -77 425 -12 44 -27 103 -34 132 -8 28 -21
73 -29 100 -8 26 -18 66 -22 88 -4 22 -13 54 -20 70 -8 17 -32 78 -53 136 -22
58 -47 120 -56 137 -9 18 -31 72 -47 120 -17 48 -40 99 -50 114 -11 14 -19 30
-19 36 0 5 -12 27 -26 48 -15 21 -37 68 -50 104 -13 36 -33 77 -44 92 -11 15
-20 30 -20 33 0 3 -18 32 -39 64 -22 31 -46 73 -54 92 -12 30 -132 216 -183
284 -57 77 -97 125 -103 125 -5 0 -22 31 -40 69 -18 38 -37 72 -44 74 -8 3 -1
16 17 36 l30 31 21 -20 c12 -11 26 -20 31 -20z m-6074 -52 c-7 -7 -12 -8 -12
-2 0 14 12 26 19 19 2 -3 -1 -11 -7 -17z m-1852 -28 c0 -5 -5 -10 -11 -10 -5
0 -7 5 -4 10 3 6 8 10 11 10 2 0 4 -4 4 -10z m5822 -97 c77 -66 206 -182 472
-424 27 -24 84 -78 127 -119 43 -41 97 -93 121 -115 24 -23 55 -55 70 -73 15
-17 46 -43 68 -58 43 -29 45 -44 14 -106 -8 -15 -12 -33 -10 -40 2 -7 7 -25
10 -39 5 -24 9 -26 66 -24 40 1 66 7 78 19 26 22 40 14 87 -49 22 -30 51 -60
63 -67 13 -7 46 -40 73 -75 28 -34 72 -78 100 -99 27 -20 56 -48 64 -63 7 -15
44 -54 80 -86 37 -32 78 -76 92 -99 14 -22 50 -62 80 -89 30 -28 60 -62 67
-76 8 -14 47 -60 87 -102 86 -87 229 -263 229 -280 0 -9 -44 -10 -172 -5 -95
3 -252 9 -348 12 -163 5 -178 7 -212 30 -21 13 -45 36 -55 51 -10 15 -34 41
-53 58 -19 16 -68 63 -109 103 -41 39 -80 72 -86 72 -6 0 -37 27 -68 59 -31
33 -77 72 -101 86 -46 27 -86 78 -86 109 0 9 22 49 49 89 55 80 111 192 111
220 0 10 4 26 9 35 5 9 12 43 15 75 7 56 7 57 -17 57 -14 0 -30 -7 -37 -15
-10 -12 -15 -12 -36 2 -29 18 -32 59 -6 80 15 13 13 14 -20 9 -28 -3 -44 1
-63 16 l-27 21 -39 -22 c-21 -12 -39 -20 -39 -17 0 5 -87 -46 -126 -74 -12 -8
-24 -26 -28 -40 -7 -23 -6 -22 15 7 25 33 59 59 59 45 0 -15 -110 -112 -111
-99 0 7 0 31 1 55 1 36 -3 47 -29 69 -17 15 -31 33 -31 39 0 6 -9 14 -20 17
-11 3 -28 19 -37 35 -9 16 -25 35 -36 41 -16 11 -17 10 -7 -9 17 -32 -5 -24
-37 14 -28 34 -89 66 -124 66 -21 0 -37 26 -43 67 -3 15 -7 37 -10 48 -3 11
-13 49 -22 85 -9 36 -21 73 -25 82 -5 10 -9 29 -9 42 0 14 -4 27 -9 31 -6 3
-10 13 -10 23 -1 30 -32 175 -52 238 -10 34 -19 73 -19 87 0 15 -9 49 -20 77
-20 52 -24 70 -15 70 3 0 47 -35 97 -77z m-4192 -2 c0 -5 -7 -14 -15 -21 -16
-14 -18 -10 -9 14 6 17 24 22 24 7z m1365 -112 c22 -12 52 -29 67 -36 15 -8
30 -18 33 -23 7 -11 112 -83 151 -103 37 -19 180 -137 199 -164 8 -12 10 -25
5 -33 -8 -12 -14 -13 -42 -2 -18 7 -44 15 -56 18 -30 6 -82 44 -82 60 0 7 -19
26 -42 44 -39 28 -44 29 -49 13 -9 -32 -38 -87 -56 -110 -15 -18 -21 -20 -34
-10 -15 12 -22 87 -8 87 4 0 9 8 13 18 3 9 11 25 18 34 11 15 7 23 -27 58 -43
45 -55 49 -55 21 0 -10 -8 -21 -19 -24 -19 -5 -57 38 -110 126 -12 20 -29 37
-36 37 -22 0 -29 22 -12 35 10 7 17 17 17 23 0 6 19 -2 43 -17 23 -16 60 -39
82 -52z m-1321 -10 c-3 -6 2 -20 13 -31 l18 -21 -33 19 c-19 10 -39 25 -45 33
-10 11 -8 13 11 7 14 -5 22 -3 22 4 0 6 5 8 10 5 6 -4 8 -11 4 -16z m301 -49
c0 -32 -1 -33 -48 -34 -40 -1 -45 1 -30 12 12 9 13 12 3 12 -17 0 -3 16 32 35
33 18 43 13 43 -25z m-1350 -148 c-13 -2 -34 -16 -45 -33 -19 -26 -23 -27 -36
-14 -12 12 -13 19 -3 37 7 13 18 27 25 31 8 4 14 15 14 23 0 11 10 7 35 -13
35 -28 35 -28 10 -31z m1268 38 c7 0 7 -4 -2 -9 -16 -10 -41 -4 -41 11 0 6 7
7 16 4 9 -3 21 -6 27 -6z m1042 -22 c39 -26 41 -30 20 -48 -8 -7 -15 -18 -15
-24 0 -6 -7 -19 -14 -29 -13 -17 -16 -17 -45 -2 -34 17 -40 45 -19 90 8 18 14
22 20 13 6 -10 8 -8 8 5 0 22 3 22 45 -5z m-2988 -58 c12 -17 11 -18 -9 -11
-25 9 -36 31 -16 31 7 0 19 -9 25 -20z m458 -94 c-7 -40 -10 -41 -34 -17 -23
23 -43 89 -23 77 6 -3 14 -1 18 5 13 21 45 -32 39 -65z m841 48 c-3 -8 0 -13
6 -11 7 1 12 -2 13 -8 0 -5 6 -20 13 -32 8 -15 9 -23 2 -23 -16 0 -12 -18 10
-40 l20 -20 -25 -28 c-14 -15 -25 -30 -25 -34 0 -5 -5 -8 -11 -8 -7 0 -9 10
-5 26 6 21 3 27 -14 31 -16 4 -20 11 -16 27 3 11 6 49 6 83 0 52 3 61 16 56 8
-3 13 -12 10 -19z m1844 -87 c0 -29 -52 -137 -67 -137 -7 0 -13 -9 -13 -20 0
-11 -7 -23 -16 -27 -10 -4 -12 -8 -5 -12 8 -5 7 -13 -3 -26 -13 -18 -14 -17
-40 8 -15 15 -31 27 -36 27 -17 0 -11 14 17 40 21 20 23 26 10 28 -14 3 -11
13 15 63 17 32 34 59 38 59 3 0 15 -7 26 -15 26 -20 33 -19 27 5 -3 11 -3 27
1 35 5 13 9 13 26 3 11 -7 20 -21 20 -31z m-1729 -25 c-7 -2 -18 1 -23 6 -8 8
-4 9 13 5 13 -4 18 -8 10 -11z m-861 4 c0 -3 -4 -8 -10 -11 -5 -3 -10 -1 -10
4 0 6 5 11 10 11 6 0 10 -2 10 -4z m724 -67 c-3 -5 -10 -7 -15 -3 -5 3 -7 10
-3 15 3 5 10 7 15 3 5 -3 7 -10 3 -15z m-377 -52 c3 -16 12 -31 19 -34 22 -8
16 -26 -18 -55 -25 -21 -29 -28 -15 -28 15 0 16 -3 5 -22 -7 -13 -19 -31 -27
-40 -8 -10 -11 -18 -7 -18 4 0 2 -9 -4 -21 -9 -16 -14 -18 -26 -8 -9 7 -14 8
-14 1 0 -6 5 -12 10 -14 12 -4 -16 -94 -31 -104 -5 -3 -9 -20 -10 -37 0 -18
-4 -40 -7 -50 -7 -16 -10 -16 -47 4 -55 29 -77 52 -69 72 3 9 12 17 20 17 8 0
14 9 14 19 0 11 4 22 9 25 5 3 20 30 34 59 20 39 26 67 25 107 0 47 5 65 38
121 l38 66 28 -16 c18 -10 31 -27 35 -44z m509 53 c37 -15 124 -71 124 -82 0
-15 -44 -8 -73 11 -27 17 -75 18 -87 1 -3 -4 -15 -4 -28 1 -34 13 -13 48 25
43 15 -2 20 -1 11 2 -19 6 -25 34 -9 34 5 0 22 -5 37 -10z m1444 0 c0 -5 -2
-10 -4 -10 -3 0 -8 5 -11 10 -3 6 -1 10 4 10 6 0 11 -4 11 -10z m714 -11 c20
-16 30 -19 38 -11 8 8 18 7 37 -3 14 -7 35 -16 45 -19 18 -6 18 -8 -5 -32 -13
-14 -23 -28 -21 -30 5 -6 -21 -64 -28 -64 -4 0 -22 12 -41 26 -19 14 -45 30
-58 35 -20 8 -22 14 -17 40 3 18 6 42 6 55 0 30 10 30 44 3z m-768 -44 c9 -14
14 -28 11 -31 -3 -3 -8 4 -12 16 -5 17 -10 19 -21 9 -20 -16 -18 -43 2 -35 12
5 15 1 10 -22 -3 -15 -8 -47 -12 -72 -6 -40 -17 -59 -35 -60 -10 0 -8 54 2 66
6 8 3 13 -10 17 -16 4 -19 11 -16 38 5 41 35 99 52 99 7 0 20 -11 29 -25z
m-2430 -11 c-8 -21 -49 -73 -58 -73 -15 -2 -8 32 10 45 9 7 18 17 18 23 2 20
4 21 20 21 11 0 14 -5 10 -16z m3030 -21 c-10 -10 -19 5 -10 18 6 11 8 11 12
0 2 -7 1 -15 -2 -18z m-446 -42 c0 -4 11 -20 25 -35 21 -23 23 -30 13 -54 -6
-15 -14 -36 -18 -47 -23 -61 -31 -77 -38 -70 -4 3 -7 10 -7 13 1 9 -46 48 -62
53 -9 3 -9 10 2 29 8 14 20 36 27 50 7 14 18 28 25 33 7 4 10 14 7 22 -4 9 0
15 10 15 9 0 16 -4 16 -9z m6563 -114 c-3 -6 -17 3 -30 19 -33 41 -29 53 7 19
16 -15 26 -33 23 -38z m-6227 10 c11 -7 35 -29 53 -49 l33 -38 -22 -30 c-12
-16 -25 -30 -30 -30 -15 0 -80 48 -101 74 l-20 25 22 31 c25 33 34 35 65 17z
m2742 -59 c33 -29 80 -69 104 -89 24 -20 40 -40 36 -45 -5 -4 -17 1 -28 11
-11 10 -20 15 -20 11 0 -4 -12 1 -27 12 -16 10 -43 24 -62 31 -34 11 -99 55
-113 75 -14 20 -8 35 15 39 12 2 25 5 28 6 4 0 34 -23 67 -51z m-2815 -90 c34
-34 62 -98 50 -117 -19 -30 -61 -25 -93 9 -17 18 -30 39 -30 47 0 15 37 83 45
83 2 0 15 -10 28 -22z m2580 -35 c23 -14 50 -35 60 -46 19 -22 23 -57 6 -57
-35 0 -135 91 -125 115 7 20 9 19 59 -12z m-4039 -55 c17 -15 27 -28 23 -29
-42 -7 -52 -2 -55 24 -2 15 -7 25 -12 22 -4 -3 -6 5 -2 17 4 15 7 18 10 8 3
-7 19 -26 36 -42z m4883 12 c25 -22 52 -40 59 -40 20 0 17 -14 -16 -70 -16
-28 -30 -54 -30 -59 0 -4 -20 -36 -45 -72 -25 -35 -45 -69 -45 -75 0 -11 -50
-27 -58 -19 -2 2 1 12 7 23 9 17 7 21 -14 26 -13 3 -41 21 -61 40 -41 37 -40
53 2 116 23 33 145 170 152 170 2 0 24 -18 49 -40z m-552 -5 c53 -22 191 -165
160 -165 -3 0 -26 19 -51 42 -25 23 -74 56 -107 73 -90 44 -90 88 -2 50z
m-5087 -45 c4 0 32 -23 62 -51 30 -28 73 -64 97 -80 23 -16 45 -34 48 -39 6
-10 -23 -60 -35 -60 -5 0 -32 19 -62 43 -29 24 -69 53 -88 64 -19 12 -50 37
-68 56 -30 31 -32 38 -26 75 l7 42 29 -25 c16 -14 33 -25 36 -25z m4715 -79
c61 -63 65 -71 43 -71 -19 0 -126 98 -126 116 0 28 28 13 83 -45z m292 -25
c26 -30 57 -57 69 -60 12 -3 53 -35 91 -70 38 -36 92 -77 119 -91 74 -37 160
-103 201 -155 32 -42 63 -116 52 -127 -7 -7 -45 15 -91 51 -22 17 -54 40 -72
51 -18 11 -55 49 -84 84 -28 36 -61 71 -73 80 -12 8 -54 45 -93 83 -38 38 -83
77 -100 88 -16 10 -47 35 -68 54 -34 29 -38 36 -27 50 8 9 17 16 21 16 4 0 28
-24 55 -54z m-4462 7 c9 -2 17 -13 17 -23 0 -10 9 -22 20 -25 25 -8 37 -50 20
-71 -17 -20 -98 -9 -122 17 -10 10 -25 22 -34 27 -11 6 -14 16 -9 30 14 46 48
60 108 45z m484 -82 c34 -28 37 -62 13 -120 -13 -28 -27 -51 -33 -51 -19 0
-77 42 -77 56 0 8 11 36 25 62 14 26 25 53 25 59 0 18 21 15 47 -6z m3890 -73
c107 -88 139 -118 126 -118 -7 0 -15 5 -18 10 -4 6 -25 20 -48 31 -59 30 -109
72 -130 108 -10 17 -16 31 -12 31 3 0 40 -28 82 -62z m-2803 5 c-16 -66 -74
-134 -74 -88 0 13 69 115 77 115 2 0 0 -12 -3 -27z m106 -33 c14 -11 28 -20
33 -20 4 0 25 -11 46 -24 l39 -25 -24 -47 c-13 -26 -24 -52 -24 -58 0 -6 -14
-28 -31 -49 -34 -42 -38 -41 -96 14 -60 57 -69 79 -47 125 26 57 58 104 69
104 6 0 21 -9 35 -20z m-904 -56 c22 -17 34 -35 34 -51 0 -29 -24 -88 -40 -98
-10 -6 -84 37 -96 57 -8 12 43 118 56 118 6 0 27 -12 46 -26z m-360 -50 c40
-31 42 -51 11 -102 -13 -20 -31 -58 -40 -83 -10 -26 -26 -54 -37 -64 -10 -9
-26 -41 -36 -71 l-17 -54 -46 37 c-25 20 -50 40 -55 44 -5 5 2 25 17 48 15 22
27 44 27 47 0 4 11 21 23 38 13 17 40 66 61 109 20 42 41 77 47 77 6 0 26 -12
45 -26z m3252 -86 c129 -87 182 -135 175 -157 -3 -9 -27 -41 -53 -71 -58 -68
-117 -153 -126 -183 -4 -12 -25 -46 -47 -75 -21 -30 -53 -84 -69 -120 -17 -36
-41 -80 -54 -97 -13 -18 -24 -35 -24 -39 0 -4 -11 -22 -25 -40 -14 -18 -25
-40 -25 -48 0 -16 113 -121 217 -202 34 -26 64 -53 66 -60 3 -6 24 -25 48 -41
24 -16 69 -52 99 -81 31 -28 74 -61 96 -72 23 -12 63 -45 90 -74 50 -54 143
-128 162 -128 10 0 64 90 104 173 10 21 50 85 88 143 38 58 74 122 81 143 7
20 25 51 40 69 41 47 38 73 -13 108 -24 16 -59 36 -78 45 -19 9 -60 36 -90 60
-59 47 -81 62 -119 79 -34 15 -111 72 -111 82 0 4 8 8 18 8 10 0 26 16 37 36
19 36 19 36 0 50 -27 20 -36 18 -79 -18 -26 -21 -42 -29 -51 -22 -7 5 -57 39
-111 76 -55 37 -110 77 -123 88 l-24 21 20 27 c11 15 29 45 41 67 11 22 29 48
40 58 20 18 21 18 59 -6 21 -14 52 -40 69 -60 17 -19 57 -52 90 -72 32 -21 64
-43 69 -49 6 -7 71 -61 145 -121 74 -60 148 -121 164 -137 17 -15 35 -28 41
-28 7 0 47 -34 90 -75 43 -41 82 -75 87 -75 12 0 87 -70 99 -92 12 -22 4 -38
-64 -127 -29 -37 -68 -94 -87 -125 -19 -32 -57 -88 -83 -124 -26 -37 -61 -94
-76 -127 -16 -34 -37 -67 -46 -75 -9 -7 -25 -30 -35 -50 -11 -21 -31 -51 -45
-68 -15 -17 -40 -59 -56 -92 -17 -33 -41 -68 -54 -78 -12 -10 -33 -43 -46 -73
-13 -30 -43 -80 -66 -113 -24 -32 -43 -62 -43 -66 0 -5 -12 -23 -26 -40 -15
-17 -41 -59 -59 -93 -18 -34 -49 -91 -70 -127 -21 -36 -44 -77 -52 -92 -8 -16
-18 -28 -21 -28 -16 0 -115 72 -140 101 -14 18 -50 47 -79 66 -29 19 -59 43
-66 54 -6 11 -46 46 -87 78 -115 90 -116 91 -97 148 63 186 63 188 90 191 20
3 39 -11 94 -68 37 -39 80 -78 96 -86 15 -8 48 -34 74 -57 115 -104 120 -114
79 -159 -25 -26 -24 -38 0 -38 7 0 16 9 19 20 3 11 12 20 18 20 7 1 24 11 39
23 l28 23 -74 74 c-40 41 -86 87 -102 101 -16 15 -53 52 -82 83 -42 44 -65 59
-107 71 -62 18 -78 34 -70 67 5 20 1 26 -27 36 -18 7 -52 29 -75 49 -22 21
-54 49 -70 62 -15 14 -56 49 -91 79 -35 31 -72 56 -83 57 -11 1 -39 20 -62 42
-38 37 -97 62 -97 42 0 -13 102 -120 134 -139 16 -10 61 -49 101 -87 39 -37
91 -81 114 -98 23 -16 53 -44 66 -61 l24 -31 -22 -44 c-35 -70 -77 -168 -77
-179 0 -23 -32 -7 -87 43 -32 29 -101 89 -153 132 -132 108 -194 164 -316 282
-120 115 -118 108 -54 203 20 30 42 69 49 86 6 17 34 57 61 90 27 32 50 62 50
66 0 8 39 69 75 118 14 19 51 68 81 108 30 41 54 80 54 87 0 7 19 37 43 66 51
63 85 113 111 159 10 19 24 40 30 45 7 6 52 71 100 145 49 74 101 147 115 161
14 15 37 48 51 75 26 50 80 134 87 134 3 0 25 -14 51 -32z m-2708 -13 c29 -19
56 -35 62 -35 13 0 -1 -42 -18 -56 -18 -15 -18 -24 1 -24 19 0 19 -13 0 -51
l-16 -29 -29 22 c-17 12 -30 27 -30 33 0 7 -11 17 -25 23 -14 6 -25 16 -25 22
0 5 -4 10 -10 10 -5 0 -10 -7 -10 -15 0 -19 -14 -19 -30 0 -10 13 -10 19 4 33
9 10 16 23 16 28 0 15 39 74 49 74 5 0 32 -16 61 -35z m3342 -15 c82 -40 150
-52 163 -29 14 21 50 26 88 13 35 -12 43 -12 84 7 28 13 55 18 72 14 27 -6
101 -60 91 -67 -13 -8 -257 -88 -271 -88 -9 0 -22 7 -30 16 -19 23 -63 43
-119 54 -55 10 -47 13 -199 -63 l-74 -37 -23 21 -22 21 31 61 c21 41 46 71 72
89 22 15 43 27 47 28 5 0 45 -18 90 -40z m-2272 -13 c30 -18 56 -40 58 -48 1
-8 -11 -25 -27 -37 l-31 -22 -44 21 c-65 30 -79 48 -65 87 14 42 38 41 109 -1z
m-395 -33 c33 -21 32 -32 -10 -101 -19 -32 -35 -64 -35 -71 0 -24 -50 -120
-65 -126 -9 -3 -20 -17 -25 -31 -5 -14 -17 -25 -25 -25 -26 0 -55 19 -55 36 0
18 93 195 125 239 13 17 30 45 39 63 19 37 19 37 51 16z m-455 2 c0 -3 -4 -8
-10 -11 -5 -3 -10 -1 -10 4 0 6 5 11 10 11 6 0 10 -2 10 -4z m-120 -30 c0 -16
-18 -31 -27 -22 -8 8 5 36 17 36 5 0 10 -6 10 -14z m3980 -19 c0 -5 -4 -5 -10
-2 -5 3 -10 14 -10 23 0 15 2 15 10 2 5 -8 10 -19 10 -23z m-2909 -5 c13 -10
41 -27 62 -37 52 -27 167 -125 167 -142 0 -7 -12 -18 -26 -23 -23 -9 -37 -9
-100 4 -41 8 -139 84 -156 120 -15 30 -15 36 -2 46 7 7 14 21 14 31 0 24 11
24 41 1z m2689 -46 c0 -14 -4 -28 -10 -31 -5 -3 -10 -21 -10 -40 l0 -33 42 5
41 6 -7 -42 c-3 -23 -13 -61 -22 -84 -14 -41 -19 -58 -28 -94 -2 -10 -9 -31
-15 -47 -6 -16 -16 -49 -22 -74 -9 -41 -63 -132 -79 -132 -3 0 -21 13 -39 30
-19 16 -52 41 -75 56 -46 31 -116 94 -116 105 0 4 18 29 40 54 22 25 43 58 46
73 4 15 11 32 15 38 6 7 2 21 -10 35 -11 15 -20 47 -23 89 l-5 66 106 21 c58
11 121 21 139 22 28 1 32 -2 32 -23z m-3707 -50 c15 -3 27 -11 27 -16 0 -6 -3
-9 -7 -9 -21 3 -34 -2 -28 -11 4 -6 11 -7 17 -4 17 11 27 -17 15 -43 l-10 -23
-23 21 c-12 12 -20 27 -17 35 3 8 0 14 -7 14 -7 0 -10 7 -6 15 8 21 -11 19
-23 -2 -16 -29 -25 -6 -11 27 11 27 15 29 29 17 9 -8 28 -17 44 -21z m-167
-13 c-10 -10 -19 5 -10 18 6 11 8 11 12 0 2 -7 1 -15 -2 -18z m-10 -38 c13
-21 12 -28 -16 -86 -16 -35 -40 -77 -53 -93 l-23 -28 -36 24 c-52 35 -71 57
-64 71 35 66 76 117 95 117 10 0 24 6 30 14 15 18 49 9 67 -19z m-364 -58 c64
-29 112 -75 128 -122 19 -56 -17 -87 -54 -46 -9 10 -30 21 -45 24 -29 6 -109
56 -130 81 -9 11 -7 22 10 50 11 20 25 36 30 36 5 0 32 -11 61 -23z m498 -36
c15 -29 13 -31 -25 -31 -35 0 -40 5 -29 34 8 22 41 20 54 -3z m1391 -42 l31
-31 -35 -51 c-20 -29 -49 -67 -64 -85 l-28 -33 -27 26 c-16 14 -28 36 -28 48
0 23 95 157 110 157 5 0 23 -14 41 -31z m-1022 -149 c-15 -45 -29 -84 -33 -87
-8 -8 -103 -205 -122 -253 -13 -31 -22 -40 -40 -40 -13 0 -24 4 -24 9 0 5 -23
24 -50 42 -60 41 -73 74 -40 101 34 27 48 22 55 -19 12 -70 16 -70 51 2 19 39
34 76 34 83 0 15 89 200 120 250 l20 33 28 -20 29 -20 -28 -81z m2345 100 c16
-6 26 -17 26 -30 0 -14 32 -43 107 -97 58 -43 120 -90 136 -104 l31 -26 -41
-64 c-22 -35 -55 -93 -74 -129 -18 -36 -42 -74 -52 -85 -10 -11 -28 -37 -38
-58 -23 -43 -47 -57 -63 -36 -6 8 -68 61 -138 118 -70 56 -128 110 -130 119
-3 13 147 327 186 390 9 15 17 15 50 2z m-1199 -24 c18 -13 18 -15 -4 -57 -25
-48 -88 -119 -107 -119 -6 0 -17 7 -24 15 -11 13 -10 22 3 49 14 31 95 124
108 126 3 0 14 -6 24 -14z m-1665 -81 c19 -18 54 -43 78 -55 26 -14 48 -34 58
-56 9 -19 20 -34 25 -34 15 0 10 -18 -14 -46 -22 -26 -24 -26 -54 -11 -16 9
-57 38 -89 65 -32 27 -74 57 -91 67 -39 23 -39 24 -13 76 25 48 44 46 100 -6z
m1795 -4 c0 -29 -95 -161 -114 -158 -8 1 -18 9 -24 18 -13 20 21 94 63 140 36
37 75 38 75 0z m1520 -243 c19 -18 63 -55 99 -83 36 -27 65 -56 65 -62 1 -7
-15 -34 -35 -59 -19 -26 -44 -64 -54 -84 -27 -52 -151 -230 -161 -230 -14 0
-93 57 -124 90 -16 17 -47 41 -67 53 l-38 21 31 25 c31 27 45 48 78 117 10 23
34 63 53 90 18 27 39 58 46 69 7 11 22 35 33 53 12 17 25 32 30 32 5 0 25 -15
44 -32z m1745 -354 c22 -15 40 -31 40 -36 0 -4 -22 -36 -49 -71 -26 -34 -54
-80 -61 -102 -16 -50 -48 -105 -62 -105 -6 0 -27 15 -48 34 l-37 33 20 39 c11
21 34 56 52 76 17 21 45 64 61 97 16 33 32 61 37 61 4 0 25 -12 47 -26z m200
-434 c15 0 35 -9 45 -20 17 -19 17 -20 -1 -22 -10 0 -27 -1 -36 0 -12 1 -18
-5 -18 -19 0 -20 4 -21 38 -14 58 11 67 11 72 0 3 -5 -5 -11 -18 -13 -30 -4
-24 -21 17 -49 27 -18 37 -20 53 -12 16 9 24 7 41 -9 l20 -20 -22 -44 c-12
-23 -30 -54 -40 -68 l-19 -24 -45 39 c-45 40 -45 40 -46 109 -1 58 -3 67 -13
54 -20 -24 -45 -28 -62 -9 -17 19 -20 149 -2 131 6 -6 22 -10 36 -10z m-1675
-13 c25 -26 115 -136 115 -142 0 -3 45 -56 100 -118 55 -61 100 -119 100 -127
0 -9 6 -24 13 -35 18 -27 27 -65 16 -65 -6 0 -83 74 -172 165 -169 172 -166
169 -249 165 -43 -2 -49 13 -20 51 10 13 31 45 46 72 30 52 31 53 51 34z
m1473 -127 c12 -12 22 -23 22 -25 0 -12 -40 -3 -54 11 -35 35 -5 48 32 14z
m150 8 c19 -19 14 -30 -8 -18 -11 6 -20 15 -20 20 0 14 14 12 28 -2z m-3413
-35 c63 -20 173 -78 203 -108 12 -13 34 -26 48 -29 14 -4 43 -18 65 -32 21
-13 60 -31 86 -40 26 -9 56 -28 67 -43 27 -34 51 -56 119 -111 52 -41 69 -62
50 -59 -31 5 -15 -9 77 -70 58 -38 118 -82 133 -98 l28 -30 -38 -16 c-21 -9
-58 -21 -83 -28 -42 -10 -139 -51 -203 -86 -28 -15 -30 -14 -70 23 -23 22 -44
40 -46 42 -3 1 6 20 18 43 38 67 18 153 -65 286 -26 41 -41 54 -73 64 -23 7
-68 37 -108 72 -37 33 -90 71 -118 84 -27 13 -68 34 -90 46 -95 52 -161 60
-228 26 -23 -12 -44 -25 -47 -28 -10 -14 -70 -52 -70 -45 0 19 84 113 110 123
116 43 136 44 235 14z m3254 -35 c8 -21 8 -35 1 -42 -13 -13 -16 -8 -23 37 -7
45 7 49 22 5z m-90 -32 c-9 -8 -10 -7 -5 7 3 10 7 24 7 30 1 7 3 4 6 -7 3 -10
-1 -23 -8 -30z m231 -13 c61 -60 96 -90 124 -105 30 -16 37 -30 21 -48 -7 -8
-21 -34 -30 -57 -10 -24 -23 -43 -29 -43 -43 0 -161 90 -137 104 6 4 11 12 11
18 0 7 -5 6 -15 -2 -20 -16 -34 -5 -28 23 5 17 3 20 -7 10 -16 -15 -40 -6 -40
16 0 9 9 24 20 33 11 10 22 30 26 45 14 68 20 69 84 6z m-5192 27 c64 -6 135
-16 157 -22 22 -5 51 -12 65 -15 35 -7 40 -8 85 -21 22 -6 87 -23 144 -37 57
-14 120 -33 140 -42 84 -37 228 -105 246 -115 11 -7 32 -18 46 -25 15 -7 32
-20 39 -28 7 -8 17 -15 23 -15 6 0 33 -18 59 -41 27 -22 72 -49 100 -59 28
-10 58 -27 67 -38 9 -10 43 -38 76 -61 116 -80 160 -113 163 -122 2 -5 9 -9
15 -9 7 0 37 -23 67 -51 53 -49 115 -85 135 -80 6 1 -32 -38 -83 -88 -51 -50
-96 -91 -101 -91 -11 0 -62 44 -150 128 -35 34 -69 62 -75 62 -6 0 -50 31 -98
68 -113 87 -133 101 -237 167 -9 6 -43 29 -76 51 -33 23 -71 45 -85 49 -14 4
-45 19 -70 33 -93 52 -344 172 -360 172 -6 0 -18 4 -28 10 -31 18 -219 84
-337 119 -16 5 -61 14 -100 21 -63 10 -176 35 -215 47 -12 3 -11 6 5 15 49 28
194 35 383 18z m5017 -22 c-2 -18 -3 -37 -4 -41 -1 -4 -10 -3 -20 3 -17 9 -18
14 -9 40 14 41 36 39 33 -2z m-1462 -46 c-3 -14 -25 -31 -60 -48 -56 -28 -69
-42 -106 -116 -23 -45 -57 -60 -92 -41 -13 8 -11 16 17 59 56 86 88 112 178
139 14 4 34 14 44 21 24 16 27 14 19 -14z m1495 -7 c-1 -14 -6 -25 -11 -25 -5
0 -6 7 -3 16 3 9 6 20 6 25 0 5 2 9 5 9 3 0 4 -11 3 -25z m586 -49 l40 -47
-19 -54 c-10 -30 -22 -55 -26 -55 -9 0 -124 94 -133 109 -15 23 61 106 88 98
6 -2 28 -25 50 -51z m-6210 23 c38 -18 38 -35 1 -81 -55 -69 -72 -108 -85
-200 -9 -68 -9 -112 0 -195 12 -118 51 -283 81 -351 11 -24 23 -58 26 -75 3
-18 12 -44 20 -59 7 -15 13 -30 13 -33 -1 -9 80 -169 94 -185 7 -8 26 -41 41
-73 15 -32 42 -77 59 -100 17 -23 35 -49 41 -58 38 -61 118 -170 133 -181 10
-7 39 -37 66 -65 38 -42 45 -53 30 -53 -23 0 -277 257 -299 303 -8 18 -32 55
-53 82 -40 54 -132 206 -132 220 0 5 -18 45 -39 89 -46 95 -111 268 -111 295
0 11 -5 32 -12 48 -28 69 -47 266 -36 383 7 83 14 106 55 190 58 116 61 120
107 99z m4584 -44 c20 -13 65 -46 99 -72 34 -27 69 -53 78 -58 15 -9 10 -20
-37 -89 -30 -44 -59 -81 -65 -83 -12 -4 -32 45 -40 101 -3 21 -13 53 -23 70
-10 17 -23 49 -30 71 -7 22 -16 44 -21 50 -10 10 -12 35 -4 35 3 0 22 -11 43
-25z m962 0 c11 -13 15 -13 23 -3 6 9 7 7 3 -6 -4 -12 1 -27 15 -43 23 -23 41
-31 37 -14 -7 24 62 -7 84 -37 7 -10 25 -27 41 -36 37 -25 35 -56 -5 -79 -29
-16 -30 -20 -15 -28 28 -16 20 -38 -17 -45 -22 -4 -33 -11 -30 -18 3 -7 -3
-19 -12 -27 -13 -11 -18 -11 -21 -1 -3 6 -8 10 -12 7 -18 -10 -8 54 10 71 23
21 24 47 3 80 -13 18 -20 22 -30 13 -19 -16 -68 -7 -72 14 -2 10 3 17 12 17 8
0 19 8 25 17 12 22 -3 53 -25 53 -10 0 -14 6 -10 15 6 18 -7 19 -35 4 -13 -6
-18 -17 -14 -28 3 -9 -2 -26 -10 -37 -15 -19 -15 -19 -34 4 -11 12 -24 22 -31
22 -6 0 -9 4 -6 9 3 5 15 7 26 4 16 -4 20 0 20 22 0 19 6 28 21 32 12 3 18 11
15 19 -7 19 28 18 44 -1z m1113 -41 c48 -65 -11 -113 -87 -70 -33 18 -41 28
-42 53 -2 30 0 31 31 26 18 -3 41 0 51 6 26 14 26 14 47 -15z m-4325 -108 c56
-43 102 -81 102 -85 0 -3 18 -17 40 -31 23 -14 66 -53 97 -88 31 -35 69 -71
85 -80 40 -23 43 -45 13 -91 -14 -22 -25 -44 -25 -49 0 -5 -12 -19 -26 -33
-14 -13 -39 -50 -56 -82 -21 -38 -48 -70 -80 -93 l-48 -36 -43 25 c-23 14 -69
47 -101 73 l-58 48 61 58 61 58 -57 54 c-32 30 -90 79 -129 109 -39 31 -79 67
-88 82 -9 14 -28 31 -40 37 l-24 10 39 76 c21 42 58 95 81 119 l42 43 26 -23
c14 -13 71 -59 128 -101z m3216 43 c-10 -16 -24 -9 -24 12 0 18 2 19 15 9 8
-7 12 -16 9 -21z m-37 -61 c-3 -8 -6 -5 -6 6 -1 11 2 17 5 13 3 -3 4 -12 1
-19z m328 12 c3 -5 1 -10 -4 -10 -6 0 -11 5 -11 10 0 6 2 10 4 10 3 0 8 -4 11
-10z m255 -24 c0 -8 -4 -18 -10 -21 -5 -3 -10 3 -10 14 0 12 5 21 10 21 6 0
10 -6 10 -14z m415 -109 c22 -12 40 -27 40 -33 0 -5 -12 -24 -26 -42 l-26 -33
-34 19 c-39 21 -46 41 -29 83 15 35 23 35 75 6z m-975 -21 c0 -11 -19 -15 -25
-6 -3 5 1 10 9 10 9 0 16 -2 16 -4z m530 -21 c0 -8 0 -18 1 -22 0 -4 -4 -9
-10 -11 -6 -2 -11 8 -11 22 0 14 5 26 10 26 6 0 10 -7 10 -15z m767 -32 c9
-12 10 -20 2 -30 -14 -16 -33 -16 -74 -2 -29 11 -31 14 -21 36 10 21 16 23 46
18 19 -4 41 -13 47 -22z m127 -55 c-5 -7 -2 -9 8 -5 11 4 18 -1 21 -14 4 -16
3 -18 -8 -9 -8 7 -19 9 -25 5 -5 -3 -15 -3 -22 1 -7 5 -5 11 7 21 23 16 28 17
19 1z m-174 -13 c7 -9 19 -14 27 -11 7 3 13 1 13 -4 0 -13 -12 -13 -44 0 -14
5 -26 14 -26 20 0 15 16 12 30 -5z m173 -82 c8 -6 18 -9 21 -6 3 4 6 -1 6 -10
0 -26 -3 -25 -89 39 -1 1 0 7 3 13 4 6 14 4 26 -7 10 -9 25 -22 33 -29z m-59
-49 c41 -41 43 -47 17 -79 -17 -22 -20 -23 -40 -9 -27 19 -71 63 -71 71 0 3 6
1 13 -6 18 -14 37 5 37 36 0 13 2 23 4 23 2 0 20 -16 40 -36z m366 -71 c0 -26
0 -26 -19 -7 -20 21 -18 34 5 34 9 0 14 -10 14 -27z m-54 -70 c-10 -10 -19 5
-10 18 6 11 8 11 12 0 2 -7 1 -15 -2 -18z m-2208 -3 c19 -16 21 -23 12 -40 -9
-16 -8 -22 6 -27 10 -4 20 0 26 11 11 20 30 12 22 -9 -4 -8 -10 -12 -15 -9 -5
3 -13 -6 -18 -19 -11 -27 -29 -43 -38 -33 -4 4 -1 12 5 18 7 7 12 17 12 23 0
5 -7 2 -15 -9 -19 -24 -45 -14 -45 19 0 28 9 31 30 13 7 -7 6 -2 -3 12 -17 25
-23 70 -9 70 4 -1 17 -9 30 -20z m1338 6 c7 -17 -45 -86 -64 -86 -28 0 -24 32
9 66 36 37 47 41 55 20z m774 -3 c14 -9 27 -20 30 -23 3 -4 15 -12 28 -19 24
-13 28 -31 11 -48 -26 -26 -126 58 -112 93 7 18 13 18 43 -3z m-4864 -40 c21
-27 18 -32 -35 -57 -28 -12 -65 -35 -85 -49 -43 -33 -46 -33 -46 -3 0 22 51
68 125 113 26 16 26 16 41 -4z m5364 -23 c11 -11 20 -26 21 -32 0 -7 3 -25 5
-40 6 -35 -10 -36 -59 -3 -36 25 -44 45 -31 79 8 22 40 20 64 -4z m-353 -42
c77 -43 98 -78 74 -117 -8 -12 -14 -13 -35 -3 -14 6 -26 16 -26 22 0 5 -7 10
-15 10 -13 0 -15 7 -9 35 5 26 3 35 -7 35 -22 0 -42 17 -35 29 9 14 9 15 53
-11z m-4924 -20 c30 -16 207 -190 207 -204 0 -6 24 -39 53 -72 73 -85 110
-138 156 -226 22 -42 49 -89 60 -105 24 -33 101 -197 101 -214 0 -7 6 -23 13
-37 7 -14 21 -52 31 -85 10 -33 23 -73 29 -89 6 -17 12 -37 13 -45 2 -9 7 -45
13 -81 13 -82 14 -304 1 -367 -5 -26 -11 -64 -14 -83 -2 -19 -5 -35 -6 -35 -1
0 -3 -7 -5 -15 -2 -8 -12 -35 -23 -60 l-20 -45 2 130 c2 102 -3 156 -21 249
-13 65 -28 126 -33 136 -6 10 -10 29 -10 42 0 13 -16 59 -36 103 -19 44 -40
94 -46 110 -6 17 -24 49 -40 72 -16 24 -36 62 -44 85 -8 24 -35 68 -59 100
-25 31 -45 59 -45 62 0 15 -160 226 -172 226 -4 0 -26 26 -49 58 -22 31 -68
84 -100 117 -32 33 -83 85 -113 116 l-55 56 27 24 c94 83 139 102 185 77z
m2655 -27 c-4 -21 -29 -25 -53 -7 -16 11 -17 16 -6 29 10 13 17 14 37 5 14 -7
23 -18 22 -27z m135 33 c3 -4 -1 -16 -9 -29 -14 -21 -10 -55 6 -55 4 0 11 -7
14 -16 5 -14 1 -15 -31 -9 -21 4 -41 9 -46 12 -8 5 43 103 54 103 3 0 8 -3 12
-6z m-3048 -64 c3 -5 1 -10 -4 -10 -6 0 -11 5 -11 10 0 6 2 10 4 10 3 0 8 -4
11 -10z m2515 -41 c0 -11 -33 -71 -75 -134 -18 -27 -45 -75 -60 -105 -25 -51
-76 -110 -94 -110 -5 0 -14 6 -20 14 -9 10 -3 28 25 77 19 35 47 78 60 96 14
18 38 63 55 100 17 37 37 76 46 85 14 16 17 16 39 1 13 -8 24 -19 24 -24z
m920 11 c0 -5 -4 -10 -10 -10 -5 0 -10 5 -10 10 0 6 5 10 10 10 6 0 10 -4 10
-10z m-4188 -39 c79 -23 186 -73 225 -105 15 -12 50 -36 78 -52 27 -16 71 -49
96 -74 26 -25 67 -61 91 -81 24 -20 52 -54 63 -75 11 -21 37 -58 57 -81 29
-33 101 -154 97 -165 0 -2 3 -11 6 -21 11 -26 -10 -44 -68 -57 -29 -7 -58 -17
-64 -23 -7 -5 -13 -6 -13 -2 0 4 -6 3 -13 -3 -10 -8 -19 -3 -40 23 -15 19 -27
37 -27 41 0 4 -20 29 -45 55 -25 26 -45 55 -45 64 0 22 -210 229 -257 253 -21
11 -49 30 -62 42 -12 13 -44 34 -70 48 -106 57 -159 82 -173 82 -7 0 -23 6
-34 14 -12 8 -34 17 -50 20 -16 2 -30 5 -31 5 -2 1 -5 0 -6 -1 -9 -7 -37 26
-37 43 0 23 38 59 55 53 7 -3 16 -1 20 5 11 19 173 13 247 -8z m3574 -30 c-9
-10 -18 -35 -19 -54 -2 -30 -4 -34 -20 -25 -16 8 -16 11 -2 36 8 15 20 40 25
56 8 22 14 26 22 18 9 -9 7 -16 -6 -31z m-91 -5 c15 -5 16 -9 6 -15 -9 -6 -10
-11 -2 -15 6 -4 16 -4 21 -1 14 8 13 -8 -1 -22 -14 -14 -59 35 -59 63 0 11 3
15 8 8 4 -6 16 -14 27 -18z m1885 -35 c0 -18 -6 -31 -16 -35 -14 -5 -15 -4 -5
8 6 8 11 18 10 22 -2 15 1 34 6 34 3 0 5 -13 5 -29z m-1725 9 c3 -5 -1 -10 -9
-10 -9 0 -16 5 -16 10 0 6 4 10 9 10 6 0 13 -4 16 -10z m2112 -82 c20 -22 43
-23 43 -3 0 16 25 21 34 7 8 -14 -32 -42 -51 -35 -15 5 -63 50 -63 59 0 1 3
11 7 21 7 15 8 15 11 -7 2 -14 11 -33 19 -42z m474 30 c31 -14 59 -31 63 -37
8 -12 -16 -62 -39 -81 -13 -11 -22 -10 -53 4 -37 17 -92 60 -92 71 0 10 55 75
60 72 3 -1 30 -14 61 -29z m-2095 -4 c-9 -9 -20 -13 -24 -9 -4 3 2 13 12 21
25 18 33 10 12 -12z m-531 -14 c3 -5 1 -10 -4 -10 -6 0 -11 5 -11 10 0 6 2 10
4 10 3 0 8 -4 11 -10z m430 0 c3 -5 -1 -10 -9 -10 -9 0 -16 5 -16 10 0 6 4 10
9 10 6 0 13 -4 16 -10z m71 -27 c-3 -21 -26 -30 -26 -10 0 7 3 17 7 20 12 12
21 7 19 -10z m-452 -8 c10 -7 16 -19 14 -25 -2 -6 -14 0 -27 14 -26 28 -18 35
13 11z m-5048 -100 c32 -48 78 -124 102 -168 24 -45 65 -104 91 -132 26 -27
56 -63 66 -80 24 -38 157 -209 200 -255 38 -41 54 -86 25 -70 -34 18 -166 156
-200 208 -18 28 -37 52 -41 52 -9 0 -119 135 -119 145 0 3 -18 33 -40 66 -22
33 -40 63 -40 66 0 2 -20 30 -44 61 -24 32 -50 77 -56 102 -7 25 -17 51 -22
57 -11 14 -3 47 10 39 5 -3 35 -44 68 -91z m5029 35 c-5 -8 -11 -6 -20 7 -17
23 -7 39 12 20 9 -8 12 -20 8 -27z m-293 -22 c-7 -7 -12 -8 -12 -2 0 14 12 26
19 19 2 -3 -1 -11 -7 -17z m53 2 c3 -5 28 -20 55 -32 38 -18 50 -28 50 -45 0
-13 6 -23 13 -23 8 0 22 -9 32 -20 17 -19 17 -21 0 -40 -25 -27 -34 -25 -49
11 -13 30 -64 69 -91 69 -7 0 -27 11 -42 25 -26 23 -27 24 -6 25 16 0 20 5 16
20 -5 20 11 28 22 10z m160 -28 c0 -18 -20 -15 -23 4 -3 10 1 15 10 12 7 -3
13 -10 13 -16z m2609 -58 c7 -18 -28 -90 -46 -97 -7 -2 -26 6 -43 17 -16 12
-39 26 -49 32 -33 18 -37 48 -10 87 l24 36 59 -30 c32 -16 62 -36 65 -45z
m398 42 c19 -8 41 -22 48 -31 12 -15 11 -19 -10 -35 l-24 -18 57 -7 c53 -7 57
-9 57 -34 0 -38 -25 -70 -50 -64 -11 3 -20 9 -20 14 0 5 -5 9 -10 9 -25 0 -99
43 -118 70 -19 25 -20 33 -10 57 10 22 34 50 44 53 1 0 17 -6 36 -14z m-2522
-61 c7 -8 17 -12 24 -8 6 3 5 0 -2 -8 -13 -15 -42 -4 -50 19 -5 17 13 15 28
-3z m-605 -49 c16 -12 17 -16 6 -30 -17 -20 -60 -21 -67 -1 -15 39 23 59 61
31z m2585 -16 c25 -16 51 -30 58 -30 20 0 14 -26 -14 -59 -19 -23 -29 -28 -42
-22 -9 5 -31 15 -49 21 -17 7 -39 20 -47 29 -15 16 -15 20 4 44 11 14 20 30
20 36 0 19 23 12 70 -19z m-372 1 c3 -8 -1 -12 -9 -9 -7 2 -15 10 -17 17 -3 8
1 12 9 9 7 -2 15 -10 17 -17z m-2328 -11 c0 -5 -4 -10 -10 -10 -5 0 -10 5 -10
10 0 6 5 10 10 10 6 0 10 -4 10 -10z m490 -27 c0 -20 -3 -24 -11 -16 -7 7 -9
19 -6 27 10 24 17 19 17 -11z m2940 -9 c-18 -21 -24 -10 -8 15 7 12 14 17 16
11 2 -6 -2 -17 -8 -26z m-2422 -16 c2 -4 9 -8 15 -8 7 0 23 -12 36 -26 l24
-25 -22 -23 c-11 -12 -21 -27 -21 -33 0 -6 -17 -31 -38 -57 -21 -25 -57 -85
-81 -133 -24 -48 -45 -90 -47 -92 -2 -2 -25 10 -51 26 -26 16 -56 32 -65 36
-24 9 -23 20 7 55 14 17 25 34 25 38 0 5 22 37 48 70 26 34 62 91 81 127 32
61 37 66 60 60 14 -3 28 -10 29 -15z m-412 -4 c22 -15 23 -19 11 -33 -8 -9
-18 -27 -22 -41 -14 -49 -32 -68 -59 -63 -31 6 -36 39 -7 48 14 4 18 15 17 43
-1 22 5 42 14 49 19 16 16 16 46 -3z m-178 -29 c32 -32 33 -35 18 -57 -22 -31
-20 -38 9 -38 28 0 33 -15 9 -24 -13 -5 -16 -16 -11 -59 3 -34 0 -61 -9 -79
-13 -24 -16 -25 -43 -15 -39 14 -50 44 -53 141 -3 71 -1 81 17 90 46 25 48 27
26 43 -12 8 -19 19 -16 24 10 15 18 11 53 -26z m2203 6 c51 -25 66 -107 27
-148 -12 -13 -26 -23 -32 -23 -6 0 -30 17 -54 38 -38 34 -41 40 -28 52 9 7 16
19 16 27 0 20 30 75 38 71 4 -2 19 -10 33 -17z m-2491 -47 c0 -6 -7 -17 -15
-24 -12 -10 -20 -9 -40 4 -28 18 -30 28 -15 57 11 19 11 19 40 -3 17 -12 30
-27 30 -34z m217 20 c-3 -3 -12 -4 -19 -1 -8 3 -5 6 6 6 11 1 17 -2 13 -5z
m-3987 -85 c134 -22 261 -113 364 -263 36 -52 40 -65 44 -135 4 -65 1 -84 -17
-117 -31 -58 -44 -72 -85 -89 -42 -18 -42 -33 0 -55 16 -8 52 -29 81 -47 28
-18 55 -33 59 -33 13 0 253 -121 259 -131 9 -14 75 -45 111 -52 16 -3 54 -22
83 -41 29 -20 57 -36 62 -36 5 0 27 -11 49 -25 22 -14 75 -39 117 -56 43 -17
85 -36 93 -43 24 -21 258 -136 276 -136 8 0 147 -62 244 -109 111 -53 272
-172 256 -188 -3 -3 -42 13 -86 36 -45 23 -114 55 -155 71 -41 16 -83 34 -92
39 -10 5 -69 34 -131 65 -63 32 -121 61 -130 66 -10 5 -39 19 -67 31 -27 12
-66 30 -85 40 -19 10 -91 46 -160 79 -174 85 -178 88 -333 174 -76 42 -141 76
-144 76 -3 0 -24 15 -47 33 -40 32 -294 177 -310 177 -7 0 -53 -18 -156 -63
-14 -6 -27 -11 -30 -12 -3 -1 -12 -4 -20 -7 -8 -4 -30 -9 -48 -12 -18 -3 -62
-19 -98 -36 -36 -16 -68 -30 -72 -29 -16 1 -152 211 -166 257 -4 12 -11 22
-16 22 -13 0 -42 63 -33 71 5 4 35 22 68 39 33 18 71 40 85 49 62 43 209 121
227 121 25 0 47 25 40 44 -10 26 -83 56 -134 56 -64 0 -161 -44 -144 -64 10
-11 6 -17 -20 -30 -17 -9 -36 -13 -42 -9 -6 3 -7 1 -3 -5 8 -13 0 -14 -29 -3
-18 7 -18 9 8 22 l28 15 -21 19 c-25 22 -25 48 -3 86 14 24 15 35 6 58 -12 32
-8 41 15 41 9 0 23 7 32 15 35 32 155 43 270 24z m6726 -14 c10 -8 15 -14 9
-14 -5 0 -19 6 -29 14 -11 8 -15 15 -10 15 6 0 19 -7 30 -15z m-2548 -53 c4
-25 -13 -30 -22 -6 -9 25 -7 36 7 32 6 -3 13 -14 15 -26z m1056 -8 c5 -14 4
-15 -9 -4 -17 14 -19 20 -6 20 5 0 12 -7 15 -16z m1446 -38 c0 -3 -4 -8 -10
-11 -5 -3 -10 -1 -10 4 0 6 5 11 10 11 6 0 10 -2 10 -4z m-1238 -33 c7 -10 29
-32 49 -49 26 -22 34 -36 28 -45 -10 -16 -25 -4 -31 26 -3 16 -8 12 -23 -20
-11 -22 -18 -48 -17 -57 3 -16 0 -17 -25 -7 -29 11 -83 57 -83 70 0 12 49 82
63 91 18 11 25 10 39 -9z m-477 -9 c32 -21 32 -38 2 -30 -18 4 -29 -1 -46 -24
-18 -25 -24 -28 -36 -18 -11 11 -9 17 11 39 13 14 24 30 24 37 0 17 16 15 45
-4z m632 -11 c-3 -3 -11 -2 -17 2 -9 6 -9 10 1 16 14 8 27 -7 16 -18z m-252
-12 c-16 -32 -35 -49 -35 -32 0 6 4 11 8 11 5 0 14 11 20 25 6 14 14 25 17 25
3 0 -1 -13 -10 -29z m-305 -16 c6 -15 17 -25 30 -25 23 0 26 -10 8 -29 -10
-11 -10 -14 -1 -18 7 -3 22 -12 34 -22 18 -15 20 -22 12 -46 -5 -16 -17 -33
-26 -39 -13 -9 -20 -6 -34 14 -10 14 -18 32 -19 40 -1 8 -2 24 -3 35 0 11 -14
29 -31 40 -16 11 -24 22 -19 26 6 3 11 10 11 15 2 39 25 44 38 9z m-606 -59
c37 -44 44 -70 25 -81 -5 -4 -22 -32 -36 -63 -15 -32 -28 -58 -29 -60 -4 -6
-125 90 -122 97 13 29 105 151 115 151 6 0 28 -20 47 -44z m-5423 -23 c14 -16
37 -45 52 -65 l28 -38 -47 -57 c-26 -32 -78 -90 -117 -130 -38 -40 -81 -89
-96 -110 -25 -36 -38 -51 -104 -110 -15 -14 -36 -42 -47 -62 -10 -20 -42 -54
-70 -75 -29 -22 -58 -49 -66 -61 -23 -36 -87 -99 -119 -120 -16 -10 -47 -38
-68 -62 -44 -49 -61 -53 -79 -20 -11 20 -48 206 -69 352 -22 154 -29 196 -49
285 -12 52 -25 118 -30 145 -4 28 -13 63 -19 79 -6 16 -9 32 -5 35 6 6 83 -78
84 -93 0 -10 217 -280 277 -345 l42 -46 31 35 c109 124 139 159 172 204 64 86
247 286 263 286 6 0 22 -12 36 -27z m6565 -49 c19 -3 34 -10 34 -16 0 -5 5 -6
10 -3 6 3 13 -1 16 -10 5 -11 14 -15 29 -11 19 5 22 2 17 -19 -6 -33 -22 -42
-37 -22 -12 17 -77 16 -83 -2 -2 -5 -18 7 -37 26 l-35 36 23 31 c17 24 22 27
25 14 2 -11 17 -20 38 -24z m-726 5 c0 -18 -20 -49 -32 -49 -6 0 -3 9 6 19 10
11 15 25 11 30 -3 6 -1 11 4 11 6 0 11 -5 11 -11z m-80 -51 c0 -17 -15 -7 -27
18 -12 26 -12 26 7 9 11 -10 20 -22 20 -27z m507 34 c11 -7 7 -52 -5 -52 -8 0
-31 34 -32 48 0 13 19 16 37 4z m-304 -22 c17 -8 23 -16 16 -20 -15 -10 -59
12 -59 28 0 7 3 12 8 10 4 -2 19 -10 35 -18z m364 -60 c3 -11 12 -20 21 -20
13 0 13 -2 -1 -18 -10 -10 -17 -27 -17 -38 0 -16 -2 -16 -10 -4 -6 9 -6 18 0
24 16 16 11 29 -9 23 -13 -3 -21 2 -25 16 -3 11 -3 24 0 29 10 15 36 8 41 -12z
m286 -6 c9 -4 17 -11 17 -16 0 -6 -7 -7 -16 -4 -9 3 -22 6 -30 6 -8 0 -14 7
-14 16 0 9 5 13 13 10 6 -3 20 -9 30 -12z m-373 -13 c0 -5 -9 -7 -20 -4 -11 3
-20 7 -20 9 0 2 9 4 20 4 11 0 20 -4 20 -9z m640 -46 c0 -29 -50 -114 -71
-120 -11 -4 -22 -5 -24 -3 -6 5 79 138 87 138 5 0 8 -7 8 -15z m-1037 -52 c40
-31 76 -60 81 -64 9 -8 -51 -89 -66 -89 -4 0 -8 7 -8 15 0 8 -6 15 -12 15 -7
0 -20 5 -28 10 -12 8 -11 12 8 30 45 42 18 55 -30 15 l-31 -26 -28 28 c-15 15
-23 30 -18 31 15 6 10 22 -6 22 -36 0 -2 52 40 63 11 2 21 5 23 6 2 0 35 -24
75 -56z m130 50 c3 -5 1 -17 -3 -27 -7 -20 -12 -16 -23 17 -6 17 17 26 26 10z
m215 -77 c21 -34 34 -45 61 -50 19 -3 47 -18 63 -32 15 -15 28 -24 28 -19 0 4
9 0 20 -10 11 -10 20 -27 20 -37 0 -12 6 -18 18 -16 13 2 18 -5 20 -39 2 -23
-2 -51 -8 -63 -7 -12 -7 -26 -2 -36 7 -13 10 -10 16 16 8 41 45 102 57 94 11
-7 12 -44 1 -44 -11 0 -32 -46 -32 -69 0 -23 -41 -51 -74 -51 -14 0 -27 -4
-31 -10 -8 -13 -35 -1 -35 16 0 8 7 14 15 14 8 0 15 7 15 15 0 8 -4 15 -9 15
-20 0 -41 33 -41 65 0 39 -15 54 -23 23 -5 -17 -9 -19 -21 -9 -12 10 -14 9 -9
-11 3 -13 10 -28 15 -35 12 -14 2 -33 -16 -33 -14 0 -25 38 -31 100 -1 19 -3
41 -4 48 0 7 -24 35 -52 63 -46 45 -50 53 -44 82 7 30 29 57 47 57 5 0 21 -20
36 -44z m608 -132 c49 -39 49 -41 29 -68 -14 -18 -15 -18 -41 -1 -14 9 -34 15
-44 12 -24 -6 -37 42 -20 72 15 29 26 27 76 -15z m-6153 -1 c49 -62 97 -142
97 -161 0 -5 -25 -22 -56 -38 -31 -16 -78 -53 -104 -81 l-48 -53 -42 50 c-22
27 -50 52 -60 55 -25 8 -26 25 -2 25 12 0 23 13 31 38 14 38 137 192 154 192
5 0 19 -12 30 -27z m6585 -26 c2 -12 -1 -15 -12 -11 -22 8 -30 36 -9 32 10 -2
19 -11 21 -21z m216 8 c3 -8 1 -15 -4 -15 -6 0 -10 7 -10 15 0 8 2 15 4 15 2
0 6 -7 10 -15z m246 -107 c58 -46 116 -86 150 -103 46 -23 120 -86 114 -96 -6
-10 -21 -5 -92 27 -29 13 -57 24 -62 24 -6 0 -19 9 -30 20 -12 12 -47 26 -83
33 -44 8 -63 17 -65 29 -3 17 25 88 35 88 3 0 18 -10 33 -22z m-982 -48 c25 0
22 -23 -7 -56 -17 -19 -31 -40 -31 -47 0 -7 -27 -50 -60 -97 -33 -47 -70 -104
-81 -128 -26 -52 -57 -67 -105 -52 -19 7 -34 16 -34 21 0 17 38 85 55 99 15
12 39 46 112 155 18 27 31 56 28 62 -2 7 12 29 32 48 l36 35 22 -20 c12 -11
26 -20 33 -20z m640 -22 c7 -7 12 -20 12 -30 0 -16 -3 -17 -20 -8 -11 6 -20
20 -20 30 0 23 10 26 28 8z m-6347 -58 c34 -16 66 -33 73 -39 21 -17 87 -51
99 -51 7 0 28 -10 47 -23 19 -13 58 -29 85 -36 28 -7 73 -23 100 -36 28 -12
66 -26 85 -30 19 -4 46 -13 60 -20 14 -7 61 -22 105 -34 44 -12 90 -29 102
-37 12 -8 35 -14 50 -14 21 -1 24 -3 13 -10 -26 -14 -195 15 -320 55 -63 21
-167 60 -231 86 -65 27 -125 49 -134 49 -10 0 -36 15 -59 33 -23 18 -67 48
-98 66 -65 36 -77 49 -57 62 18 11 10 13 80 -21z m6632 -33 c25 -41 27 -50 16
-64 -13 -14 -15 -13 -20 13 -7 29 -7 29 -8 3 0 -15 -8 -33 -17 -40 -14 -11
-19 -10 -34 9 -23 28 -34 28 -53 0 -27 -40 -20 5 9 59 50 90 62 93 107 20z
m-1643 -87 c36 -26 90 -61 120 -78 30 -17 71 -47 89 -66 19 -20 40 -36 45 -36
6 0 26 -9 45 -21 l33 -20 -23 -25 c-28 -30 -171 -110 -214 -119 -38 -9 -212
-81 -244 -102 -13 -8 -35 -19 -50 -23 -42 -14 -253 -104 -291 -125 -40 -22
-190 -85 -202 -85 -5 0 -60 -25 -124 -55 -64 -30 -123 -55 -132 -55 -15 0
-139 -53 -268 -116 -85 -41 -107 -42 -131 -8 -10 14 -28 38 -40 53 -27 34 -30
31 90 97 48 27 109 61 135 76 26 15 53 28 60 28 7 0 40 18 72 40 32 22 62 40
65 40 3 0 23 13 43 30 20 16 65 43 100 60 34 18 62 35 62 40 0 4 42 35 93 69
150 99 190 129 230 171 22 22 45 40 52 40 7 0 45 32 86 70 40 39 78 70 84 70
21 0 86 70 91 100 7 30 7 30 33 14 14 -9 55 -38 91 -64z m1768 8 c2 -13 -2
-15 -20 -10 -21 5 -48 25 -48 35 0 13 65 -11 68 -25z m-490 -10 c18 -18 15
-40 -11 -70 -21 -27 -23 -27 -44 -10 -25 19 -22 62 3 62 8 0 17 7 20 15 7 18
16 19 32 3z m-109 -5 c-4 -23 3 -32 19 -27 15 5 15 4 -2 -10 -10 -8 -23 -13
-27 -10 -11 6 -12 38 -2 47 8 9 13 9 12 0z m385 -40 c5 -12 9 -14 18 -5 18 18
28 14 28 -9 0 -17 3 -19 13 -10 14 11 37 -3 37 -22 0 -5 14 -25 30 -44 48 -54
35 -55 -18 -2 l-49 49 -1 -32 c0 -18 6 -37 15 -43 9 -7 12 -14 6 -18 -17 -11
-152 89 -153 113 0 3 4 12 10 20 7 12 12 11 31 -5 22 -20 22 -20 15 3 -8 25 9
31 18 5z m-484 -132 c0 -10 -7 -24 -15 -31 -13 -10 -15 -9 -15 12 0 14 3 28 7
31 12 13 23 7 23 -12z m50 -32 c0 -11 4 -18 10 -14 5 3 7 12 3 20 -5 16 5 19
31 9 22 -9 20 -21 -10 -56 -14 -17 -28 -44 -31 -59 -3 -16 -7 -29 -10 -29 -16
0 -44 25 -62 55 l-21 36 27 29 c33 35 63 39 63 9z m640 1 c0 -5 -4 -10 -9 -10
-6 0 -13 5 -16 10 -3 6 1 10 9 10 9 0 16 -4 16 -10z m35 -10 c3 -5 1 -10 -4
-10 -6 0 -11 5 -11 10 0 6 2 10 4 10 3 0 8 -4 11 -10z m-72 -86 c9 -4 17 -10
17 -15 0 -17 -27 -9 -46 12 -13 15 -14 20 -4 15 8 -3 23 -9 33 -12z m-713 -46
c16 -13 41 -31 55 -42 15 -10 23 -21 18 -25 -9 -7 -45 -59 -53 -78 -6 -13
-119 65 -120 83 0 6 14 23 30 37 17 15 30 32 30 37 0 15 9 12 40 -12z m280
-78 c0 -5 -4 -10 -10 -10 -5 0 -10 5 -10 10 0 6 5 10 10 10 6 0 10 -4 10 -10z
m117 -52 c-3 -8 -6 -5 -6 6 -1 11 2 17 5 13 3 -3 4 -12 1 -19z m123 11 c0 -6
-7 -17 -15 -25 -13 -14 -15 -13 -15 4 0 10 3 22 7 25 10 11 23 8 23 -4z"/>
<path d="M1180 9368 c1 -14 70 -51 70 -37 0 4 -9 10 -19 14 -11 3 -22 12 -25
20 -7 18 -26 20 -26 3z"/>
<path d="M1185 7618 c4 -13 14 -29 24 -36 9 -7 15 -16 13 -20 -5 -11 29 -15
39 -5 6 6 -3 24 -22 46 -36 42 -64 50 -54 15z"/>
<path d="M3034 6764 c3 -9 6 -21 6 -27 0 -8 3 -8 11 0 8 8 20 1 44 -26 18 -20
36 -33 39 -30 7 7 -82 99 -96 99 -6 0 -7 -7 -4 -16z"/>
<path d="M3211 7807 c2 -1 14 -11 27 -21 12 -11 22 -16 22 -13 0 10 -31 37
-42 37 -6 0 -9 -1 -7 -3z"/>
<path d="M3270 7766 c0 -2 7 -7 16 -10 8 -3 12 -2 9 4 -6 10 -25 14 -25 6z"/>
<path d="M820 7640 c0 -5 5 -10 10 -10 6 0 10 5 10 10 0 6 -4 10 -10 10 -5 0
-10 -4 -10 -10z"/>
<path d="M3430 7110 c0 -5 5 -10 10 -10 6 0 10 5 10 10 0 6 -4 10 -10 10 -5 0
-10 -4 -10 -10z"/>
<path d="M5072 5378 c-7 -7 -12 -19 -12 -27 0 -8 -54 -68 -120 -133 -66 -64
-120 -122 -120 -127 0 -29 26 -14 92 54 40 41 80 82 88 90 8 8 34 31 57 50
l41 36 34 -28 c18 -16 51 -42 73 -58 22 -16 61 -49 86 -74 26 -25 62 -55 80
-66 19 -11 35 -28 37 -37 2 -9 -18 -46 -43 -83 -44 -65 -52 -94 -29 -102 5 -2
34 28 62 67 29 38 56 70 61 70 4 0 16 -9 27 -21 10 -12 37 -30 59 -41 89 -45
189 -168 187 -230 -1 -45 13 -40 41 15 33 63 34 73 5 81 -27 7 -164 119 -268
220 -41 39 -91 84 -110 98 -19 14 -55 45 -79 67 -24 23 -63 55 -87 71 -23 17
-59 50 -80 75 -37 46 -60 55 -82 33z"/>
<path d="M7786 4500 c-19 -39 -6 -39 16 0 9 17 13 30 8 30 -5 0 -15 -13 -24
-30z"/>
<path d="M10020 3069 c0 -5 5 -7 10 -4 6 3 10 8 10 11 0 2 -4 4 -10 4 -5 0
-10 -5 -10 -11z"/>
<path d="M3115 2392 c-16 -9 -57 -33 -90 -54 -33 -20 -72 -40 -87 -43 -30 -8
-34 -16 -18 -45 19 -35 47 -43 83 -24 103 54 170 84 185 84 9 0 29 -6 43 -14
33 -17 108 -31 94 -18 -27 27 -166 132 -172 131 -5 0 -21 -8 -38 -17z"/>
<path d="M8503 2688 c-31 -49 -33 -58 -13 -78 11 -11 26 -20 34 -20 12 0 12 6
3 29 -9 24 -8 32 6 46 10 9 15 21 12 26 -9 13 -32 11 -42 -3z"/>
<path d="M8624 2501 c20 -22 54 -33 62 -20 3 5 -3 12 -13 15 -10 3 -26 10 -35
15 -28 14 -33 11 -14 -10z"/>
<path d="M7870 2290 c0 -5 5 -10 11 -10 5 0 7 5 4 10 -3 6 -8 10 -11 10 -2 0
-4 -4 -4 -10z"/>
<path d="M8390 2189 c0 -5 5 -7 10 -4 6 3 10 8 10 11 0 2 -4 4 -10 4 -5 0 -10
-5 -10 -11z"/>
<path d="M8414 2154 c-1 -13 2 -21 7 -18 11 6 12 31 2 37 -5 3 -9 -6 -9 -19z"/>
<path d="M9671 1704 c0 -11 3 -14 6 -6 3 7 2 16 -1 19 -3 4 -6 -2 -5 -13z"/>
</g>
</svg>
